<svg width="542" height="528" fill="none" xmlns="http://www.w3.org/2000/svg"><path opacity=".05" d="M509.231 429.836c.385-71.189-99.078-105.961-222.156-106.628-123.078-.667-223.164 33.023-223.549 104.212-.384 71.189 167.755 98.324 290.833 98.991 123.078.668 154.488-25.386 154.872-96.575z" fill="#666"/><path d="m337.788 443.174-44.361-22.708c-5.002-2.555-13.475-1.776-18.928 1.735l-79.743-20.399c-2.774 1.79-4.947-1.093-5.056.929 0 .069-.574 1.408-.164 5.397a3.309 3.309 0 0 0 1.23 2.255c8.063 6.367 54.501 34.704 56.728 35.838l42.653 27.749c5.002 2.555 13.475 1.776 18.928-1.735l23.615-15.262c4.182-2.664 5.48-4.946 7.366-8.908.643-1.352.943-3.675.629-5.151-.451-2.09-.615 1.421-2.897.26z" fill="url(#a)"/><path style="mix-blend-mode:color-dodge" d="m290.038 473.574-88.394-58.054c-2.364-1.216 87.765 55.608 87.765 55.608 5.002 2.555 13.475 1.776 18.928-1.735 0 0 17.301-10.042 21.975-12.502l-21.346 14.934c-5.453 3.525-13.926 4.304-18.928 1.735v.014z" fill="url(#b)"/><path style="mix-blend-mode:screen" opacity=".6" d="m337.255 439.526-44.361-22.708c-5.002-2.555-75.014-35.688-80.467-32.163l-18.395 11.887c-5.453 3.525-5.808 8.458-.806 11.013l96.374 62.767c5.002 2.555 13.475 1.776 18.928-1.735l19.871-12.706c4.36-2.132 10.482-10.002 8.842-16.341l.014-.014z" fill="url(#c)"/><path d="m305.863 424.36-13.024-8.403c-4.045-2.077-37.336-30.059-56.715-39.295-5.179-2.473-9.703-.396-23.684 7.993l-18.395 11.887c-5.452 3.525-5.808 8.457-.806 11.012l96.307 61.894c5.002 2.555 13.475 1.776 18.928-1.735l21.237-13.732c-5.234-5.615-18.846-27.066-23.848-29.635v.014z" fill="url(#d)"/><path d="m332.868 449.24-42.42-24.484c-4.783-2.76-8.665-10.179-8.665-16.546l-59.407-54.925c0-3.238-3.553-3.498-1.941-4.673.055-.041 3.43-2.336 8.583-1.735 4.469.519 55.909 24.908 58.177 26.206l45.673 20.399c4.783 2.76 8.664 10.179 8.664 16.546l.301 28.883c0 3.389-.519 9.045-4.305 12.953-1.025 1.052-3.129.054-3.252.095 1.12-.697 1.927-1.38 1.899-1.462-.15-.314-1.667-.3-3.307-1.243v-.014z" fill="url(#e)"/><path style="mix-blend-mode:color-dodge" d="m332.472 393.618-92.945-43.311c-2.255-1.298 90.608 44.09 90.608 44.09 4.783 2.76 8.664 10.179 8.664 16.546 0 0 2.351 35.264 2.351 31.876v-32.655c0-6.38-3.882-13.786-8.665-16.546h-.013z" fill="url(#f)"/><path style="mix-blend-mode:screen" opacity=".6" d="m331.023 448.598-43.869-22.339c-4.783-2.76-69.507-42.874-69.507-49.255v-21.519c0-6.381 3.881-9.305 8.665-6.545l103.262 46.045c4.784 2.76 8.665 10.179 8.665 16.546v27.107c0 3.47-1.544 8.17-3.061 10.493-.233.41-.246.424-.547.847a7.743 7.743 0 0 1-1.08-.41c-.587-.273-1.325-.287-2.528-.983v.013z" fill="url(#g)"/><path d="m317.37 452.902-30.981-26.233c-3.868-2.227-45.523-24.388-63.494-35.469-4.81-2.965-5.248 2.651-5.248 1.421v-37.136c0-6.381 3.881-9.305 8.665-6.545l102.511 46.455c4.783 2.76 8.664 10.178 8.664 16.545v22.572c0 3.211.314 8.662-3.307 14.619-.902 1.476-1.9 3.17-4.742 5.028-.164.109-11.876-1.175-12.054-1.271l-.014.014z" fill="url(#h)"/><path d="M207.917 388.016s9.826-4.864 9.826-18.513c0-13.649 4.674 3.853 4.674 3.853l-2.31 22.571-12.19-7.911z" fill="url(#i)"/><path style="mix-blend-mode:multiply" d="M337.501 434.525v-22.571c0-6.38-3.881-13.786-8.665-16.546l-102.511-46.454c-4.783-2.76-8.664.164-8.664 6.545v17.16c-.929 6.791-4.346 10.917-6.847 13.076l-16.755 10.821c-5.453 3.525-5.808 8.457-.806 11.012l96.306 61.894c5.002 2.555 13.475 1.776 18.928-1.736l21.238-13.731c2.624-1.776 3.608-3.416 4.482-4.837 3.622-5.97 3.308-11.422 3.308-14.619l-.014-.014z" fill="url(#j)"/><path d="M452.735 478.056 311.589 394.52c-11.739-6.777-21.264-24.962-21.264-40.62L120.603 15.946c0-7.966-8.706-8.594-4.743-11.45.151-.11 8.419-5.725 21.06-4.25 10.974 1.285 161.154 72.989 166.702 76.2l149.127 73.493c11.739 6.777 21.265 24.962 21.265 40.62v271.429c0 8.321-2.693 14.25-6.97 16.956-.26.164-11.275 5.397-11.548 5.492-3.799 1.271 2.391-3.415-2.747-6.38h-.014z" fill="url(#k)"/><path style="mix-blend-mode:color-dodge" d="M451.779 150.253 207.616 37.875c-5.548-3.197 238.409 114.291 238.409 114.291 11.739 6.776 21.265 24.962 21.265 40.62 0 0 5.753 277.823 5.753 269.516V190.873c0-15.658-9.525-33.843-21.264-40.62z" fill="url(#l)"/><path style="mix-blend-mode:screen" opacity=".6" d="m444.645 481.745-141.146-83.536C291.76 391.432 109 281.131 109 265.473V21.37c0-15.644 9.525-22.844 21.265-16.068l314.38 148.326c11.739 6.777 21.265 24.962 21.265 40.62v271.429c0 15.658-9.526 22.845-21.265 16.068z" fill="url(#m)"/><path d="m442.8 482.742-141.146-83.535c-9.498-5.479-135.665-71.731-179.767-98.907-11.78-7.269-12.887-31.821-12.887-34.827V21.37c0-15.644 9.525-22.844 21.265-16.068L442.8 154.625c11.739 6.777 21.265 24.963 21.265 40.62v271.429c0 15.658-9.526 22.845-21.265 16.068z" fill="url(#n)"/><path d="M111.897 267.317V22.873c0-13.718 8.35-20.03 18.641-14.087l311.975 149.009c10.291 5.943 18.641 21.888 18.641 35.606v271.77c0 13.718-8.35 20.03-18.641 14.087L130.538 302.923c-10.291-5.943-18.641-21.888-18.641-35.606z" fill="url(#o)"/><path d="M114.248 269.558V26.535c0-12.584 5.835-17.216 14.459-12.242L441.406 161.92c8.61 4.974 15.607 18.322 15.607 29.799v270.364c0 11.49-6.984 16.764-15.607 11.791L129.855 299.357c-8.61-4.973-15.607-18.322-15.607-29.799z" fill="url(#p)"/><path opacity=".45" d="M131.467 16.902c-8.117-4.686-14.705-.929-14.705 8.376v246.139c0 9.318 6.588 20.672 14.705 25.358l308.764 174.039c8.117 4.687 14.705.929 14.705-8.375V188.974c0-9.318-6.588-20.672-14.705-25.358L131.467 16.902z" fill="url(#q)"/><path opacity=".86" d="M0 70v232.588a21.578 21.578 0 0 0 11.165 18.909l165.329 96.265v-270.07L0 70z" fill="url(#r)"/><path opacity=".66" d="M206.958 233.846v153.293l108.147 61.121V281.899l-108.147-48.053z" fill="url(#s)"/><path opacity=".66" d="M318.13 283.77v166.169l59.51 36.059c3.318 1.907 7.462-.495 7.462-4.329V313.665l-66.972-29.877v-.018z" fill="url(#t)"/><path opacity=".66" d="M206.958 213.982v17.314l178.144 78.26v-17.093l-178.144-78.481z" fill="url(#u)"/><path opacity=".66" d="M206.958 194.541v17.314l178.144 78.26v-17.093l-178.144-78.481z" fill="url(#v)"/><path opacity=".66" d="M206.958 175.1v17.295l178.144 78.279v-17.112L206.958 175.1z" fill="url(#w)"/><path opacity=".66" d="M206.958 155.64v17.314l178.144 78.261v-17.094L206.958 155.64z" fill="url(#x)"/><path opacity=".66" d="M206.958 136.199v17.314l178.144 78.26v-17.094l-178.144-78.48z" fill="url(#y)"/><path opacity=".66" d="M340.426 174.061v17.314l178.144 78.26v-17.093l-178.144-78.481z" fill="url(#z)"/><path d="M26.585 9.587v9.445l358.837 158.172v-8.547a13.532 13.532 0 0 0-7.975-12.343L33.937 4.836c-3.447-1.559-7.352.972-7.352 4.75z" fill="url(#A)"/><path d="m528.608 307.968-6.963-14.953-9.645 7.413V261l29.702 25.561-11.657 2.109 7.154 15.272-8.591 4.058v-.032zm-6.1-18.563 7.217 15.4 4.344-2.045-7.473-15.88 9.773-1.757-22.165-19.011v29.587l8.272-6.294h.032z" fill="#666"/><path d="m522.508 289.405 7.217 15.4 4.344-2.045-7.473-15.88 9.773-1.757-22.165-19.011v29.587l8.272-6.294h.032z" fill="#fff"/><g filter="url(#B)"><path d="M25.688 14.005a2.897 2.897 0 1 0-.001-5.794 2.897 2.897 0 0 0 .001 5.794z" fill="red"/></g><g filter="url(#C)"><path d="M33.517 17.27a2.897 2.897 0 1 0-.002-5.795 2.897 2.897 0 0 0 .002 5.795z" fill="#FFF500"/></g><g filter="url(#D)"><path d="M41.088 20.167a2.897 2.897 0 1 0-.001-5.794 2.897 2.897 0 0 0 .001 5.794z" fill="#00FF38"/></g><defs><linearGradient id="n" x1="443.565" y1="293.182" x2="-342.733" y2="46.975" gradientUnits="userSpaceOnUse"><stop offset=".19" stop-color="#3D065F"/><stop offset=".93" stop-color="#3D065F"/></linearGradient><linearGradient id="A" x1="206.003" y1="4.369" x2="206.003" y2="177.204" gradientUnits="userSpaceOnUse"><stop stop-color="#D8D8D8"/><stop offset=".464" stop-color="#fff"/><stop offset="1" stop-color="#DDD" stop-opacity=".865"/></linearGradient><linearGradient id="a" x1="187.624" y1="441.604" x2="286.522" y2="436.629" gradientUnits="userSpaceOnUse"><stop offset=".06" stop-color="#200041"/><stop offset=".26" stop-color="#210143"/><stop offset=".36" stop-color="#25084A"/><stop offset=".43" stop-color="#2C1357"/><stop offset=".47" stop-color="#311B61"/><stop offset=".48" stop-color="#351F65"/><stop offset=".5" stop-color="#422C72"/><stop offset=".51" stop-color="#574188"/><stop offset=".52" stop-color="#755FA6"/><stop offset=".53" stop-color="#8770B8"/><stop offset=".54" stop-color="#7D66AE"/><stop offset=".56" stop-color="#5C458C"/><stop offset=".59" stop-color="#442E74"/><stop offset=".61" stop-color="#351F66"/><stop offset=".63" stop-color="#311B61"/><stop offset=".67" stop-color="#2A1054"/><stop offset=".75" stop-color="#220446"/><stop offset=".81" stop-color="#200041"/><stop offset="1" stop-color="#200041"/></linearGradient><linearGradient id="d" x1="298.932" y1="457.082" x2="109.926" y2="299.919" gradientUnits="userSpaceOnUse"><stop offset=".19" stop-color="#3D065F"/><stop offset=".93" stop-color="#3D065F"/></linearGradient><linearGradient id="e" x1="251.594" y1="326.519" x2="300.666" y2="411.527" gradientUnits="userSpaceOnUse"><stop offset=".06" stop-color="#200041"/><stop offset=".26" stop-color="#210143"/><stop offset=".36" stop-color="#25084A"/><stop offset=".43" stop-color="#2C1357"/><stop offset=".47" stop-color="#311B61"/><stop offset=".48" stop-color="#351F65"/><stop offset=".5" stop-color="#422C72"/><stop offset=".51" stop-color="#574188"/><stop offset=".52" stop-color="#755FA6"/><stop offset=".53" stop-color="#8770B8"/><stop offset=".54" stop-color="#7D66AE"/><stop offset=".56" stop-color="#5C458C"/><stop offset=".59" stop-color="#442E74"/><stop offset=".61" stop-color="#351F66"/><stop offset=".63" stop-color="#311B61"/><stop offset=".67" stop-color="#2A1054"/><stop offset=".75" stop-color="#220446"/><stop offset=".81" stop-color="#200041"/><stop offset="1" stop-color="#200041"/></linearGradient><linearGradient id="h" x1="322.454" y1="416.641" x2="89.877" y2="343.825" gradientUnits="userSpaceOnUse"><stop offset=".19" stop-color="#3D065F"/><stop offset=".93" stop-color="#3D065F"/></linearGradient><linearGradient id="i" x1="207.917" y1="380.119" x2="222.417" y2="380.119" gradientUnits="userSpaceOnUse"><stop offset=".19" stop-color="#3D065F"/><stop offset=".93" stop-color="#3D065F"/></linearGradient><linearGradient id="j" x1="296.994" y1="360.035" x2="243.77" y2="459.321" gradientUnits="userSpaceOnUse"><stop stop-color="#fff" stop-opacity="0"/><stop offset=".5" stop-color="#20112D"/><stop offset="1" stop-color="#EEEAF1" stop-opacity="0"/></linearGradient><linearGradient id="k" x1="192.583" y1="-56.058" x2="387.011" y2="280.789" gradientUnits="userSpaceOnUse"><stop offset=".06" stop-color="#200041"/><stop offset=".26" stop-color="#210143"/><stop offset=".36" stop-color="#25084A"/><stop offset=".43" stop-color="#2C1357"/><stop offset=".47" stop-color="#311B61"/><stop offset=".48" stop-color="#351F65"/><stop offset=".5" stop-color="#422C72"/><stop offset=".51" stop-color="#574188"/><stop offset=".52" stop-color="#755FA6"/><stop offset=".53" stop-color="#8770B8"/><stop offset=".54" stop-color="#7D66AE"/><stop offset=".56" stop-color="#5C458C"/><stop offset=".59" stop-color="#442E74"/><stop offset=".61" stop-color="#351F66"/><stop offset=".63" stop-color="#311B61"/><stop offset=".67" stop-color="#2A1054"/><stop offset=".75" stop-color="#220446"/><stop offset=".81" stop-color="#200041"/><stop offset="1" stop-color="#200041"/></linearGradient><linearGradient id="y" x1="333.13" y1="110.641" x2="290.715" y2="247.823" gradientUnits="userSpaceOnUse"><stop stop-color="#FFF800"/><stop offset="1" stop-color="#30F9FC"/></linearGradient><linearGradient id="z" x1="466.599" y1="148.503" x2="424.183" y2="285.685" gradientUnits="userSpaceOnUse"><stop stop-color="#FFF800"/><stop offset="1" stop-color="#30F9FC"/></linearGradient><linearGradient id="o" x1="416.055" y1="503.988" x2="119.613" y2="-122.557" gradientUnits="userSpaceOnUse"><stop stop-color="#311B61"/><stop offset=".2" stop-color="#290E52"/><stop offset=".49" stop-color="#200041"/><stop offset="1" stop-color="#0F001F"/></linearGradient><linearGradient id="p" x1="114.248" y1="244.036" x2="457.013" y2="244.036" gradientUnits="userSpaceOnUse"><stop stop-color="#311B61"/><stop offset=".2" stop-color="#290E52"/><stop offset=".49" stop-color="#200041"/><stop offset="1" stop-color="#0F001F"/></linearGradient><linearGradient id="q" x1="356.278" y1="-107.577" x2="6.991" y2="339.977" gradientUnits="userSpaceOnUse"><stop stop-color="#FFF800"/><stop offset="1" stop-color="#30F9FC"/></linearGradient><linearGradient id="r" x1="125.004" y1="-22.997" x2="-146.239" y2="215.866" gradientUnits="userSpaceOnUse"><stop stop-color="#FFF800"/><stop offset="1" stop-color="#30F9FC"/></linearGradient><linearGradient id="s" x1="283.555" y1="176.508" x2="116.452" y2="322.755" gradientUnits="userSpaceOnUse"><stop stop-color="#FFF800"/><stop offset="1" stop-color="#30F9FC"/></linearGradient><linearGradient id="t" x1="365.564" y1="229.512" x2="227.96" y2="308.323" gradientUnits="userSpaceOnUse"><stop stop-color="#FFF800"/><stop offset="1" stop-color="#30F9FC"/></linearGradient><linearGradient id="u" x1="333.13" y1="188.424" x2="290.715" y2="325.606" gradientUnits="userSpaceOnUse"><stop stop-color="#FFF800"/><stop offset="1" stop-color="#30F9FC"/></linearGradient><linearGradient id="v" x1="333.13" y1="168.983" x2="290.715" y2="306.165" gradientUnits="userSpaceOnUse"><stop stop-color="#FFF800"/><stop offset="1" stop-color="#30F9FC"/></linearGradient><linearGradient id="w" x1="333.13" y1="149.542" x2="290.715" y2="286.723" gradientUnits="userSpaceOnUse"><stop stop-color="#FFF800"/><stop offset="1" stop-color="#30F9FC"/></linearGradient><linearGradient id="x" x1="333.13" y1="130.082" x2="290.715" y2="267.264" gradientUnits="userSpaceOnUse"><stop stop-color="#FFF800"/><stop offset="1" stop-color="#30F9FC"/></linearGradient><radialGradient id="g" cx="0" cy="0" r="1" gradientUnits="userSpaceOnUse" gradientTransform="matrix(38.498 0 0 38.4887 334.713 370.104)"><stop stop-color="#AF8AFC"/><stop offset="1" stop-color="#10054D"/></radialGradient><radialGradient id="c" cx="0" cy="0" r="1" gradientUnits="userSpaceOnUse" gradientTransform="rotate(57.114 -313.106 493.654) scale(39.4479 39.4518)"><stop stop-color="#AF8AFC"/><stop offset="1" stop-color="#10054D"/></radialGradient><radialGradient id="m" cx="0" cy="0" r="1" gradientUnits="userSpaceOnUse" gradientTransform="matrix(181.475 0 0 181.431 455.482 107.488)"><stop stop-color="#AF8AFC"/><stop offset="1" stop-color="#10054D"/></radialGradient><radialGradient id="b" cx="0" cy="0" r="1" gradientUnits="userSpaceOnUse" gradientTransform="matrix(33.86858 52.38031 -52.38552 33.87195 293.388 513.264)"><stop stop-color="#711F56"/><stop offset=".16" stop-color="#6B1D51"/><stop offset=".36" stop-color="#5C1946"/><stop offset=".58" stop-color="#421232"/><stop offset=".82" stop-color="#1F0818"/><stop offset="1"/></radialGradient><radialGradient id="f" cx="0" cy="0" r="1" gradientUnits="userSpaceOnUse" gradientTransform="matrix(66.514 0 0 66.4978 366.46 376.266)"><stop stop-color="#711F56"/><stop offset=".16" stop-color="#6B1D51"/><stop offset=".36" stop-color="#5C1946"/><stop offset=".58" stop-color="#421232"/><stop offset=".82" stop-color="#1F0818"/><stop offset="1"/></radialGradient><radialGradient id="l" cx="0" cy="0" r="1" gradientUnits="userSpaceOnUse" gradientTransform="matrix(291.27 0 0 291.199 539.175 156.797)"><stop stop-color="#711F56"/><stop offset=".16" stop-color="#6B1D51"/><stop offset=".36" stop-color="#5C1946"/><stop offset=".58" stop-color="#421232"/><stop offset=".82" stop-color="#1F0818"/><stop offset="1"/></radialGradient><filter id="C" x="29.62" y="8.474" width="13.793" height="13.796" filterUnits="userSpaceOnUse" color-interpolation-filters="sRGB"><feFlood flood-opacity="0" result="BackgroundImageFix"/><feColorMatrix in="SourceAlpha" values="0 0 0 0 0 0 0 0 0 0 0 0 0 0 0 0 0 0 127 0" result="hardAlpha"/><feOffset dx="3" dy="1"/><feGaussianBlur stdDeviation="2"/><feComposite in2="hardAlpha" operator="out"/><feColorMatrix values="0 0 0 0 0 0 0 0 0 0 0 0 0 0 0 0 0 0 0.18 0"/><feBlend in2="BackgroundImageFix" result="effect1_dropShadow_118_428"/><feBlend in="SourceGraphic" in2="effect1_dropShadow_118_428" result="shape"/></filter><filter id="D" x="37.191" y="11.372" width="13.793" height="13.796" filterUnits="userSpaceOnUse" color-interpolation-filters="sRGB"><feFlood flood-opacity="0" result="BackgroundImageFix"/><feColorMatrix in="SourceAlpha" values="0 0 0 0 0 0 0 0 0 0 0 0 0 0 0 0 0 0 127 0" result="hardAlpha"/><feOffset dx="3" dy="1"/><feGaussianBlur stdDeviation="2"/><feComposite in2="hardAlpha" operator="out"/><feColorMatrix values="0 0 0 0 0 0 0 0 0 0 0 0 0 0 0 0 0 0 0.18 0"/><feBlend in2="BackgroundImageFix" result="effect1_dropShadow_118_428"/><feBlend in="SourceGraphic" in2="effect1_dropShadow_118_428" result="shape"/></filter><filter id="B" x="21.791" y="5.209" width="13.793" height="13.796" filterUnits="userSpaceOnUse" color-interpolation-filters="sRGB"><feFlood flood-opacity="0" result="BackgroundImageFix"/><feColorMatrix in="SourceAlpha" values="0 0 0 0 0 0 0 0 0 0 0 0 0 0 0 0 0 0 127 0" result="hardAlpha"/><feOffset dx="3" dy="1"/><feGaussianBlur stdDeviation="2"/><feComposite in2="hardAlpha" operator="out"/><feColorMatrix values="0 0 0 0 0 0 0 0 0 0 0 0 0 0 0 0 0 0 0.18 0"/><feBlend in2="BackgroundImageFix" result="effect1_dropShadow_118_428"/><feBlend in="SourceGraphic" in2="effect1_dropShadow_118_428" result="shape"/></filter></defs></svg>