<svg width="661" height="551" fill="none" xmlns="http://www.w3.org/2000/svg"><path opacity=".05" d="M475.69 461.522c.351-65.04-90.521-96.808-202.969-97.418-112.448-.609-203.89 30.171-204.24 95.211-.352 65.041 153.265 89.832 265.713 90.441 112.447.61 141.144-23.193 141.496-88.234z" fill="#666"/><g opacity=".08"><path opacity=".2" d="M367.501 466c-3.991 0-7.604-.89-10.46-2.563l-63.521-36.784L230 389.868c-3.809-2.243-6-5.787-6-9.73 0-4.328 2.635-8.35 7.226-11.045l41.569-23.801c3.613-2.124 8.112-3.292 12.704-3.292 3.991 0 7.604.889 10.46 2.562l63.521 36.784L423 418.131c3.809 2.243 6 5.787 6 9.73 0 4.314-2.635 8.35-7.226 11.045l-41.569 23.801c-3.613 2.124-8.112 3.293-12.704 3.293z" fill="#000"/></g><path d="m373.205 452.924-120.198-69.522c-13.554-7.841-24.551-28.881-24.551-46.996V22.371c0-9.216-7.558-11.24-2.982-14.559.173-.126 10.729-4.932 10.934-5.01 4.923-1.898 10.193-2.736 16.599.963l120.198 69.522c13.553 7.841 24.551 28.881 24.551 46.997v314.034c0 9.627-3.109 16.487-8.047 19.617-.3.19-13.017 6.244-13.333 6.355-4.386 1.47 2.761-3.952-3.171-7.382v.016z" fill="url(#a)"/><path style="mix-blend-mode:color-dodge" d="M372.1 73.666 251.902 4.144C245.496.445 365.442 75.88 365.442 75.88c13.553 7.841 24.551 28.881 24.551 46.997 0 0 6.642 321.432 6.642 311.821V120.663c0-18.116-10.997-39.156-24.55-46.997h.015z" fill="url(#b)"/><path style="mix-blend-mode:screen" opacity=".6" d="m363.864 457.192-120.198-69.523c-13.553-7.84-24.551-28.88-24.551-46.996V26.639c0-18.116 10.998-26.43 24.551-18.59l120.198 69.522c13.554 7.84 24.551 28.881 24.551 46.996v314.035c0 18.115-10.997 26.43-24.551 18.59z" fill="url(#c)"/><path d="M361.718 458.346 241.52 388.824c-13.553-7.841-24.551-28.881-24.551-46.996V27.808c0-18.115 10.998-26.43 24.551-18.589l120.198 69.522c13.554 7.84 24.551 28.881 24.551 46.996v314.035c0 18.115-10.997 26.43-24.551 18.589v-.015z" fill="url(#d)"/><path d="M220.33 343.977V29.547c0-15.87 9.641-23.173 21.522-16.297l119.551 69.158c11.881 6.877 21.521 25.324 21.521 41.195v314.43c0 15.871-9.64 23.174-21.521 16.298l-119.551-69.159c-11.881-6.876-21.522-25.324-21.522-41.195z" fill="url(#e)"/><path d="M225.111 345.921V33.12c0-13.294 8.063-19.396 18.019-13.642L360.125 87.15c9.94 5.754 18.018 21.198 18.018 34.477v312.801c0 13.295-8.062 19.396-18.018 13.642L243.13 380.398c-9.941-5.754-18.019-21.198-18.019-34.477z" fill="url(#f)"/><path d="M244.487 23.003c-9.373-5.422-16.978-1.075-16.978 9.69v316.39c0 10.781 7.605 23.917 16.978 29.339l114.297 66.108c9.372 5.422 16.977 1.075 16.977-9.69V118.45c0-10.781-7.605-23.917-16.977-29.34L244.487 23.004z" fill="url(#g)"/><path d="M389.504 199.923v-21.641c0-2.766 1.672-5.991 3.755-7.177 2.067-1.201 3.755.079 3.755 2.846v21.64c0 2.767-1.672 5.991-3.755 7.177-2.067 1.201-3.755-.079-3.755-2.845z" fill="url(#h)"/><path d="M391.76 202.404c-1.073 0-1.452-1.344-1.452-2.482v-21.64c0-2.466 1.531-5.422 3.345-6.482.395-.221.758-.347 1.089-.347 1.073 0 1.452 1.343 1.452 2.481v21.641c0 2.466-1.531 5.422-3.345 6.481-.395.222-.758.348-1.089.348z" fill="url(#i)"/><path style="mix-blend-mode:color-dodge" d="M391.413 200.476v-21.641c0-2.466 1.53-5.422 3.345-6.481.347-.19.663-.3.962-.316-.22-.348-.552-.569-.978-.569-.315 0-.694.126-1.089.348-1.814 1.043-3.345 4.015-3.345 6.481v21.64c0 1.138.379 2.482 1.452 2.482.032 0 .079-.016.126-.016-.331-.49-.473-1.233-.473-1.897v-.031z" fill="url(#j)"/><path opacity=".3" d="M375.726 391.592 137.699 525.871 70.5 487l305.226-173.98v78.572z" fill="url(#k)"/><path d="m27.5 513 348.226-198.152v74.46c-40.695 22.818-243.629 137.833-284.324 160.65L27.5 513z" fill="url(#l)"/><g style="mix-blend-mode:screen"><path d="M133.424 490.388c-.41 0-.805-.205-1.01-.584a1.176 1.176 0 0 1 .442-1.597l6.074-3.462a1.171 1.171 0 0 1 1.594.443 1.174 1.174 0 0 1-.442 1.596l-6.074 3.462c-.19.111-.379.158-.568.158l-.016-.016z" fill="url(#m)"/><path d="M653.551 193.331c-.41 0-.804-.205-1.009-.585a1.174 1.174 0 0 1 .441-1.596l6.075-3.462a1.172 1.172 0 0 1 1.594.443 1.175 1.175 0 0 1-.442 1.596l-6.075 3.462a1.1 1.1 0 0 1-.568.158l-.016-.016z" fill="url(#n)"/></g><path d="m334.138 109.44.032-.032-.032.032z" fill="url(#o)"/><path d="m378.065 281.553.016.032v-.047l-.016.015z" fill="url(#p)"/><path opacity=".48" d="M231.88 223.668v54.495l137.743 77.347v-55.744L231.88 223.668z" fill="#fff"/><g opacity=".48" fill="#fff"><path d="M232.286 77.304v120.933l65.85 37.024V113.009l-65.85-35.705zM303.481 116.69v120.933l65.85 37.024V152.395l-65.85-35.705z"/></g><path opacity=".48" d="M231.88 204.298v13.105l137.743 76.667v-12.947L231.88 204.298z" fill="#fff"/><path d="M232.211 40.961v24.534l137.933 76.208v-23.869c0-4.031-2.414-7.683-6.153-9.343l-126.1-71.134c-2.666-1.186-5.68.727-5.68 3.604z" fill="#666"/><path d="m349.688 110.194 13.308 6.596M349.688 116.133l13.308 6.679M348.774 121.615l14.223 7.22" stroke="#fff" stroke-miterlimit="10" stroke-linecap="round"/><path d="M245.086 56.784c0 .664-.489.917-1.152.57l-.094-.064c-.694-.411-1.262-1.312-1.262-1.992v-2.276l-.994-.585v2.276c0 .601.252 1.312.678 1.976.426.664.994 1.233 1.578 1.597.584.363 1.167.458 1.593.284.426-.173.663-.584.679-1.185v-2.276l-1.01-.601v2.276h-.016zM246.696 57.733c0 1.249 1.009 2.861 2.256 3.604l.174.11v-.995l-.174-.11c-.694-.412-1.262-1.313-1.262-1.993v-1.248l1.436.853v-1.012l-2.43-1.438v2.26-.031zM256.494 61.274c-1.247-.743-2.256-.316-2.256.932v2.26l.994.586v-2.26c0-.696.568-.918 1.262-.523l.173.111v-1.012l-.173-.11v.016zM251.587 58.365c-1.247-.743-2.272-.316-2.272.933 0 1.248 1.01 2.86 2.272 3.604 1.262.743 2.256.316 2.256-.933s-1.01-2.877-2.256-3.604zm0 3.525c-.694-.411-1.262-1.312-1.262-2.008 0-.695.568-.916 1.262-.505.694.41 1.262 1.312 1.262 1.991 0 .68-.568.917-1.262.522zM259.034 62.76c-1.246-.743-2.272-.317-2.272.932s1.01 2.861 2.272 3.604c1.262.743 2.256.316 2.256-.932 0-1.25-1.009-2.877-2.256-3.605zm0 3.525c-.694-.411-1.262-1.313-1.262-2.008 0-.696.568-.917 1.262-.506.694.411 1.262 1.312 1.262 1.992 0 .68-.568.917-1.262.522zM263.957 65.668c-1.247-.743-2.272-.316-2.272.933s1.01 2.861 2.272 3.604c1.262.743 2.256.316 2.256-.933s-1.01-2.877-2.256-3.604zm0 3.525c-.694-.41-1.262-1.312-1.262-2.007 0-.696.568-.917 1.262-.506.694.41 1.262 1.312 1.262 1.992 0 .68-.568.916-1.262.521zM269.148 69.762v-1.011l-2.43-1.439v2.26c0 1.25 1.01 2.862 2.256 3.605l.174.11v-.996l-.174-.11c-.694-.411-1.262-1.312-1.262-1.992V68.94l1.436.854v-.032zM269.59 73.098c0-.3.221-.38.505-.222.284.159.489.506.489.807 0 .3-.221.38-.489.221-.269-.158-.505-.506-.505-.806zm.883.522c0-.238-.157-.506-.378-.649-.221-.142-.379-.063-.379.19a.76.76 0 0 0 .379.632c.221.127.378.064.378-.19v.017zm-.583-.601.205.126c.11.064.205.174.205.285 0 .063-.032.095-.095.079l.111.284-.127-.079-.094-.221-.095-.063v.174l-.126-.064v-.521h.016zm.173.363s.111.032.111-.016c0-.047-.032-.094-.095-.142l-.063-.047v.158l.063.032-.016.015z" fill="#fff"/><path d="M245.086 56.784c0 .664-.489.917-1.152.57l-.094-.064c-.694-.411-1.262-1.312-1.262-1.992v-2.276l-.994-.585v2.276c0 .601.252 1.312.678 1.976.426.664.994 1.233 1.578 1.597.584.363 1.167.458 1.593.284.426-.173.663-.584.679-1.185v-2.276l-1.01-.601v2.276h-.016zM246.696 57.733c0 1.249 1.009 2.861 2.256 3.604l.174.11v-.995l-.174-.11c-.694-.412-1.262-1.313-1.262-1.993v-1.248l1.436.853v-1.012l-2.43-1.438v2.26-.031zM256.494 61.274c-1.247-.743-2.256-.316-2.256.932v2.26l.994.586v-2.26c0-.696.568-.918 1.262-.523l.173.111v-1.012l-.173-.11v.016zM251.587 58.365c-1.247-.743-2.272-.316-2.272.933 0 1.248 1.01 2.86 2.272 3.604 1.262.743 2.256.316 2.256-.933s-1.01-2.877-2.256-3.604zm0 3.525c-.694-.411-1.262-1.312-1.262-2.008 0-.695.568-.916 1.262-.505.694.41 1.262 1.312 1.262 1.991 0 .68-.568.917-1.262.522zM259.034 62.76c-1.246-.743-2.272-.317-2.272.932s1.01 2.861 2.272 3.604c1.262.743 2.256.316 2.256-.932 0-1.25-1.009-2.877-2.256-3.605zm0 3.525c-.694-.411-1.262-1.313-1.262-2.008 0-.696.568-.917 1.262-.506.694.411 1.262 1.312 1.262 1.992 0 .68-.568.917-1.262.522zM263.957 65.668c-1.247-.743-2.272-.316-2.272.933s1.01 2.861 2.272 3.604c1.262.743 2.256.316 2.256-.933s-1.01-2.877-2.256-3.604zm0 3.525c-.694-.41-1.262-1.312-1.262-2.007 0-.696.568-.917 1.262-.506.694.41 1.262 1.312 1.262 1.992 0 .68-.568.916-1.262.521zM269.148 69.762v-1.011l-2.43-1.439v2.26c0 1.25 1.01 2.862 2.256 3.605l.174.11v-.996l-.174-.11c-.694-.411-1.262-1.312-1.262-1.992V68.94l1.436.854v-.032zM269.59 73.098c0-.3.221-.38.505-.222.284.159.489.506.489.807 0 .3-.221.38-.489.221-.269-.158-.505-.506-.505-.806zm.883.522c0-.238-.157-.506-.378-.649-.221-.142-.379-.063-.379.19a.76.76 0 0 0 .379.632c.221.127.378.064.378-.19v.017zm-.583-.601.205.126c.11.064.205.174.205.285 0 .063-.032.095-.095.079l.111.284-.127-.079-.094-.221-.095-.063v.174l-.126-.064v-.521h.016zm.173.363s.111.032.111-.016c0-.047-.032-.094-.095-.142l-.063-.047v.158l.063.032-.016.015z" fill="#fff"/><path opacity=".5" d="M240.006 53.78v1.882h-.269l.221-1.58s0-.032.016-.064c0-.047.016-.095.016-.158v-.08h.016z" fill="#fff"/><path d="M241 54.381v2.26l-.994-.584v-2.26c0-.696-.568-1.597-1.263-2.008-.694-.411-1.262-.19-1.262.506 0 .695.568 1.596 1.262 2.007.584.348 1.073.237 1.215-.221l-.221 1.58c-.299-.03-.631-.142-.994-.363-1.246-.743-2.272-2.355-2.272-3.604s1.026-1.675 2.272-.933c1.247.743 2.257 2.356 2.257 3.605v.015z" fill="#fff"/><g style="mix-blend-mode:screen" opacity=".5"><path d="M143.161 517.143a.726.726 0 0 1-.631-.364c-.189-.347-.079-.79.269-.98l7.478-4.268c.348-.189.789-.079.979.269.189.348.079.79-.269.98l-7.478 4.268a.724.724 0 0 1-.348.095zm14.958-8.552a.726.726 0 0 1-.631-.364c-.189-.347-.079-.79.268-.98l7.479-4.268c.347-.189.789-.079.978.269.19.348.079.79-.268.98l-7.479 4.268a.718.718 0 0 1-.347.095zm14.958-8.552a.726.726 0 0 1-.631-.363c-.19-.348-.079-.791.268-.981l7.479-4.268c.347-.189.789-.079.978.269.189.348.079.791-.268.98l-7.479 4.268a.71.71 0 0 1-.347.095zm14.958-8.552a.728.728 0 0 1-.632-.363c-.189-.348-.078-.791.269-.98l7.479-4.269a.704.704 0 0 1 .978.269c.189.348.079.791-.268.98l-7.479 4.268a.713.713 0 0 1-.347.095zm14.957-8.552a.727.727 0 0 1-.631-.363c-.189-.348-.079-.791.268-.98l7.479-4.268c.347-.19.789-.08.978.268.19.348.079.791-.268.98l-7.479 4.268a.707.707 0 0 1-.347.095zm14.958-8.552a.727.727 0 0 1-.631-.363c-.189-.348-.079-.791.268-.98l7.479-4.268c.347-.19.789-.079.978.268.19.348.079.791-.268.98l-7.479 4.268a.71.71 0 0 1-.347.095zm14.958-8.552a.726.726 0 0 1-.631-.363c-.19-.348-.079-.791.268-.98l7.479-4.268c.347-.19.789-.079.978.268.189.348.079.791-.268.981l-7.479 4.268a.722.722 0 0 1-.347.094zm14.957-8.552a.727.727 0 0 1-.631-.363c-.189-.348-.079-.79.269-.98l7.478-4.268a.705.705 0 0 1 .979.269c.189.347.079.79-.269.98l-7.478 4.268a.723.723 0 0 1-.348.094zm14.958-8.551a.728.728 0 0 1-.631-.364c-.189-.348-.079-.79.268-.98l7.479-4.268c.347-.19.789-.079.978.269.19.347.079.79-.268.98l-7.479 4.268a.718.718 0 0 1-.347.095zm14.958-8.552a.727.727 0 0 1-.631-.364c-.19-.348-.079-.79.268-.98l7.479-4.268a.703.703 0 0 1 .978.269c.189.347.079.79-.268.98l-7.479 4.268a.72.72 0 0 1-.347.095zm14.958-8.552a.729.729 0 0 1-.632-.364c-.189-.348-.078-.79.269-.98l7.479-4.268a.717.717 0 0 1 .978.269c.189.347.079.79-.268.98l-7.479 4.268a.724.724 0 0 1-.347.095zm14.957-8.552a.728.728 0 0 1-.631-.364c-.189-.348-.079-.79.268-.98l7.479-4.268c.347-.19.789-.079.978.269.19.348.079.79-.268.98l-7.479 4.268a.718.718 0 0 1-.347.095zm14.958-8.552a.728.728 0 0 1-.631-.364c-.19-.348-.079-.79.268-.98l7.479-4.268c.347-.19.789-.079.978.269.189.348.079.79-.268.98l-7.479 4.268a.72.72 0 0 1-.347.095zm14.958-8.552a.727.727 0 0 1-.631-.364c-.19-.347-.079-.79.268-.98l7.479-4.268c.347-.19.789-.079.978.269.189.348.079.79-.268.98l-7.479 4.268a.724.724 0 0 1-.347.095zm14.957-8.552a.728.728 0 0 1-.631-.364c-.189-.347-.079-.79.268-.98l7.479-4.268a.706.706 0 0 1 .979.269c.189.348.078.79-.269.98l-7.479 4.268a.718.718 0 0 1-.347.095zm14.958-8.552a.726.726 0 0 1-.631-.364c-.189-.347-.079-.79.268-.98l7.479-4.268a.704.704 0 0 1 .978.269c.19.348.079.79-.268.98l-7.479 4.268a.718.718 0 0 1-.347.095z" fill="#fff" style="mix-blend-mode:screen" opacity=".5"/><path d="M.95 534.491a.726.726 0 0 1-.63-.364c-.19-.347-.08-.79.268-.98l3.74-2.134c.346-.189.788-.079.977.269.19.348.08.79-.268.98l-3.74 2.134a.721.721 0 0 1-.346.095z" fill="url(#q)"/><path d="M70.383 493.265a.726.726 0 0 1-.63-.364c-.19-.347-.08-.79.267-.98l7.369-4.204a.703.703 0 0 1 .978.268c.19.348.08.791-.268.98l-7.368 4.205a.72.72 0 0 1-.348.095zm14.737-8.41a.727.727 0 0 1-.63-.363c-.19-.348-.08-.791.267-.98l7.369-4.205c.347-.19.789-.079.978.269.19.347.079.79-.268.98l-7.369 4.205a.72.72 0 0 1-.347.094zm14.737-8.409a.728.728 0 0 1-.631-.364c-.19-.348-.079-.79.268-.98l7.369-4.205a.704.704 0 0 1 .978.269c.189.348.079.79-.268.98l-7.369 4.205a.72.72 0 0 1-.347.095zm14.737-8.426a.726.726 0 0 1-.631-.363c-.19-.348-.079-.791.268-.98l7.368-4.205c.347-.19.789-.079.979.268.189.348.079.791-.269.981l-7.368 4.204a.71.71 0 0 1-.347.095zm14.737-8.409a.727.727 0 0 1-.631-.364c-.19-.348-.079-.79.268-.98l7.368-4.205a.704.704 0 0 1 .978.269c.19.348.079.79-.268.98l-7.368 4.205a.724.724 0 0 1-.347.095zm14.737-8.41a.729.729 0 0 1-.632-.364c-.189-.347-.079-.79.269-.98l7.368-4.205c.347-.189.789-.079.978.269.19.348.079.791-.268.98l-7.368 4.205a.724.724 0 0 1-.347.095zm14.736-8.41a.727.727 0 0 1-.631-.363c-.189-.348-.079-.791.268-.98l7.369-4.205c.347-.19.789-.079.978.268.189.348.079.791-.268.981l-7.369 4.204a.707.707 0 0 1-.347.095zm14.737-8.409a.728.728 0 0 1-.631-.364c-.189-.348-.079-.79.268-.98l7.369-4.205a.704.704 0 0 1 .978.269c.189.348.079.79-.268.98l-7.369 4.205a.718.718 0 0 1-.347.095zm14.737-8.41a.727.727 0 0 1-.631-.364c-.19-.347-.079-.79.268-.98l7.368-4.205c.348-.189.789-.079.979.269.189.348.079.791-.269.98l-7.368 4.205a.72.72 0 0 1-.347.095zm14.737-8.41a.726.726 0 0 1-.631-.363c-.19-.348-.079-.791.268-.98l7.368-4.205a.705.705 0 0 1 .979.269c.189.347.078.79-.269.98l-7.368 4.204a.713.713 0 0 1-.347.095zm14.737-8.409a.729.729 0 0 1-.632-.364c-.189-.348-.078-.79.269-.98l7.368-4.205c.347-.19.789-.079.978.269.19.348.079.79-.268.98l-7.368 4.205a.724.724 0 0 1-.347.095zm14.736-8.41a.728.728 0 0 1-.631-.364c-.189-.347-.079-.79.269-.98l7.368-4.205c.347-.189.789-.079.978.269.189.348.079.791-.268.98l-7.368 4.205a.724.724 0 0 1-.348.095zm14.737-8.41a.727.727 0 0 1-.631-.363c-.189-.348-.079-.791.268-.98l7.369-4.205c.347-.19.789-.079.978.269.189.347.079.79-.268.98l-7.369 4.204a.707.707 0 0 1-.347.095zm14.737-8.409a.728.728 0 0 1-.631-.364c-.189-.348-.079-.79.268-.98l7.369-4.205a.717.717 0 0 1 .978.269c.189.348.079.79-.268.98l-7.369 4.205a.72.72 0 0 1-.347.095zm14.737-8.41a.727.727 0 0 1-.631-.364c-.19-.347-.079-.79.268-.98l7.368-4.205c.347-.189.789-.079.979.269.189.348.078.791-.269.98l-7.368 4.205a.72.72 0 0 1-.347.095zm14.737-8.41a.726.726 0 0 1-.631-.363c-.19-.348-.079-.791.268-.98l7.368-4.205c.347-.19.789-.079.978.269.19.347.079.79-.268.98l-7.368 4.204a.713.713 0 0 1-.347.095zm14.736-8.409a.728.728 0 0 1-.631-.364c-.189-.348-.079-.79.269-.98l7.368-4.205a.704.704 0 0 1 .978.269c.19.348.079.79-.268.98l-7.368 4.205a.724.724 0 0 1-.348.095zm14.737-8.41a.728.728 0 0 1-.631-.364c-.189-.347-.079-.79.268-.98l7.369-4.205c.347-.189.789-.079.978.269.189.348.079.791-.268.98l-7.369 4.205a.718.718 0 0 1-.347.095zm14.737-8.41a.727.727 0 0 1-.631-.363c-.189-.348-.079-.791.268-.98l7.369-4.205c.347-.19.789-.079.978.269.189.347.079.79-.268.98l-7.369 4.204a.707.707 0 0 1-.347.095zm14.737-8.409a.727.727 0 0 1-.631-.364c-.19-.348-.079-.79.268-.98l7.368-4.205c.348-.19.789-.079.979.269.189.348.079.79-.269.98l-7.368 4.205a.72.72 0 0 1-.347.095zm14.737-8.41a.727.727 0 0 1-.631-.364c-.19-.347-.079-.79.268-.98l7.368-4.205c.347-.189.789-.079.978.269.19.348.079.791-.268.98l-7.368 4.205a.724.724 0 0 1-.347.095z" fill="#fff"/><path d="M321.531 351.391a.728.728 0 0 1-.631-.364c-.189-.347-.079-.79.269-.98l3.739-2.134c.347-.189.789-.079.978.269.19.348.079.79-.268.98l-3.739 2.134a.724.724 0 0 1-.348.095z" fill="url(#r)"/></g><path d="m248.037 446.657-15.127-7.296 15.991-5.455-.864 12.751z" fill="url(#s)"/><path d="m319.517 406.123-15.127-7.309 15.991-5.441-.864 12.75z" fill="url(#t)"/><path opacity=".2" d="m322.15 414.134-81.944 46.853a45.234 45.234 0 0 1-45.107-.11l-19.132-11.06c-1.933-1.127-1.947-3.93 0-5.057l102.489-59.494a2.915 2.915 0 0 1 2.921 0l40.787 23.797c1.934 1.127 1.92 3.944-.028 5.057l.014.014z" fill="url(#u)"/><path d="M296.065 413.295c0 2.638.905 4.493 2.386 5.4.042.028 4.65 2.707 4.705 2.721 1.536.865.548-1.086 2.88-2.432 4.69-2.707 8.489-9.275 8.489-14.661 0-2.666 2.455-2.679.946-3.572a885.681 885.681 0 0 0-4.992-2.762c-1.522-.825-3.621-.673-5.925.659-4.69 2.707-8.489 9.275-8.489 14.661v-.014z" fill="url(#v)"/><path d="M300.975 416.084c0 5.386 3.799 7.557 8.489 4.851 4.691-2.707 8.49-9.275 8.49-14.661 0-5.386-3.799-7.557-8.49-4.85-4.69 2.706-8.489 9.274-8.489 14.66z" fill="url(#w)"/><path style="mix-blend-mode:screen" d="M309.053 401.218c2.249-1.305 4.292-1.47 5.801-.715-1.413-.398-3.168-.096-5.074 1.003-4.691 2.707-8.49 9.275-8.49 14.661 0 2.803 1.029 4.74 2.675 5.565-2.071-.577-3.415-2.652-3.415-5.853 0-5.387 3.799-11.954 8.489-14.661h.014z" fill="url(#x)"/><path style="mix-blend-mode:multiply" d="M302.648 415.095c0 4.15 2.921 5.826 6.542 3.738 3.607-2.089 6.542-7.145 6.542-11.295 0-4.149-2.921-5.825-6.542-3.737-3.607 2.089-6.542 7.145-6.542 11.294zm4.32-2.61v.247c0 .22-.096.508-.274.728l-2.03 2.515c-.302.371-.699.426-.782.096a5.955 5.955 0 0 1-.192-1.553c0-.577.069-1.168.192-1.772.096-.44.48-.852.782-.825l2.03.179c.178.014.288.165.274.398v-.013zm-1.687-3.353a12.364 12.364 0 0 1 2.496-3.105c.343-.302.686-.206.686.206v2.679c0 .234-.11.522-.288.729-.069.068-.123.151-.178.219-.165.22-.384.344-.563.33l-2.029-.178c-.302-.028-.371-.468-.124-.907v.027zm5.321-4.74c.961-.261 1.811-.179 2.497.22.246.137.192.659-.124 1.03l-2.03 2.515c-.178.219-.397.343-.562.316-.055 0-.123-.014-.178-.014-.179 0-.288-.165-.288-.399v-2.679c0-.412.343-.893.685-.989zm3.895 2.198c.124.454.192.976.192 1.553s-.068 1.168-.192 1.772c-.096.44-.48.852-.781.825l-2.03-.179c-.178-.014-.288-.165-.274-.398v-.248c0-.219.096-.508.274-.728l2.03-2.514c.301-.371.699-.426.781-.096v.013zm-1.398 6.939a12.328 12.328 0 0 1-2.497 3.105c-.342.303-.685.206-.685-.206v-2.679c0-.234.109-.522.288-.728.068-.069.123-.152.178-.22.165-.22.384-.344.562-.33l2.03.179c.302.027.37.467.124.906v-.027zm-5.322 4.74c-.96.261-1.824.179-2.496-.219-.247-.138-.192-.66.124-1.031l2.029-2.514c.179-.22.398-.344.563-.316.055 0 .123.013.178.013.178 0 .288.165.288.399v2.679c0 .412-.343.893-.686.989z" fill="url(#y)"/><path d="M303.06 415.26c0 4.15 2.921 5.826 6.541 3.738 3.607-2.089 6.542-7.145 6.542-11.295 0-4.149-2.921-5.825-6.542-3.737-3.607 2.089-6.541 7.145-6.541 11.294zm4.32-2.61v.247c0 .22-.096.509-.275.728l-2.029 2.515c-.302.371-.7.426-.782.096a5.913 5.913 0 0 1-.192-1.553c0-.577.068-1.168.192-1.772.096-.44.48-.852.782-.825l2.029.179c.179.014.288.165.275.399v-.014zm-1.687-3.353a12.364 12.364 0 0 1 2.496-3.105c.343-.302.685-.206.685.206v2.679c0 .234-.109.523-.288.729-.068.068-.123.151-.178.219-.164.22-.384.344-.562.33l-2.03-.178c-.302-.028-.37-.468-.123-.907v.027zm5.321-4.74c.96-.261 1.81-.179 2.496.22.247.137.192.659-.123 1.03l-2.03 2.515c-.179.219-.398.343-.563.316-.054 0-.123-.014-.178-.014-.178 0-.288-.165-.288-.399v-2.679c0-.412.343-.893.686-.989zm3.895 2.198c.123.454.192.976.192 1.553a8.89 8.89 0 0 1-.192 1.772c-.096.44-.48.852-.796.825l-2.029-.179c-.179-.014-.288-.165-.275-.398v-.248c0-.219.096-.508.275-.728l2.029-2.514c.302-.371.7-.426.796-.096v.013zm-1.399 6.939a12.347 12.347 0 0 1-2.496 3.105c-.343.303-.686.206-.686-.206v-2.679c0-.234.11-.522.288-.728.069-.069.124-.151.178-.22.165-.22.384-.344.563-.33l2.03.179c.301.027.37.467.123.907v-.028zm-5.321 4.74c-.96.261-1.811.179-2.496-.219-.247-.138-.192-.66.123-1.031l2.03-2.514c.178-.22.398-.344.562-.316.055 0 .124.013.178.013.179 0 .288.165.288.399v2.679c0 .412-.342.893-.685.989z" fill="url(#z)"/><path d="M224.764 453.416c0 2.639.905 4.493 2.386 5.4.041.028 4.649 2.707 4.704 2.721 1.536.866.549-1.086 2.88-2.432 4.69-2.707 8.489-9.275 8.489-14.661 0-2.665 2.455-2.679.947-3.572a885.912 885.912 0 0 0-4.993-2.762c-1.536-.824-3.62-.673-5.924.66-4.691 2.706-8.489 9.274-8.489 14.66v-.014z" fill="url(#A)"/><path d="M229.687 456.205c0 5.387 3.799 7.558 8.489 4.851 4.691-2.707 8.49-9.275 8.49-14.661 0-5.386-3.799-7.557-8.49-4.85-4.69 2.707-8.489 9.274-8.489 14.66z" fill="url(#B)"/><path style="mix-blend-mode:screen" d="M237.765 441.339c2.249-1.305 4.292-1.47 5.801-.715-1.412-.398-3.168-.096-5.074 1.003-4.691 2.707-8.49 9.275-8.49 14.661 0 2.803 1.029 4.741 2.675 5.565-2.071-.577-3.415-2.652-3.415-5.853 0-5.387 3.799-11.954 8.489-14.661h.014z" fill="url(#C)"/><path style="mix-blend-mode:multiply" d="M231.36 455.216c0 4.15 2.921 5.826 6.542 3.738 3.607-2.089 6.542-7.145 6.542-11.295 0-4.149-2.921-5.825-6.542-3.737-3.607 2.089-6.542 7.145-6.542 11.294zm4.32-2.61v.247c0 .22-.096.509-.274.728l-2.03 2.515c-.301.371-.699.426-.782.096a5.95 5.95 0 0 1-.192-1.553c0-.577.069-1.167.192-1.772.096-.44.481-.852.782-.824l2.03.178c.178.014.288.165.274.399v-.014zm-1.687-3.353a12.364 12.364 0 0 1 2.496-3.105c.343-.302.686-.206.686.206v2.679c0 .234-.11.523-.288.729-.068.068-.123.151-.178.22-.165.219-.384.343-.562.329l-2.03-.178c-.302-.028-.37-.467-.124-.907v.027zm5.322-4.74c.96-.261 1.81-.179 2.496.22.247.137.192.659-.124 1.03l-2.03 2.515c-.178.22-.397.343-.562.316-.055 0-.123-.014-.178-.014-.178 0-.288-.165-.288-.398v-2.68c0-.412.343-.893.686-.989zm3.895 2.198c.123.454.192.976.192 1.553a8.89 8.89 0 0 1-.192 1.772c-.096.44-.48.852-.782.825l-2.03-.179c-.178-.013-.288-.165-.274-.398v-.248c0-.219.096-.508.274-.728l2.03-2.514c.302-.371.699-.426.782-.096v.013zm-1.399 6.939a12.347 12.347 0 0 1-2.496 3.105c-.343.303-.686.206-.686-.206v-2.679c0-.234.11-.522.288-.728.068-.069.123-.151.178-.22.165-.22.384-.344.562-.33l2.03.179c.302.027.371.467.124.907v-.028zm-5.322 4.74c-.96.262-1.81.179-2.496-.219-.246-.138-.192-.66.124-1.031l2.03-2.514c.178-.22.397-.344.562-.316.055 0 .123.013.178.013.178 0 .288.165.288.399v2.679c0 .412-.343.893-.686.989z" fill="url(#D)"/><path d="M231.758 455.382c0 4.149 2.921 5.825 6.542 3.737 3.607-2.089 6.542-7.145 6.542-11.295 0-4.149-2.922-5.825-6.542-3.737-3.607 2.089-6.542 7.145-6.542 11.295zm4.32-2.611v.247c0 .22-.096.509-.274.728l-2.03 2.515c-.302.371-.7.426-.782.096a5.95 5.95 0 0 1-.192-1.553c0-.577.069-1.167.192-1.772.096-.44.48-.852.782-.824l2.03.178c.178.014.288.165.274.399v-.014zm-1.687-3.353a12.364 12.364 0 0 1 2.496-3.105c.343-.302.686-.206.686.206v2.679c0 .234-.11.523-.288.729-.069.068-.124.151-.178.22-.165.219-.384.343-.563.329l-2.029-.178c-.302-.028-.371-.467-.124-.907v.027zm5.321-4.74c.96-.261 1.811-.179 2.496.22.247.137.192.659-.123 1.03l-2.03 2.515c-.178.22-.398.343-.562.316-.055 0-.124-.014-.178-.014-.179 0-.288-.165-.288-.398v-2.68c0-.412.342-.893.685-.989zm3.895 2.198c.124.454.192.976.192 1.553s-.068 1.168-.192 1.773c-.096.439-.48.851-.781.824l-2.03-.179c-.179-.013-.288-.165-.275-.398v-.247c0-.22.096-.509.275-.729l2.03-2.514c.301-.371.699-.426.781-.096v.013zm-1.399 6.939a12.329 12.329 0 0 1-2.496 3.105c-.343.303-.685.207-.685-.206v-2.679c0-.234.109-.522.288-.728.068-.069.123-.151.178-.22.164-.22.384-.344.562-.33l2.03.179c.302.027.37.467.123.907v-.028zm-5.321 4.74c-.96.262-1.81.179-2.496-.219-.247-.138-.192-.66.124-1.031l2.029-2.514c.179-.22.398-.344.563-.316.054 0 .123.013.178.013.178 0 .288.165.288.399v2.679c0 .412-.343.893-.686.989z" fill="url(#E)"/><path d="M237.449 440.295c1.564-.907 3.086-1.361 4.526-1.361 3.388 0 5.664 2.432 6.048 7.722l51.635-27.439c-.082-1.978-.123-2.542-.123-3.132 0-5.936 4.046-12.93 9.202-15.911 1.564-.907 3.086-1.361 4.526-1.361 3.689 0 6.089 2.899 6.117 7.379 1.892-2.391 4.663-6.458 4.663-9.838 0-7.049-6.844-17.395-22.437-21.861-14.359-4.108-20.421-4.259-30.172-2.171-9.751 2.089-10.56 3.532-15.196 4.012-4.635.481-6.72-4.479-29.417 8.492-22.712 12.97-32.463 25.158-37.578 29.005-5.116 3.847-8.311 5.373-10.08 8.093-1.756 2.721-3.593 16.337-1.043 20.349 2.565 4.012 28.787 16.983 35.507 17.629 6.172.591 13.468-3.476 14.634-4.15.205-5.826 4.155-12.531 9.188-15.43v-.027z" fill="url(#F)"/><path opacity=".5" d="M316.294 382.119c-3.566-3.091-8.407-5.839-14.674-7.625-9.258-2.639-15.059-3.642-20.627-3.477-4.69 1.127-10.135 2.913-14.579 4.96-6.349 2.927 27.896 16.2 27.896 16.2 5.883.44 19.008-6.169 21.984-10.071v.013z" fill="url(#G)"/><path opacity=".5" d="M232.581 414.463s8.558-10.909 20.146-17.463c13.619-7.695 20.723-8.272 20.723-8.272l-10.642-8.711-13.688-3.902s-7.104 1.03-16.663 6.197c-9.559 5.166-29.76 20.527-29.76 20.527l29.884 11.624z" fill="url(#H)"/><path d="M205.111 401.355c-3.909.632-13.578 9.879-13.893 14.084-.329 4.204 17.294 15.059 27.95 13.108 10.67-1.938 14.537-12.957 13.893-15.224-.645-2.267-19.873-13.273-27.95-11.982v.014z" fill="url(#I)"/><path d="M216.521 427.956c-8.462 0-19.447-6.046-23.287-10.209-1.303-1.415-1.33-2.088-1.317-2.212.288-3.792 9.751-12.792 13.249-13.355a7.422 7.422 0 0 1 1.289-.097c8.448 0 24.96 9.619 25.961 11.57.137.508-.26 3.132-2.208 6.279-1.508 2.432-4.964 6.691-11.109 7.804-.795.138-1.659.22-2.564.22h-.014z" fill="url(#J)"/><path d="M247.612 375.909s13.33-.371 21.49.425c8.161.797 16.965 4.013 21.409 8.368 3.73 3.655 7.159 7.969 3.799 7.489-3.36-.481-19.667-3.202-20.942-3.532-1.276-.316-5.308-3.778-12.042-7.625-6.24-3.573-13.7-5.125-13.7-5.125h-.014z" fill="url(#K)"/><path d="M293.103 391.119c-.11 0-.233 0-.37-.027-3.347-.481-18.474-3.037-19.722-3.339-.466-.11-1.755-1.003-3.25-2.034-2.085-1.442-4.937-3.407-8.627-5.523-3.127-1.786-6.528-3.078-9.188-3.916h2.386c4.087 0 8.709-.083 13.015.343 8.407.825 16.841 4.109 20.997 8.176 3.675 3.6 4.965 5.729 4.965 6.32-.042 0-.11.014-.22.014l.014-.014z" fill="url(#L)"/><path d="m270.625 432.271-.686-.042c0-.082.48-7.749-2.811-17.491-2.016-5.949-9.299-15.018-9.381-15.114l.535-.426c.301.371 7.447 9.261 9.49 15.32 3.347 9.88 2.853 17.684 2.853 17.766v-.013z" fill="url(#M)" opacity=".5"/><path opacity=".12" d="m201.792 442.177.356 1.264s6.556 3.174 11.342 4.136c4.787.961 8.846-3.806 8.846-4.535 0-.59-2.427.358-7.228-.302-2.838-.385-10.409.55-13.316-.563z" fill="#666"/><path d="m203.273 439.91-1.577 2.24s1.796.824 4.183 1.772c2.386.948 5.389 2.006 7.789 2.487 2.401.481 4.581-.22 6.145-1.113 1.563-.893 2.55-2.019 2.55-2.377 0-.591-2.29-.673-7.076-1.332-2.373-.33-6.487-1.471-9.463-2.487-.933-.317-1.975 0-2.537.824l-.014-.014z" fill="url(#N)"/><path d="M203.41 439.937c.576-.714 1.564-1.003 2.482-.687a77.513 77.513 0 0 0 4.883 1.471c1.618.439 3.168.783 4.32.948 1.001.137 1.892.261 2.674.357 2.77.343 4.156.494 4.224.92.055.33-.782 1.361-2.167 2.185-1.261.742-2.935 1.36-4.813 1.305-.426 0-.878-.055-1.317-.151-2.277-.453-5.116-1.456-7.392-2.349-2.236-.88-3.923-1.649-3.977-1.663-.165-.055.74-1.635.63-1.676l.467-.66h-.014z" fill="url(#O)"/><path opacity=".12" d="m177.448 429.261 5.678 2.913.947-.563-5.527-7.186c-.412 1.209-.81 2.926-1.098 4.836z" fill="#666"/><path d="m177.448 428.134 6.625 3.545-.371-3.764a2.292 2.292 0 0 0-.96-1.649l-4.183-2.968c-.411 1.209-.809 2.927-1.097 4.836h-.014z" fill="url(#P)"/><path d="m178.546 423.463 4.045 2.872c.494.343.906.961.974 1.566l.357 3.572-6.419-3.435c.288-1.8.645-3.407 1.043-4.561v-.014z" fill="url(#Q)"/><path opacity=".3" d="M194.688 433.205c6.349 3.902 16.553 6.966 23.506 7.213 6.954.234 69.08-36.054 69.08-36.054s-47.013 24.513-57.573 28.841c-10.56 4.328-22.314 2.404-31.667-2.638-7.817-4.219-14.181-9.825-16.06-11.542-1.179.921-2.112 1.814-2.811 2.899-.014.028-.041.069-.055.096 2.277 1.883 8.352 6.76 15.566 11.198l.014-.013z" fill="#fff"/><path style="mix-blend-mode:multiply" d="M189.517 433.095v6.252l7.914 4.438v-5.881l-7.914-4.809z" fill="url(#R)"/><path d="M189.312 432.751v6.252l7.913 4.438v-5.88l-7.913-4.81z" fill="url(#S)"/><path opacity=".2" d="m184.799 428.873 1.55 1.278a50.807 50.807 0 0 0 14.688 8.423l-16.238-9.701zM201.367 447.893a5.892 5.892 0 0 1-2.798-.714l-13.66-7.365a5.898 5.898 0 0 1-3.031-4.328l-.713-4.892.672-.096.713 4.892a5.232 5.232 0 0 0 2.675 3.833l13.659 7.365a5.181 5.181 0 0 0 6.583-1.416l.823-1.071.549.412-.823 1.072a5.861 5.861 0 0 1-4.649 2.308z" fill="#666"/><path d="M179.368 443.675c5.02 4.232 21.985 12.723 30.639 15.471l-1.413-2.83a6.156 6.156 0 0 0-3.031-2.899l-2.427-1.086a154.746 154.746 0 0 1-16.801-8.752l-3.36-2.02a1.955 1.955 0 0 0-2.66.632l-.933 1.498-.014-.014z" fill="url(#T)"/><g opacity=".5"><path opacity=".1" d="m252.467 442.741-.124-.413c-.027-.082-2.263-7.955-5.76-14.674-2.414-4.63-8.818-9.096-8.873-9.137l.384-.563c.274.178 6.61 4.602 9.093 9.384 3.058 5.895 5.17 12.655 5.677 14.386l40.472-22.699c.315-.824 2.208-5.867 2.51-9.425.329-3.848-1.18-9.976-1.193-10.045l.658-.164c.068.261 1.55 6.293 1.207 10.263-.343 3.958-2.51 9.495-2.592 9.729l-.041.109-.11.055-41.336 23.18.028.014z" fill="#666"/></g><path style="mix-blend-mode:screen" d="M242.126 419.547c-2.373 0-3.867-.494-4.731-1.58-.659-.824-.851-1.896-.563-3.174 1.125-4.946 21.299-22.08 38.648-22.08.315 0 .644 0 .96.014 12.919.494 18.981 6.65 18.981 6.65s-24.467 14.386-39.347 17.848c-6.94 1.622-11.123 2.309-13.962 2.309l.014.013z" fill="url(#U)"/><path d="M294.79 399.074s-5.76-4.479-18.391-4.96c-16.787-.646-37.263 16.763-38.223 20.995-.96 4.232 5.157 3.696 17.596.797 14.867-3.462 39.018-16.818 39.018-16.818v-.014z" fill="url(#V)"/><path opacity=".5" d="m252.974 442.095 40.06-22.589s-29.02 13.451-33.106 15.856c-4.074 2.404-6.954 6.733-6.954 6.733z" fill="url(#W)"/><path d="M267.361 408.857c.356.632.686 1.223.987 1.8 10.176-4.108 20.599-9.549 24.467-11.624-2.373-1.278-7.735-3.545-16.375-3.875-.288 0-.576-.013-.878-.013-5.019 0-10.3 1.58-15.25 3.86 1.494 1.608 4.182 4.851 7.035 9.866l.014-.014z" fill="url(#X)"/><path d="M262.808 407.47a81.35 81.35 0 0 0-4.362-7.585c-6.514 3.298-12.247 7.653-15.717 11.02a25.078 25.078 0 0 0 2.113 6.059c2.55-.288 6.02-.962 10.779-2.075 2.661-.618 5.651-1.566 8.736-2.706-.329-1.622-.823-3.257-1.563-4.713h.014z" fill="url(#Y)"/><path opacity=".1" d="M295.434 399.391s17.226-6.651 20.092-8.203c2.866-1.553 3.264-1.608 3.209-6.541 0 0 .343 2.748-4.923 5.799-5.267 3.036-18.378 8.945-18.378 8.945z" fill="#666"/><path d="M315.238 391.023s8.174 3.16 7.529-.206c-.644-3.366-4.073-6.389-4.073-6.389s.713 5.51-3.47 6.595h.014z" fill="url(#Z)"/><path d="M316.843 390.899s5.664 1.869 5.129-.975c-.535-2.844-2.661-4.301-2.661-4.301s1.591 4.864-2.455 5.276h-.013z" fill="url(#aa)"/><path style="mix-blend-mode:multiply" d="M315.073 390.899s2.675.715 4.869 1.154c.329-1.044.604-2.17.562-2.899-.082-1.717-1.796-4.726-1.796-4.726s1.166 6.004-3.635 6.485v-.014z" fill="url(#ab)"/><g style="mix-blend-mode:screen"><path d="M205.152 402.18c-1.331.206-3.511 1.648-5.733 3.545-1.001 5.592-1.646 10.923-1.605 15.705 3.95 2.583 9.299 5.056 14.346 6.059-1.303-6.472-3.1-16.337-3.922-25.282a14.037 14.037 0 0 0-1.797-.124 7.43 7.43 0 0 0-1.289.097z" fill="url(#ac)"/><path d="M223.09 426.444c-2.852-5.743-7.063-14.66-10.162-23.152-1.591-.494-3.113-.865-4.498-1.058 1.837 9.591 4.827 18.797 7.666 25.708h.439c.919 0 1.783-.069 2.564-.22a16.017 16.017 0 0 0 3.991-1.291v.013z" fill="url(#ad)"/></g><g style="mix-blend-mode:screen"><path d="M313.277 397.494c-1.673 0-3.415.522-5.184 1.539-5.527 3.202-9.861 10.69-9.861 17.052 0 1.374.206 2.569.535 3.613l.891-.467c-.082-1.979-.123-2.542-.123-3.133 0-5.935 4.046-12.929 9.202-15.911 1.564-.907 3.086-1.36 4.526-1.36 3.689 0 6.089 2.899 6.117 7.378.37-.467.782-1.016 1.193-1.593-.631-4.878-3.977-7.09-7.31-7.09l.014-.028z" fill="url(#ae)"/><path d="M241.975 437.629c-1.673 0-3.415.523-5.184 1.539-5.527 3.202-9.861 10.69-9.861 17.052v.233a43.89 43.89 0 0 0 1.317-.714c.206-5.826 4.156-12.531 9.189-15.43 1.563-.907 3.085-1.361 4.526-1.361 3.387 0 5.664 2.432 6.048 7.722l1.357-.714c-.192-5.73-3.812-8.313-7.405-8.313l.013-.014z" fill="url(#af)"/></g><path style="mix-blend-mode:multiply" d="M295.434 399.39s-1.714 3.188-1.549 5.675c.178 2.501-1.207 2.927-2.236 2.583-1.028-.343-.425-9.371 3.772-8.258h.013z" fill="url(#ag)"/><path d="M295.613 399.349s-3.374-2.033-5.13-2.033c-1.755 0-1.44 7.213.48 7.365 1.92.164 1.276-3.202 2.236-4.013.96-.81 2.414-1.332 2.414-1.332v.013z" fill="url(#ah)"/><path style="mix-blend-mode:screen" d="M291.704 400.05c0 1.388-.494 2.515-1.097 2.515-.604 0-1.097-1.127-1.097-2.515 0-1.388.493-2.514 1.097-2.514.603 0 1.097 1.126 1.097 2.514z" fill="url(#ai)"/><path style="mix-blend-mode:screen" d="M254.346 376.252h-2.387c2.661.852 6.048 2.13 9.189 3.916a96.575 96.575 0 0 1 3.552 2.143 56.182 56.182 0 0 1 2.222-5.757c-4.169-.371-8.613-.302-12.576-.302z" fill="url(#aj)"/><path d="m118.525 522.278-15.127-7.296 15.991-5.455-.864 12.751z" fill="url(#ak)"/><path d="m190.005 481.744-15.127-7.309 15.991-5.441-.864 12.75z" fill="url(#al)"/><path opacity=".2" d="m192.638 489.755-81.944 46.853a45.236 45.236 0 0 1-45.107-.109l-19.132-11.061c-1.933-1.127-1.947-3.93 0-5.057l102.489-59.494a2.92 2.92 0 0 1 2.921 0l40.787 23.798c1.934 1.126 1.92 3.943-.027 5.056l.013.014z" fill="url(#am)"/><path d="M166.553 488.916c0 2.639.905 4.493 2.387 5.4.041.028 4.649 2.707 4.704 2.721 1.536.865.548-1.086 2.88-2.432 4.69-2.707 8.489-9.275 8.489-14.661 0-2.665 2.455-2.679.946-3.572a885.681 885.681 0 0 0-4.992-2.762c-1.522-.824-3.62-.673-5.924.66-4.691 2.706-8.49 9.274-8.49 14.66v-.014z" fill="url(#an)"/><path d="M171.463 491.705c0 5.387 3.799 7.557 8.489 4.851 4.691-2.707 8.49-9.275 8.49-14.661 0-5.386-3.799-7.557-8.49-4.85-4.69 2.707-8.489 9.274-8.489 14.66z" fill="url(#ao)"/><path style="mix-blend-mode:screen" d="M179.541 476.839c2.249-1.305 4.293-1.47 5.801-.715-1.412-.398-3.168-.096-5.074 1.003-4.691 2.707-8.489 9.275-8.489 14.661 0 2.803 1.028 4.74 2.674 5.565-2.071-.577-3.415-2.652-3.415-5.853 0-5.387 3.799-11.954 8.489-14.661h.014z" fill="url(#ap)"/><path style="mix-blend-mode:multiply" d="M173.136 490.716c0 4.15 2.921 5.826 6.542 3.738 3.607-2.089 6.542-7.145 6.542-11.295 0-4.149-2.921-5.825-6.542-3.737-3.607 2.089-6.542 7.145-6.542 11.294zm4.32-2.61v.247c0 .22-.096.509-.274.728l-2.03 2.515c-.301.371-.699.426-.781.096a5.913 5.913 0 0 1-.192-1.553c0-.577.068-1.168.192-1.772.096-.44.48-.852.781-.825l2.03.179c.178.014.288.165.274.399v-.014zm-1.687-3.353a12.364 12.364 0 0 1 2.496-3.105c.343-.302.686-.206.686.206v2.679c0 .234-.11.523-.288.729-.068.068-.123.151-.178.219-.165.22-.384.344-.562.33l-2.03-.178c-.302-.028-.37-.468-.124-.907v.027zm5.322-4.74c.96-.261 1.81-.179 2.496.22.247.137.192.659-.124 1.03l-2.029 2.515c-.179.22-.398.343-.563.316-.055 0-.123-.014-.178-.014-.178 0-.288-.165-.288-.398v-2.68c0-.412.343-.893.686-.989zm3.895 2.198c.123.454.192.976.192 1.553a8.89 8.89 0 0 1-.192 1.772c-.096.44-.48.852-.782.825l-2.03-.179c-.178-.014-.288-.165-.274-.398v-.248c0-.219.096-.508.274-.728l2.03-2.514c.302-.371.699-.426.782-.096v.013zm-1.399 6.939a12.347 12.347 0 0 1-2.496 3.105c-.343.303-.686.206-.686-.206v-2.679c0-.234.11-.522.288-.728.068-.069.123-.151.178-.22.165-.22.384-.344.563-.33l2.029.179c.302.027.371.467.124.907v-.028zm-5.322 4.74c-.96.262-1.824.179-2.496-.219-.246-.138-.192-.66.124-1.031l2.03-2.514c.178-.22.397-.344.562-.316.055 0 .123.013.178.013.178 0 .288.165.288.399v2.679c0 .412-.343.893-.686.989z" fill="url(#aq)"/><path d="M173.548 490.882c0 4.149 2.921 5.825 6.542 3.737 3.606-2.089 6.541-7.145 6.541-11.295 0-4.149-2.921-5.825-6.541-3.737-3.607 2.089-6.542 7.145-6.542 11.295zm4.32-2.611v.247c0 .22-.096.509-.275.728l-2.029 2.515c-.302.371-.7.426-.782.096a5.95 5.95 0 0 1-.192-1.553c0-.577.069-1.167.192-1.772.096-.44.48-.852.782-.824l2.029.178c.179.014.288.165.275.399v-.014zm-1.687-3.353a12.364 12.364 0 0 1 2.496-3.105c.343-.302.686-.206.686.206v2.679c0 .234-.11.523-.288.729-.069.068-.124.151-.179.22-.164.219-.384.343-.562.329l-2.03-.178c-.301-.028-.37-.468-.123-.907v.027zm5.321-4.74c.96-.261 1.81-.179 2.496.22.247.137.192.659-.123 1.03l-2.03 2.515c-.178.22-.398.343-.562.316-.055 0-.124-.014-.179-.014-.178 0-.288-.165-.288-.398v-2.68c0-.412.343-.893.686-.989zm3.895 2.198c.123.454.192.976.192 1.553a8.89 8.89 0 0 1-.192 1.772c-.096.44-.48.852-.795.825l-2.03-.179c-.178-.013-.288-.165-.274-.398v-.248c0-.219.096-.508.274-.728l2.03-2.514c.301-.371.699-.426.795-.096v.013zm-1.399 6.939a12.329 12.329 0 0 1-2.496 3.105c-.343.303-.686.207-.686-.206v-2.679c0-.234.11-.522.288-.728.069-.069.124-.151.179-.22.164-.22.384-.344.562-.33l2.03.179c.301.027.37.467.123.907v-.028zm-5.321 4.74c-.96.262-1.81.179-2.496-.219-.247-.138-.192-.66.123-1.031l2.03-2.514c.178-.22.398-.344.562-.316.055 0 .124.013.179.013.178 0 .288.165.288.399v2.679c0 .412-.343.893-.686.989z" fill="url(#ar)"/><path d="M95.252 529.038c0 2.638.905 4.493 2.386 5.399.041.028 4.649 2.707 4.704 2.721 1.536.866.549-1.085 2.88-2.432 4.69-2.707 8.489-9.275 8.489-14.661 0-2.665 2.455-2.679.947-3.572a885.681 885.681 0 0 0-4.992-2.762c-1.536-.824-3.621-.673-5.925.66-4.69 2.706-8.49 9.274-8.49 14.66v-.013z" fill="url(#as)"/><path d="M100.175 531.827c0 5.386 3.799 7.557 8.489 4.85 4.691-2.707 8.49-9.275 8.49-14.661 0-5.386-3.799-7.557-8.49-4.85-4.69 2.707-8.489 9.274-8.489 14.661z" fill="url(#at)"/><path style="mix-blend-mode:screen" d="M108.253 516.96c2.249-1.305 4.293-1.47 5.801-.714-1.412-.399-3.168-.097-5.074 1.003-4.69 2.706-8.489 9.274-8.489 14.66 0 2.803 1.028 4.741 2.674 5.565-2.071-.577-3.415-2.652-3.415-5.853 0-5.386 3.799-11.954 8.489-14.661h.014z" fill="url(#au)"/><path style="mix-blend-mode:multiply" d="M101.848 530.838c0 4.149 2.922 5.825 6.542 3.737 3.607-2.089 6.542-7.145 6.542-11.294 0-4.15-2.921-5.826-6.542-3.738-3.607 2.089-6.542 7.145-6.542 11.295zm4.32-2.611v.247c0 .22-.096.509-.274.729l-2.03 2.514c-.301.371-.699.426-.781.096a5.905 5.905 0 0 1-.192-1.552c0-.578.068-1.168.192-1.773.096-.44.48-.852.781-.824l2.03.178c.178.014.288.165.274.399v-.014zm-1.686-3.353a12.364 12.364 0 0 1 2.496-3.105c.342-.302.685-.206.685.206v2.68c0 .233-.109.522-.288.728-.068.068-.123.151-.178.22-.165.219-.384.343-.562.329l-2.03-.178c-.302-.028-.37-.467-.123-.907v.027zm5.321-4.74c.96-.261 1.81-.179 2.496.22.247.137.192.659-.124 1.03l-2.029 2.515c-.179.22-.398.343-.563.316-.055 0-.123-.014-.178-.014-.178 0-.288-.165-.288-.398v-2.68c0-.412.343-.893.686-.989zm3.895 2.198c.123.454.192.976.192 1.553s-.069 1.168-.192 1.773c-.096.439-.48.851-.782.824l-2.03-.179c-.178-.013-.288-.165-.274-.398v-.247c0-.22.096-.509.274-.729l2.03-2.514c.302-.371.699-.426.782-.096v.013zm-1.399 6.939a12.329 12.329 0 0 1-2.496 3.105c-.343.303-.686.207-.686-.206v-2.679c0-.234.11-.522.288-.728.069-.069.123-.151.178-.22.165-.22.384-.344.563-.33l2.029.179c.302.027.371.467.124.907v-.028zm-5.321 4.741c-.96.261-1.811.178-2.496-.22-.247-.138-.192-.66.123-1.031l2.03-2.514c.178-.22.397-.344.562-.316.055 0 .123.013.178.013.179 0 .288.165.288.399v2.679c0 .412-.343.893-.685.99z" fill="url(#av)"/><path d="M102.246 531.002c0 4.15 2.921 5.826 6.542 3.737 3.607-2.088 6.542-7.144 6.542-11.294 0-4.149-2.922-5.826-6.542-3.737-3.607 2.088-6.542 7.145-6.542 11.294zm4.32-2.61v.247c0 .22-.096.508-.274.728l-2.03 2.515c-.302.371-.699.425-.782.096a5.961 5.961 0 0 1-.192-1.553c0-.577.069-1.168.192-1.772.096-.44.48-.852.782-.825l2.03.179c.178.014.288.165.274.398v-.013zm-1.687-3.353a12.347 12.347 0 0 1 2.496-3.105c.343-.303.686-.206.686.206v2.679c0 .234-.11.522-.288.728-.069.069-.123.151-.178.22-.165.22-.384.344-.563.33l-2.029-.179c-.302-.027-.371-.467-.124-.907v.028zm5.321-4.74c.96-.261 1.811-.179 2.496.219.247.138.192.66-.123 1.031l-2.03 2.514c-.178.22-.397.344-.562.316-.055 0-.123-.013-.178-.013-.179 0-.288-.165-.288-.399v-2.679c0-.412.343-.893.685-.989zm3.895 2.198c.124.453.192.976.192 1.553s-.068 1.168-.192 1.772c-.096.44-.48.852-.781.825l-2.03-.179c-.178-.014-.288-.165-.274-.399v-.247c0-.22.096-.508.274-.728l2.03-2.515c.301-.371.699-.425.781-.096v.014zm-1.399 6.939a12.364 12.364 0 0 1-2.496 3.105c-.342.302-.685.206-.685-.206v-2.679c0-.234.109-.522.288-.729.068-.068.123-.151.178-.219.165-.22.384-.344.562-.33l2.03.178c.302.028.37.468.123.907v-.027zm-5.321 4.74c-.96.261-1.81.179-2.496-.22-.247-.137-.192-.659.124-1.03l2.029-2.515c.179-.22.398-.343.563-.316.055 0 .123.014.178.014.178 0 .288.165.288.399v2.679c0 .412-.343.893-.686.989z" fill="url(#aw)"/><path d="M107.938 515.916c1.563-.907 3.085-1.361 4.525-1.361 3.388 0 5.664 2.432 6.048 7.722l51.636-27.439c-.083-1.978-.124-2.542-.124-3.132 0-5.936 4.046-12.93 9.202-15.911 1.564-.907 3.086-1.361 4.526-1.361 3.689 0 6.09 2.9 6.117 7.379 1.893-2.391 4.663-6.458 4.663-9.838 0-7.049-6.844-17.395-22.437-21.861-14.359-4.108-20.421-4.259-30.172-2.171-9.751 2.089-10.56 3.532-15.196 4.013-4.635.48-6.72-4.48-29.417 8.491-22.711 12.971-32.462 25.158-37.578 29.005-5.116 3.848-8.31 5.373-10.08 8.093-1.756 2.721-3.593 16.337-1.042 20.349 2.564 4.012 28.786 16.983 35.506 17.629 6.172.591 13.468-3.476 14.634-4.15.206-5.825 4.155-12.531 9.189-15.43v-.027z" fill="url(#ax)"/><path opacity=".5" d="M186.782 457.74c-3.566-3.091-8.407-5.839-14.674-7.625-9.258-2.638-15.059-3.641-20.627-3.477-4.69 1.127-10.135 2.913-14.578 4.961-6.35 2.926 27.895 16.199 27.895 16.199 5.883.44 19.008-6.169 21.984-10.071v.013z" fill="url(#ay)"/><path opacity=".5" d="M103.069 490.084s8.558-10.909 20.146-17.463c13.619-7.695 20.723-8.272 20.723-8.272l-10.642-8.711-13.687-3.902s-7.105 1.03-16.664 6.197c-9.558 5.166-29.76 20.527-29.76 20.527l29.884 11.624z" fill="url(#az)"/><path d="M75.599 476.976c-3.909.632-13.578 9.879-13.893 14.084-.33 4.204 17.294 15.059 27.95 13.108 10.67-1.938 14.538-12.957 13.893-15.224-.645-2.267-19.872-13.273-27.95-11.982v.014z" fill="url(#aA)"/><path d="M87.01 503.577c-8.463 0-19.448-6.045-23.288-10.209-1.303-1.415-1.33-2.088-1.317-2.212.288-3.792 9.751-12.792 13.249-13.355a7.435 7.435 0 0 1 1.289-.096c8.448 0 24.96 9.618 25.961 11.569.137.508-.26 3.132-2.208 6.279-1.508 2.432-4.964 6.691-11.108 7.804-.796.138-1.66.22-2.565.22h-.014z" fill="url(#aB)"/><path d="M118.1 451.53s13.331-.371 21.491.426c8.16.796 16.964 4.012 21.408 8.367 3.73 3.655 7.159 7.97 3.799 7.489-3.36-.481-19.667-3.202-20.942-3.532-1.276-.316-5.308-3.778-12.041-7.625-6.241-3.573-13.701-5.125-13.701-5.125h-.014z" fill="url(#aC)"/><path d="M163.591 466.74c-.11 0-.233 0-.37-.027-3.347-.481-18.474-3.037-19.722-3.339-.466-.11-1.755-1.003-3.25-2.034-2.085-1.442-4.937-3.407-8.626-5.523-3.127-1.786-6.529-3.078-9.189-3.916h2.386c4.087 0 8.709-.082 13.015.343 8.407.825 16.842 4.109 20.997 8.176 3.676 3.6 4.965 5.729 4.965 6.32-.041 0-.11.014-.22.014l.014-.014z" fill="url(#aD)"/><path d="m141.113 507.892-.686-.041c0-.083.48-7.75-2.811-17.492-2.016-5.949-9.299-15.018-9.381-15.114l.535-.426c.302.371 7.447 9.261 9.49 15.321 3.347 9.879 2.853 17.683 2.853 17.766v-.014z" fill="url(#aE)" opacity=".5"/><path opacity=".12" d="m72.28 517.798.356 1.264s6.556 3.174 11.342 4.136c4.787.962 8.846-3.806 8.846-4.535 0-.59-2.427.358-7.227-.302-2.84-.385-10.41.55-13.317-.563z" fill="#666"/><path d="m73.761 515.531-1.577 2.24s1.796.824 4.183 1.772c2.386.948 5.39 2.006 7.79 2.487 2.4.481 4.58-.219 6.144-1.113 1.563-.893 2.55-2.019 2.55-2.377 0-.59-2.29-.673-7.076-1.332-2.373-.33-6.487-1.471-9.463-2.487-.933-.316-1.975 0-2.537.824l-.014-.014z" fill="url(#aF)"/><path d="M73.898 515.558c.576-.715 1.564-1.003 2.483-.687 1.467.495 3.209 1.03 4.882 1.47 1.618.44 3.168.783 4.32.948 1.001.138 1.892.261 2.674.357 2.77.344 4.156.495 4.224.921.055.33-.781 1.36-2.167 2.185-1.261.742-2.934 1.36-4.813 1.305-.425 0-.878-.055-1.317-.151-2.276-.454-5.115-1.457-7.392-2.35-2.236-.879-3.922-1.648-3.977-1.662-.165-.055.74-1.635.63-1.677l.467-.659h-.014z" fill="url(#aG)"/><path opacity=".12" d="m47.937 504.882 5.677 2.913.947-.563-5.527-7.186c-.412 1.209-.81 2.927-1.097 4.836z" fill="#666"/><path d="m47.937 503.755 6.624 3.545-.37-3.764a2.297 2.297 0 0 0-.96-1.649l-4.184-2.968c-.41 1.209-.809 2.927-1.097 4.836h-.013z" fill="url(#aH)"/><path d="m49.034 499.084 4.046 2.872c.493.343.905.961.973 1.566l.357 3.572-6.418-3.435c.288-1.8.644-3.407 1.042-4.561v-.014z" fill="url(#aI)"/><path opacity=".3" d="M65.176 508.826c6.35 3.902 16.553 6.966 23.506 7.213 6.954.234 69.08-36.054 69.08-36.054s-47.013 24.513-57.573 28.841c-10.56 4.328-22.314 2.404-31.667-2.638-7.817-4.218-14.18-9.824-16.06-11.542-1.179.921-2.112 1.814-2.811 2.899-.014.028-.041.069-.055.096 2.277 1.883 8.352 6.761 15.566 11.199l.014-.014z" fill="#fff"/><path style="mix-blend-mode:multiply" d="M60.005 508.716v6.252l7.914 4.438v-5.881l-7.914-4.809z" fill="url(#aJ)"/><path d="M59.8 508.373v6.251l7.913 4.438v-5.88l-7.913-4.809z" fill="url(#aK)"/><path opacity=".2" d="m55.288 504.494 1.55 1.278a50.801 50.801 0 0 0 14.687 8.423l-16.237-9.701zM71.855 523.514a5.882 5.882 0 0 1-2.798-.714l-13.66-7.365a5.895 5.895 0 0 1-3.03-4.328l-.714-4.892.672-.096.713 4.892a5.231 5.231 0 0 0 2.675 3.833l13.66 7.365a5.182 5.182 0 0 0 6.582-1.415l.823-1.072.549.412-.823 1.072a5.861 5.861 0 0 1-4.65 2.308z" fill="#666"/><path d="M49.857 519.296c5.02 4.232 21.984 12.723 30.638 15.471l-1.413-2.83a6.16 6.16 0 0 0-3.03-2.899l-2.428-1.086a154.68 154.68 0 0 1-16.8-8.752l-3.36-2.02a1.956 1.956 0 0 0-2.661.632l-.933 1.498-.013-.014z" fill="url(#aL)"/><g opacity=".5"><path opacity=".1" d="m122.955 518.362-.124-.412c-.027-.083-2.262-7.956-5.76-14.675-2.413-4.63-8.818-9.096-8.873-9.137l.384-.563c.274.178 6.611 4.603 9.093 9.384 3.058 5.895 5.17 12.655 5.678 14.386l40.471-22.699c.316-.824 2.208-5.867 2.51-9.425.329-3.848-1.18-9.976-1.193-10.044l.658-.165c.069.261 1.55 6.293 1.207 10.264-.343 3.957-2.51 9.494-2.592 9.728l-.041.11-.11.054-41.336 23.18.028.014z" fill="#666"/></g><path style="mix-blend-mode:screen" d="M112.614 495.168c-2.372 0-3.867-.494-4.731-1.58-.659-.824-.851-1.896-.563-3.174 1.125-4.946 21.299-22.08 38.648-22.08.315 0 .644 0 .96.014 12.919.494 18.981 6.65 18.981 6.65s-24.467 14.386-39.347 17.848c-6.94 1.622-11.123 2.309-13.962 2.309l.014.013z" fill="url(#aM)"/><path d="M165.278 474.695s-5.76-4.479-18.391-4.96c-16.787-.646-37.263 16.763-38.223 20.995-.96 4.232 5.157 3.696 17.596.797 14.867-3.462 39.018-16.818 39.018-16.818v-.014z" fill="url(#aN)"/><path opacity=".5" d="m123.462 517.716 40.06-22.589s-29.019 13.451-33.106 15.856c-4.074 2.405-6.954 6.733-6.954 6.733z" fill="url(#aO)"/><path d="M137.849 484.478c.356.632.686 1.223.987 1.8 10.176-4.108 20.599-9.549 24.467-11.624-2.373-1.278-7.735-3.545-16.375-3.875-.288 0-.576-.013-.878-.013-5.019 0-10.299 1.58-15.25 3.861 1.495 1.607 4.183 4.85 7.035 9.865l.014-.014z" fill="url(#aP)"/><path d="M133.296 483.091a81.486 81.486 0 0 0-4.362-7.585c-6.514 3.298-12.247 7.654-15.716 11.02a25.07 25.07 0 0 0 2.112 6.059c2.551-.288 6.02-.962 10.779-2.074 2.661-.619 5.651-1.567 8.736-2.707-.329-1.622-.822-3.257-1.563-4.713h.014z" fill="url(#aQ)"/><path opacity=".1" d="M165.922 475.012s17.226-6.651 20.092-8.203c2.867-1.553 3.264-1.608 3.209-6.54 0 0 .343 2.748-4.923 5.798-5.266 3.036-18.378 8.945-18.378 8.945z" fill="#666"/><path d="M185.726 466.644s8.174 3.16 7.529-.206c-.644-3.366-4.073-6.389-4.073-6.389s.713 5.51-3.47 6.595h.014z" fill="url(#aR)"/><path d="M187.331 466.52s5.664 1.869 5.129-.975c-.535-2.844-2.661-4.301-2.661-4.301s1.591 4.864-2.454 5.276h-.014z" fill="url(#aS)"/><path style="mix-blend-mode:multiply" d="M185.562 466.52s2.674.715 4.868 1.155c.329-1.045.604-2.171.563-2.9-.083-1.717-1.797-4.726-1.797-4.726s1.166 6.004-3.634 6.485v-.014z" fill="url(#aT)"/><g style="mix-blend-mode:screen"><path d="M75.64 477.801c-1.33.206-3.511 1.649-5.733 3.545-1 5.592-1.645 10.923-1.604 15.705 3.95 2.583 9.298 5.056 14.345 6.059-1.303-6.472-3.1-16.337-3.922-25.282a14.016 14.016 0 0 0-1.797-.123c-.466 0-.905.027-1.29.096z" fill="url(#aU)"/><path d="M93.579 502.066c-2.853-5.744-7.063-14.661-10.163-23.153-1.59-.494-3.113-.865-4.498-1.058 1.837 9.591 4.827 18.797 7.666 25.708h.439c.919 0 1.783-.069 2.565-.22a15.994 15.994 0 0 0 3.99-1.291v.014z" fill="url(#aV)"/></g><g style="mix-blend-mode:screen"><path d="M183.765 473.115c-1.673 0-3.415.522-5.184 1.539-5.527 3.202-9.861 10.69-9.861 17.052 0 1.374.206 2.569.535 3.613l.891-.467c-.082-1.978-.123-2.542-.123-3.133 0-5.935 4.046-12.929 9.202-15.911 1.564-.907 3.086-1.36 4.526-1.36 3.689 0 6.089 2.899 6.117 7.379.37-.468.782-1.017 1.193-1.594-.631-4.878-3.977-7.09-7.31-7.09l.014-.028z" fill="url(#aW)"/><path d="M112.463 513.25c-1.673 0-3.415.523-5.184 1.539-5.527 3.202-9.86 10.69-9.86 17.052v.233c.63-.329 1.097-.59 1.316-.714.206-5.826 4.156-12.531 9.189-15.43 1.563-.907 3.086-1.36 4.526-1.36 3.387 0 5.664 2.432 6.048 7.721l1.357-.714c-.192-5.73-3.812-8.313-7.405-8.313l.013-.014z" fill="url(#aX)"/></g><path style="mix-blend-mode:multiply" d="M165.922 475.011s-1.714 3.188-1.549 5.675c.178 2.501-1.207 2.927-2.236 2.583-1.028-.343-.425-9.37 3.772-8.258h.013z" fill="url(#aY)"/><path d="M166.101 474.971s-3.374-2.034-5.129-2.034c-1.756 0-1.441 7.214.48 7.365 1.92.165 1.275-3.202 2.235-4.012.96-.811 2.414-1.333 2.414-1.333v.014z" fill="url(#aZ)"/><path style="mix-blend-mode:screen" d="M162.192 475.671c0 1.388-.494 2.515-1.097 2.515-.604 0-1.097-1.127-1.097-2.515 0-1.388.493-2.514 1.097-2.514.603 0 1.097 1.126 1.097 2.514z" fill="url(#ba)"/><path style="mix-blend-mode:screen" d="M124.834 451.873h-2.387c2.661.852 6.049 2.13 9.189 3.916a96.53 96.53 0 0 1 3.552 2.144 56.105 56.105 0 0 1 2.222-5.758c-4.169-.371-8.613-.302-12.576-.302z" fill="url(#bb)"/><path d="M202.99 82.948c5.013-10.736-4.566-25.81-21.396-33.67-16.829-7.858-34.535-5.526-39.548 5.21-5.013 10.736 4.566 25.81 21.395 33.67 16.83 7.858 34.536 5.526 39.549-5.21z" fill="#F2F2F2"/><path d="M199.513 84.969c-2.823 2.666-6.562 3.723-10.316 4.149-6.026 1.625-12.619 2.54-18.392-.474l.047-.157c6.136.22 12.193 1.293 18.235.126 2.65-.852 7.966-3.455 10.426-3.644z" fill="#000" opacity=".09"/><path d="M146.465 50.531c3.06-2.398 6.878-3.092 10.648-3.17 6.152-1.057 12.792-1.341 18.266 2.192l-.063.142c-6.089-.788-12.02-2.413-18.14-1.83-2.713.6-8.266 2.698-10.727 2.666h.016z" fill="#fff" opacity=".3"/><path d="M160.622 67.388c.859-.841.653-2.447-.462-3.586-1.115-1.14-2.715-1.383-3.575-.542-.859.84-.652 2.446.462 3.586 1.115 1.14 2.715 1.382 3.575.542zM169.295 71.438c.941-.92.715-2.675-.503-3.92-1.218-1.247-2.968-1.511-3.908-.591-.941.92-.716 2.675.502 3.921 1.219 1.246 2.969 1.51 3.909.59zM178.506 75.83c1.059-1.035.801-3.015-.575-4.423-1.377-1.408-3.351-1.71-4.41-.674-1.059 1.035-.802 3.016.575 4.424 1.377 1.408 3.351 1.71 4.41.674z" fill="#545454"/><path d="M156.277 64.54c.489.41.489.757.504 1.278.489.647 1.199.52 1.641 1.593l-.032.063c-.788.158-1.435-.363-1.624-1.073-.048-.173-.095-.33-.205-.457-.458-.316-.758-.836-.363-1.404h.079z" fill="#000" opacity=".2"/><path d="M160.946 66.117c-.71-1.183-1.294-1.814-2.177-2.887 1.404 0 2.634 1.53 2.177 2.887zM169.59 69.872c-.71-1.183-1.294-1.814-2.177-2.887 1.404 0 2.634 1.53 2.177 2.887zM178.944 74.4c-.757-1.61-1.641-2.604-2.887-3.85 1.783.19 3.313 2.067 2.887 3.85z" fill="#fff" opacity=".38"/><path d="M164.526 68.389c.474.426.442.789.442 1.293.442.663 1.183.584 1.546 1.673l-.032.063c-.804.126-1.419-.442-1.561-1.152a1.223 1.223 0 0 0-.174-.473c-.441-.332-.725-.868-.299-1.42h.078v.016zM173.076 72.286c.473.52.473.962.521 1.561.52.773 1.403.9 1.861 1.988l-.032.063c-1.262.095-1.703-.978-2.05-1.94-.474-.426-.789-1.041-.363-1.672h.079-.016z" fill="#000" opacity=".2"/><path d="M481.364 195.101c5.013-10.736-4.567-25.811-21.396-33.669-16.829-7.859-34.535-5.527-39.548 5.209-5.013 10.736 4.566 25.81 21.395 33.669 16.83 7.859 34.536 5.527 39.549-5.209z" fill="#F2F2F2"/><g opacity=".09"><path opacity=".5" d="M477.878 196.76c-2.824 2.666-6.562 3.723-10.317 4.149-6.025 1.625-12.619 2.54-18.392-.473l.047-.158c6.136.221 12.193 1.294 18.235.126 2.65-.852 7.966-3.454 10.427-3.644z" fill="#000"/></g><path d="M424.829 162.323c3.061-2.397 6.878-3.092 10.648-3.17 6.152-1.057 12.793-1.341 18.266 2.192l-.063.142c-6.089-.788-12.02-2.413-18.14-1.83-2.713.6-8.266 2.698-10.726 2.666h.015z" fill="#fff" opacity=".3"/><g filter="url(#bc)"><path d="M439.002 179.203c.86-.841.653-2.447-.462-3.586-1.114-1.14-2.715-1.383-3.574-.542-.86.84-.653 2.446.462 3.586 1.114 1.14 2.715 1.382 3.574.542z" fill="#545454"/></g><g filter="url(#bd)"><path d="M447.68 183.248c.94-.919.715-2.675-.503-3.921s-2.968-1.51-3.909-.59c-.94.92-.715 2.675.503 3.921s2.968 1.51 3.909.59z" fill="#545454"/></g><g filter="url(#be)"><path d="M456.875 187.641c1.059-1.036.801-3.016-.575-4.424-1.377-1.408-3.351-1.71-4.41-.674-1.059 1.035-.801 3.016.575 4.424 1.377 1.408 3.351 1.709 4.41.674z" fill="#545454"/></g><path d="M434.641 176.332c.489.41.489.757.505 1.277.489.647 1.199.521 1.64 1.594l-.031.063c-.789.157-1.436-.363-1.625-1.073-.047-.174-.095-.331-.205-.457-.458-.316-.757-.837-.363-1.404h.079z" fill="#000" opacity=".2"/><path d="M439.31 177.909c-.71-1.183-1.293-1.814-2.177-2.887 1.404 0 2.634 1.53 2.177 2.887zM447.954 181.664c-.71-1.183-1.293-1.814-2.177-2.887 1.404 0 2.635 1.53 2.177 2.887zM457.308 186.191c-.757-1.609-1.64-2.603-2.886-3.849 1.782.189 3.312 2.066 2.886 3.849z" fill="#fff" opacity=".38"/><path d="M442.891 180.181c.473.426.441.789.441 1.293.442.663 1.183.584 1.546 1.673l-.031.063c-.805.126-1.42-.442-1.562-1.152a1.224 1.224 0 0 0-.173-.473c-.442-.331-.726-.868-.3-1.42h.079v.016zM451.44 184.077c.473.521.473.962.521 1.562.52.773 1.404.899 1.861 1.988l-.031.063c-1.262.094-1.704-.978-2.051-1.941-.473-.426-.789-1.041-.363-1.672h.079-.016z" fill="#000" opacity=".2"/><path d="M228.963 270.769c5.012-10.736-4.567-25.81-21.396-33.669-16.829-7.859-34.535-5.526-39.548 5.21-5.013 10.736 4.566 25.81 21.395 33.669 16.829 7.859 34.536 5.526 39.549-5.21z" fill="#E3E3E3"/><path d="M225.493 272.765c-2.823 2.666-6.562 3.723-10.316 4.149-6.026 1.625-12.619 2.54-18.393-.473l.048-.158c6.136.221 12.193 1.294 18.234.126 2.65-.852 7.966-3.455 10.427-3.644z" fill="#000" opacity=".09"/><path d="M172.445 238.328c3.06-2.398 6.878-3.092 10.648-3.171 6.151-1.057 12.792-1.34 18.266 2.193l-.063.142c-6.089-.789-12.02-2.413-18.14-1.83-2.714.6-8.266 2.698-10.727 2.666h.016z" fill="#fff" opacity=".3"/><path d="M186.6 255.208c.86-.841.653-2.446-.462-3.586-1.114-1.14-2.715-1.383-3.574-.542-.86.841-.653 2.446.462 3.586 1.114 1.14 2.715 1.383 3.574.542zM195.278 259.254c.941-.92.716-2.676-.503-3.921-1.218-1.246-2.968-1.511-3.908-.591-.941.92-.716 2.676.502 3.921 1.219 1.246 2.969 1.511 3.909.591zM204.462 263.635c1.059-1.035.801-3.016-.575-4.424-1.377-1.408-3.351-1.709-4.41-.674-1.059 1.036-.801 3.016.575 4.424 1.377 1.408 3.351 1.71 4.41.674z" fill="#545454"/><path d="M182.256 252.352c.489.41.489.757.505 1.278.489.647 1.199.52 1.641 1.593l-.032.063c-.789.158-1.435-.363-1.625-1.072-.047-.174-.094-.332-.205-.458-.457-.315-.757-.836-.362-1.404h.078z" fill="#000" opacity=".2"/><path d="M186.926 253.914c-.71-1.183-1.294-1.814-2.177-2.887 1.404 0 2.634 1.53 2.177 2.887zM195.57 257.684c-.71-1.183-1.294-1.814-2.177-2.887 1.404 0 2.634 1.531 2.177 2.887zM204.924 262.196c-.757-1.609-1.641-2.603-2.887-3.849 1.783.189 3.313 2.066 2.887 3.849z" fill="#fff" opacity=".38"/><path d="M190.506 256.186c.474.426.442.788.442 1.293.442.663 1.183.584 1.546 1.672l-.032.064c-.804.126-1.419-.442-1.561-1.152a1.22 1.22 0 0 0-.174-.473c-.442-.332-.725-.868-.3-1.42h.079v.016zM199.056 260.098c.473.52.473.962.52 1.561.521.773 1.404.9 1.862 1.988l-.032.063c-1.262.095-1.703-.978-2.05-1.94-.474-.426-.789-1.041-.363-1.672h.079-.016z" fill="#000" opacity=".2"/><path d="M234.209 153.974c9.837-21.069-8.968-50.655-42.003-66.082-33.034-15.426-67.789-10.852-77.627 10.218-9.837 21.07 8.968 50.655 42.002 66.082 33.035 15.426 67.79 10.852 77.628-10.218z" fill="#E3E3E3"/><path d="M227.449 158.001c-3.344 3.833-7.919 6.326-12.793 7.509-2.445.457-5.016.378-7.445.82-4.874.71-9.496 3.029-14.465 3.392-7.477.93-15.222-.521-21.705-4.512l.126-.457c3.786-.269 7.225-.064 10.884.015 5.3.095 10.569.442 15.869.726 2.981.189 6.089.205 8.96-.647 4.464-1.719 8.502-4.401 13.218-5.474 2.288-.662 4.575-1.341 7.099-1.767l.252.395z" fill="#000" opacity=".09"/><path d="M123.214 90.262c3.691-3.502 8.487-5.568 13.44-6.278 2.476-.237 5.032.079 7.477-.126 4.921-.253 9.748-2.13 14.733-2.035 7.54-.221 15.111 1.94 21.2 6.515l-.174.441c-2.587.032-4.921-.441-7.319-.615-5.883-.552-11.625-1.577-17.477-2.319-3.518-.63-7.209-1.199-10.743-.489-4.606 1.294-8.865 3.581-13.676 4.212-2.35.442-4.684.9-7.224 1.104l-.205-.426-.032.016z" fill="#fff" opacity=".3"/><g filter="url(#bf)"><path d="M151.041 123.421c1.687-1.651 1.283-4.802-.903-7.038-2.187-2.237-5.328-2.711-7.016-1.06-1.688 1.65-1.284 4.801.903 7.038 2.187 2.236 5.328 2.71 7.016 1.06z" fill="#545454"/></g><g filter="url(#bg)"><path d="M168.105 131.39c1.85-1.809 1.404-5.265-.996-7.719-2.4-2.455-5.845-2.978-7.695-1.168-1.85 1.809-1.404 5.265.996 7.719 2.4 2.454 5.845 2.977 7.695 1.168z" fill="#545454"/></g><g filter="url(#bh)"><path d="M186.146 139.976c2.086-2.04 1.59-5.932-1.108-8.691-2.698-2.76-6.577-3.342-8.664-1.302-2.086 2.041-1.59 5.932 1.108 8.692 2.698 2.759 6.577 3.342 8.664 1.301z" fill="#545454"/></g><path d="M142.49 117.853c.521.852.694 1.656.931 2.556.883 1.277 2.287 1.814 3.297 3.092l-.032.063c-1.782-.095-2.792-1.594-3.486-3.029-.678-.71-1.152-1.672-.789-2.682h.079z" fill="#000" opacity=".2"/><path d="M151.702 120.93c-.836-2.414-2.287-4.086-4.259-5.68 2.508.537 4.606 3.077 4.259 5.68zM168.659 128.312c-.836-2.413-2.287-4.085-4.259-5.679 2.508.537 4.606 3.076 4.259 5.679zM187.02 137.194c-.883-3.234-3.013-5.664-5.678-7.572 3.249.899 5.931 4.133 5.678 7.572z" fill="#fff" opacity=".38"/><path d="M158.674 125.394c.474.883.6 1.688.805 2.602.804 1.326 2.192 1.925 3.139 3.25l-.032.063c-1.766-.173-2.713-1.735-3.328-3.202-.647-.742-1.057-1.72-.647-2.713h.079-.016zM175.474 133.045c.489 1.057.662 2.035.946 3.107.947 1.594 2.587 2.43 3.754 3.865-.568.142-1.609-.536-2.098-.915-.93-.71-1.34-1.845-1.877-2.839-.725-.899-1.199-2.051-.788-3.234h.078l-.015.016z" fill="#000" opacity=".2"/><path d="M454.505 243.713c12.208-26.145-11.12-62.855-52.103-81.993-40.984-19.139-84.104-13.459-96.311 12.687-12.208 26.145 11.119 62.855 52.103 81.994 40.984 19.138 84.104 13.458 96.311-12.688z" fill="#E3E3E3"/><g opacity=".09"><path opacity=".5" d="M446.061 248.677c-4.369 4.432-10.032 7.367-15.979 8.913-2.997.646-6.136.709-9.117 1.293-2.997.458-5.9 1.325-8.865 2.114-11.815 3.455-25.065 2.556-35.965-3.376l.126-.457c3.076-.142 6.01.252 9.055.299 7.35.253 14.622.789 21.973.852 4.432.237 9.054.284 13.329-.915 5.6-2.003 10.758-5.016 16.547-6.562 2.823-.899 5.631-1.83 8.66-2.556l.252.395h-.016z" fill="#000"/></g><path d="M316.825 164.737c4.763-4.007 10.679-6.405 16.752-7.383 3.044-.362 6.167-.142 9.196-.426 3.029-.173 5.994-.773 9.023-1.277 12.083-2.335 25.207-.205 35.491 6.72l-.173.442c-3.076-.142-5.963-.805-8.976-1.136-7.287-.931-14.48-2.161-21.799-2.887-4.386-.663-8.992-1.136-13.361-.331-5.757 1.467-11.184 3.991-17.083 4.985-2.903.631-5.789 1.293-8.849 1.735l-.206-.426-.015-.016z" fill="#fff" opacity=".3"/><g filter="url(#bi)"><path d="M351.342 205.833c2.092-2.047 1.587-5.958-1.13-8.736-2.716-2.778-6.615-3.371-8.708-1.324-2.093 2.046-1.587 5.958 1.13 8.736 2.716 2.778 6.615 3.371 8.708 1.324z" fill="#545454"/></g><g filter="url(#bj)"><path d="M372.49 215.706c2.298-2.248 1.752-6.534-1.221-9.574-2.972-3.04-7.245-3.682-9.543-1.434-2.299 2.247-1.752 6.534 1.22 9.574 2.972 3.039 7.245 3.681 9.544 1.434z" fill="#545454"/></g><g filter="url(#bk)"><path d="M394.873 226.372c2.585-2.528 1.965-7.355-1.385-10.781s-8.162-4.154-10.746-1.626c-2.585 2.528-1.965 7.355 1.385 10.781s8.161 4.154 10.746 1.626z" fill="#545454"/></g><path d="M340.691 198.906c.536 1.073.788 2.098 1.136 3.187 1.056 1.609 2.792 2.413 4.117 3.833-2.051 0-3.471-2.003-4.338-3.707-.789-.899-1.341-2.082-.994-3.313h.079z" fill="#000" opacity=".2"/><path d="M352.127 202.724c-.883-3.013-2.792-5.206-5.284-7.052 3.044.789 5.568 3.834 5.284 7.052zM373.17 211.889c-.884-3.013-2.793-5.206-5.285-7.052 3.045.789 5.568 3.834 5.285 7.052zM395.947 222.9c-.93-3.991-3.675-7.162-7.035-9.386 3.959 1.246 7.225 5.127 7.035 9.386z" fill="#fff" opacity=".38"/><path d="M360.771 208.261c.489 1.104.678 2.129.978 3.249.978 1.657 2.666 2.556 3.912 4.039-2.051-.095-3.376-2.177-4.133-3.912-.741-.947-1.23-2.146-.836-3.36h.079v-.016zM381.624 217.757c.489 1.325.758 2.572 1.152 3.881 1.136 1.988 3.123 3.139 4.669 4.796-2.335-.253-3.991-2.619-4.906-4.686-.836-1.135-1.388-2.555-1.009-3.991h.094z" fill="#000" opacity=".2"/><path d="M336.229 249.059c13.402-28.703-12.208-69.004-57.202-90.015-44.993-21.011-92.332-14.776-105.734 13.928-13.402 28.703 12.208 69.004 57.202 90.015 44.993 21.011 92.332 14.776 105.734-13.928z" fill="#F2F2F2"/><path d="m276.38 272.695 31.722 35.479c.662.741 1.893.205 1.782-.789l-3.896-36.031-29.624 1.341h.016z" fill="#F2F2F2"/><g opacity=".09"><path opacity=".5" d="M326.967 254.491c-4.874 4.732-11.089 7.887-17.588 9.623-3.281.741-6.704.883-9.969 1.53-3.281.521-6.483 1.451-9.732 2.272-12.982 3.612-27.431 2.634-39.467-3.597l.126-.458c3.376-.094 6.594.395 9.906.489 8.077.363 16.09.947 24.182.931 4.874.205 9.938.174 14.638-1.12 6.168-2.145 11.894-5.332 18.219-7.099 3.092-1.009 6.168-2.066 9.449-2.95l.252.395-.016-.016z" fill="#000"/></g><path d="M185.096 162.364c5.3-4.259 11.783-6.815 18.424-7.935 3.328-.426 6.751-.252 10.064-.583 3.312-.206 6.577-.837 9.906-1.357 13.266-2.398 27.557-.063 38.946 7.272l-.174.442c-3.36-.221-6.53-1.01-9.827-1.404-7.997-1.12-15.916-2.445-23.976-3.187-4.827-.662-9.875-1.104-14.686-.252-6.341 1.546-12.351 4.212-18.803 5.379-3.17.726-6.341 1.483-9.669 2.051l-.205-.426z" fill="#fff" opacity=".3"/><g filter="url(#bl)"><path d="M222.96 207.471c2.299-2.247 1.747-6.539-1.231-9.585-2.979-3.046-7.256-3.693-9.555-1.445-2.298 2.248-1.747 6.539 1.232 9.585 2.978 3.046 7.256 3.693 9.554 1.445z" fill="#545454"/></g><g filter="url(#bm)"><path d="M246.195 218.304c2.522-2.467 1.921-7.174-1.344-10.512-3.265-3.339-7.956-4.046-10.479-1.579-2.522 2.467-1.921 7.174 1.344 10.513 3.265 3.338 7.956 4.045 10.479 1.578z" fill="#545454"/></g><g filter="url(#bn)"><path d="M270.761 230.026c2.84-2.778 2.16-8.08-1.519-11.842-3.679-3.762-8.964-4.56-11.804-1.783-2.84 2.778-2.16 8.08 1.519 11.842 3.679 3.762 8.963 4.561 11.804 1.783z" fill="#545454"/></g><path d="M211.281 199.862c.552 1.183.836 2.319 1.246 3.502 1.151 1.767 3.044 2.697 4.527 4.196-2.177-.047-3.817-2.224-4.748-4.07-.836-.994-1.435-2.287-1.104-3.628h.079z" fill="#000" opacity=".2"/><path d="M223.853 204.058c-.9-3.313-3.076-5.805-5.805-7.73 3.312.931 6.057 4.212 5.805 7.73zM246.946 214.122c-.899-3.312-3.076-5.805-5.805-7.729 3.312.93 6.057 4.212 5.805 7.729zM271.963 226.206c-.978-4.401-4.006-7.903-7.729-10.301 4.322 1.42 7.871 5.648 7.729 10.301z" fill="#fff" opacity=".38"/><path d="M233.333 210.147c.489 1.215.725 2.351 1.072 3.566 1.057 1.814 2.903 2.855 4.307 4.432-2.177-.157-3.691-2.413-4.527-4.306-.789-1.041-1.31-2.351-.915-3.692h.079-.016zM256.221 220.575c.489 1.451.804 2.823 1.262 4.259 1.246 2.177 3.391 3.502 5.142 5.269-2.539-.347-4.353-2.903-5.379-5.143-.836-1.183-1.656-3.029-1.025-4.37v-.015z" fill="#000" opacity=".2"/><path opacity=".12" d="M111.368 67.515c-6.877-4.812-12.462-11.406-16.026-19.01 6.893 4.796 12.445 11.406 16.026 19.01zM114.176 159.941c-6.294 5.569-14.008 9.45-22.226 11.138 6.278-5.585 14.008-9.434 22.226-11.138zM99.443 114.746c-8.187 1.861-16.815 1.561-24.844-.915 8.186-1.877 16.815-1.546 24.844.915z" fill="#666"/><defs><linearGradient id="V" x1="238.08" y1="406.137" x2="294.79" y2="406.137" gradientUnits="userSpaceOnUse"><stop stop-color="#010002"/><stop offset=".03" stop-color="#030005"/><stop offset=".19" stop-color="#0F0318"/><stop offset=".36" stop-color="#160524"/><stop offset=".54" stop-color="#190628"/><stop offset=".7" stop-color="#0B0212"/><stop offset=".86" stop-color="#020004"/><stop offset="1"/></linearGradient><linearGradient id="bb" x1="128.386" y1="442.544" x2="138.035" y2="501.717" gradientUnits="userSpaceOnUse"><stop/><stop offset=".7" stop-color="#1B2B69"/><stop offset="1" stop-color="#3746A3"/></linearGradient><linearGradient id="ba" x1="162.302" y1="476.77" x2="159.678" y2="474.398" gradientUnits="userSpaceOnUse"><stop/><stop offset=".7" stop-color="#1B2B69"/><stop offset="1" stop-color="#3746A3"/></linearGradient><linearGradient id="aZ" x1="164.268" y1="470.966" x2="158.89" y2="478.921" gradientUnits="userSpaceOnUse"><stop stop-color="#FFF800"/><stop offset="1" stop-color="#30F9FC"/></linearGradient><linearGradient id="aY" x1="159.916" y1="473.404" x2="166.116" y2="482.077" gradientUnits="userSpaceOnUse"><stop stop-color="#696969"/><stop offset=".24" stop-color="#9C9C9C"/><stop offset=".48" stop-color="#C6C6C6"/><stop offset=".69" stop-color="#E5E5E5"/><stop offset=".87" stop-color="#F8F8F8"/><stop offset="1" stop-color="#fff"/></linearGradient><linearGradient id="aX" x1="109.062" y1="526.345" x2="102.281" y2="513.632" gradientUnits="userSpaceOnUse"><stop/><stop offset=".7" stop-color="#1B2B69"/><stop offset="1" stop-color="#3746A3"/></linearGradient><linearGradient id="aW" x1="180.487" y1="486.759" x2="169.934" y2="475.773" gradientUnits="userSpaceOnUse"><stop/><stop offset=".7" stop-color="#1B2B69"/><stop offset="1" stop-color="#3746A3"/></linearGradient><linearGradient id="aV" x1="80.92" y1="505.981" x2="96.428" y2="459.544" gradientUnits="userSpaceOnUse"><stop/><stop offset=".7" stop-color="#1B2B69"/><stop offset="1" stop-color="#3746A3"/></linearGradient><linearGradient id="aU" x1="72.636" y1="503.206" x2="88.131" y2="456.768" gradientUnits="userSpaceOnUse"><stop/><stop offset=".7" stop-color="#1B2B69"/><stop offset="1" stop-color="#3746A3"/></linearGradient><linearGradient id="aT" x1="184.629" y1="462.687" x2="204.519" y2="467.233" gradientUnits="userSpaceOnUse"><stop stop-color="#fff"/><stop offset="1" stop-color="#8B949E"/></linearGradient><linearGradient id="aS" x1="186.289" y1="463.388" x2="205.63" y2="467.81" gradientUnits="userSpaceOnUse"><stop stop-color="#fff"/><stop offset="1" stop-color="#8B949E"/></linearGradient><linearGradient id="aR" x1="191.692" y1="464.679" x2="173.473" y2="459.065" gradientUnits="userSpaceOnUse"><stop stop-color="#fff"/><stop offset="1" stop-color="#8B949E"/></linearGradient><linearGradient id="a" x1="190.288" y1="15.21" x2="345.807" y2="284.084" gradientUnits="userSpaceOnUse"><stop offset=".06" stop-color="#200041"/><stop offset=".26" stop-color="#210143"/><stop offset=".36" stop-color="#25084A"/><stop offset=".43" stop-color="#2C1357"/><stop offset=".47" stop-color="#311B61"/><stop offset=".48" stop-color="#351F65"/><stop offset=".5" stop-color="#422C72"/><stop offset=".51" stop-color="#574188"/><stop offset=".52" stop-color="#755FA6"/><stop offset=".53" stop-color="#8770B8"/><stop offset=".54" stop-color="#7D66AE"/><stop offset=".56" stop-color="#5C458C"/><stop offset=".59" stop-color="#442E74"/><stop offset=".61" stop-color="#351F66"/><stop offset=".63" stop-color="#311B61"/><stop offset=".67" stop-color="#2A1054"/><stop offset=".75" stop-color="#220446"/><stop offset=".81" stop-color="#200041"/><stop offset="1" stop-color="#200041"/></linearGradient><linearGradient id="aQ" x1="126.109" y1="499.332" x2="121.292" y2="471.112" gradientUnits="userSpaceOnUse"><stop stop-color="#25054D"/><stop offset="1" stop-color="#45108A"/></linearGradient><linearGradient id="aP" x1="150.562" y1="495.154" x2="145.731" y2="466.935" gradientUnits="userSpaceOnUse"><stop stop-color="#25054D"/><stop offset="1" stop-color="#45108A"/></linearGradient><linearGradient id="d" x1="396.809" y1="263.627" x2="-79.913" y2="114.673" gradientUnits="userSpaceOnUse"><stop offset=".19" stop-color="#3D065F"/><stop offset=".93" stop-color="#3D065F"/></linearGradient><linearGradient id="e" x1="402.41" y1="447.122" x2="161.122" y2="-61.788" gradientUnits="userSpaceOnUse"><stop stop-color="#311B61"/><stop offset=".2" stop-color="#290E52"/><stop offset=".49" stop-color="#200041"/><stop offset="1" stop-color="#0F001F"/></linearGradient><linearGradient id="f" x1="225.111" y1="233.782" x2="378.143" y2="233.782" gradientUnits="userSpaceOnUse"><stop stop-color="#311B61"/><stop offset=".2" stop-color="#290E52"/><stop offset=".49" stop-color="#200041"/><stop offset="1" stop-color="#0F001F"/></linearGradient><linearGradient id="g" x1="332.51" y1="-93.302" x2="36.002" y2="85.663" gradientUnits="userSpaceOnUse"><stop stop-color="#FFF800"/><stop offset="1" stop-color="#30F9FC"/></linearGradient><linearGradient id="h" x1="4438.96" y1="-11286.2" x2="4425.2" y2="-11246.5" gradientUnits="userSpaceOnUse"><stop stop-color="#311B61"/><stop offset=".2" stop-color="#290E52"/><stop offset=".49" stop-color="#200041"/><stop offset="1" stop-color="#0F001F"/></linearGradient><linearGradient id="i" x1="400.296" y1="187.229" x2="381.425" y2="186.425" gradientUnits="userSpaceOnUse"><stop stop-color="#3D065F"/><stop offset="1" stop-color="#5F27BD"/></linearGradient><linearGradient id="aO" x1="151.835" y1="489.086" x2="141.394" y2="521.216" gradientUnits="userSpaceOnUse"><stop stop-color="#FFF800"/><stop offset="1" stop-color="#30F9FC"/></linearGradient><linearGradient id="k" x1="401" y1="323.5" x2="201" y2="462.5" gradientUnits="userSpaceOnUse"><stop stop-color="#310070"/><stop offset="1" stop-color="#310070" stop-opacity="0"/></linearGradient><linearGradient id="l" x1="291" y1="400.5" x2="104" y2="507.5" gradientUnits="userSpaceOnUse"><stop stop-color="#666"/><stop offset="1" stop-color="#666" stop-opacity="0"/></linearGradient><linearGradient id="aN" x1="108.568" y1="481.758" x2="165.278" y2="481.758" gradientUnits="userSpaceOnUse"><stop stop-color="#010002"/><stop offset=".03" stop-color="#030005"/><stop offset=".19" stop-color="#0F0318"/><stop offset=".36" stop-color="#160524"/><stop offset=".54" stop-color="#190628"/><stop offset=".7" stop-color="#0B0212"/><stop offset=".86" stop-color="#020004"/><stop offset="1"/></linearGradient><linearGradient id="aM" x1="107.197" y1="481.758" x2="165.922" y2="481.758" gradientUnits="userSpaceOnUse"><stop stop-color="#25054D"/><stop offset="1" stop-color="#1B2B69"/></linearGradient><linearGradient id="o" x1="365.306" y1="49.91" x2="337.466" y2="102.816" gradientUnits="userSpaceOnUse"><stop stop-color="#25054D"/><stop offset="1" stop-color="#45108A"/></linearGradient><linearGradient id="p" x1="387.875" y1="185.557" x2="405.045" y2="17.925" gradientUnits="userSpaceOnUse"><stop offset=".03" stop-color="#7C1DC9"/><stop offset=".21" stop-color="#6E41D1"/><stop offset=".62" stop-color="#4C9BE8"/><stop offset="1" stop-color="#2AF6FF"/></linearGradient><linearGradient id="aL" x1="49.857" y1="525.836" x2="80.495" y2="525.836" gradientUnits="userSpaceOnUse"><stop stop-color="#100221"/><stop offset="1" stop-color="#10054D"/></linearGradient><linearGradient id="aK" x1="61.637" y1="521.536" x2="64.472" y2="511.137" gradientUnits="userSpaceOnUse"><stop stop-color="#fff"/><stop offset="1" stop-color="#8B949E"/></linearGradient><linearGradient id="s" x1="232.91" y1="440.281" x2="248.901" y2="440.281" gradientUnits="userSpaceOnUse"><stop stop-color="#25054D"/><stop offset="1" stop-color="#1B2B69"/></linearGradient><linearGradient id="t" x1="304.39" y1="399.748" x2="320.381" y2="399.748" gradientUnits="userSpaceOnUse"><stop stop-color="#25054D"/><stop offset="1" stop-color="#1B2B69"/></linearGradient><linearGradient id="u" x1="181.668" y1="467.169" x2="318.568" y2="391.983" gradientUnits="userSpaceOnUse"><stop stop-color="#16032E"/><stop offset="1" stop-color="#16032E" stop-opacity="0"/></linearGradient><linearGradient id="v" x1="298.026" y1="418.544" x2="312.956" y2="398.579" gradientUnits="userSpaceOnUse"><stop stop-color="#010002"/><stop offset=".03" stop-color="#030005"/><stop offset=".19" stop-color="#0F0318"/><stop offset=".36" stop-color="#160524"/><stop offset=".54" stop-color="#190628"/><stop offset=".7" stop-color="#0B0212"/><stop offset=".86" stop-color="#020004"/><stop offset="1"/></linearGradient><linearGradient id="w" x1="317.954" y1="411.179" x2="300.989" y2="411.179" gradientUnits="userSpaceOnUse"><stop stop-color="#100221"/><stop offset="1" stop-color="#10054D"/></linearGradient><linearGradient id="aJ" x1="61.829" y1="521.879" x2="64.678" y2="511.48" gradientUnits="userSpaceOnUse"><stop stop-color="#fff"/><stop offset="1" stop-color="#8B949E"/></linearGradient><linearGradient id="y" x1="315.718" y1="411.317" x2="302.648" y2="411.317" gradientUnits="userSpaceOnUse"><stop stop-color="#BCBEC0"/><stop offset="1" stop-color="#E6E7E8"/></linearGradient><linearGradient id="z" x1="316.129" y1="411.482" x2="303.06" y2="411.482" gradientUnits="userSpaceOnUse"><stop stop-color="#BCBEC0"/><stop offset="1" stop-color="#E6E7E8"/></linearGradient><linearGradient id="A" x1="226.738" y1="458.679" x2="241.654" y2="438.714" gradientUnits="userSpaceOnUse"><stop stop-color="#010002"/><stop offset=".03" stop-color="#030005"/><stop offset=".19" stop-color="#0F0318"/><stop offset=".36" stop-color="#160524"/><stop offset=".54" stop-color="#190628"/><stop offset=".7" stop-color="#0B0212"/><stop offset=".86" stop-color="#020004"/><stop offset="1"/></linearGradient><linearGradient id="B" x1="246.666" y1="451.3" x2="229.687" y2="451.3" gradientUnits="userSpaceOnUse"><stop stop-color="#100221"/><stop offset="1" stop-color="#10054D"/></linearGradient><linearGradient id="aE" x1="137.374" y1="465.972" x2="113.224" y2="482.314" gradientUnits="userSpaceOnUse"><stop stop-color="#FFF800"/><stop offset="1" stop-color="#30F9FC"/></linearGradient><linearGradient id="D" x1="244.43" y1="451.438" x2="231.36" y2="451.438" gradientUnits="userSpaceOnUse"><stop stop-color="#BCBEC0"/><stop offset="1" stop-color="#E6E7E8"/></linearGradient><linearGradient id="E" x1="244.828" y1="451.603" x2="231.758" y2="451.603" gradientUnits="userSpaceOnUse"><stop stop-color="#BCBEC0"/><stop offset="1" stop-color="#E6E7E8"/></linearGradient><linearGradient id="F" x1="281.105" y1="347.212" x2="237.647" y2="471.968" gradientUnits="userSpaceOnUse"><stop stop-color="#FFF800"/><stop offset="1" stop-color="#30F9FC"/></linearGradient><linearGradient id="G" x1="301.513" y1="365.331" x2="293.917" y2="396.835" gradientUnits="userSpaceOnUse"><stop stop-color="#FFF800"/><stop offset="1" stop-color="#30F9FC"/></linearGradient><linearGradient id="H" x1="252.809" y1="365.86" x2="235.646" y2="420.804" gradientUnits="userSpaceOnUse"><stop stop-color="#FFF800"/><stop offset="1" stop-color="#30F9FC"/></linearGradient><linearGradient id="I" x1="191.204" y1="415.013" x2="233.129" y2="415.013" gradientUnits="userSpaceOnUse"><stop stop-color="#010002"/><stop offset=".03" stop-color="#030005"/><stop offset=".19" stop-color="#0F0318"/><stop offset=".36" stop-color="#160524"/><stop offset=".54" stop-color="#190628"/><stop offset=".7" stop-color="#0B0212"/><stop offset=".86" stop-color="#020004"/><stop offset="1"/></linearGradient><linearGradient id="J" x1="191.917" y1="415.013" x2="232.444" y2="415.013" gradientUnits="userSpaceOnUse"><stop stop-color="#25054D"/><stop offset="1" stop-color="#45108A"/></linearGradient><linearGradient id="K" x1="247.612" y1="384.029" x2="295.681" y2="384.029" gradientUnits="userSpaceOnUse"><stop stop-color="#010002"/><stop offset=".03" stop-color="#030005"/><stop offset=".19" stop-color="#0F0318"/><stop offset=".36" stop-color="#160524"/><stop offset=".54" stop-color="#190628"/><stop offset=".7" stop-color="#0B0212"/><stop offset=".86" stop-color="#020004"/><stop offset="1"/></linearGradient><linearGradient id="L" x1="307.407" y1="396.079" x2="253.193" y2="374.467" gradientUnits="userSpaceOnUse"><stop stop-color="#25054D"/><stop offset="1" stop-color="#45108A"/></linearGradient><linearGradient id="M" x1="266.886" y1="390.351" x2="242.736" y2="406.693" gradientUnits="userSpaceOnUse"><stop stop-color="#FFF800"/><stop offset="1" stop-color="#30F9FC"/></linearGradient><linearGradient id="aD" x1="177.895" y1="471.701" x2="123.681" y2="450.088" gradientUnits="userSpaceOnUse"><stop stop-color="#25054D"/><stop offset="1" stop-color="#45108A"/></linearGradient><linearGradient id="aC" x1="118.1" y1="459.65" x2="166.169" y2="459.65" gradientUnits="userSpaceOnUse"><stop stop-color="#010002"/><stop offset=".03" stop-color="#030005"/><stop offset=".19" stop-color="#0F0318"/><stop offset=".36" stop-color="#160524"/><stop offset=".54" stop-color="#190628"/><stop offset=".7" stop-color="#0B0212"/><stop offset=".86" stop-color="#020004"/><stop offset="1"/></linearGradient><linearGradient id="aB" x1="62.405" y1="490.634" x2="102.932" y2="490.634" gradientUnits="userSpaceOnUse"><stop stop-color="#25054D"/><stop offset="1" stop-color="#45108A"/></linearGradient><linearGradient id="aA" x1="61.692" y1="490.634" x2="103.618" y2="490.634" gradientUnits="userSpaceOnUse"><stop stop-color="#010002"/><stop offset=".03" stop-color="#030005"/><stop offset=".19" stop-color="#0F0318"/><stop offset=".36" stop-color="#160524"/><stop offset=".54" stop-color="#190628"/><stop offset=".7" stop-color="#0B0212"/><stop offset=".86" stop-color="#020004"/><stop offset="1"/></linearGradient><linearGradient id="R" x1="191.341" y1="446.258" x2="194.19" y2="435.859" gradientUnits="userSpaceOnUse"><stop stop-color="#fff"/><stop offset="1" stop-color="#8B949E"/></linearGradient><linearGradient id="S" x1="191.149" y1="445.914" x2="193.984" y2="435.516" gradientUnits="userSpaceOnUse"><stop stop-color="#fff"/><stop offset="1" stop-color="#8B949E"/></linearGradient><linearGradient id="T" x1="179.368" y1="450.215" x2="210.007" y2="450.215" gradientUnits="userSpaceOnUse"><stop stop-color="#100221"/><stop offset="1" stop-color="#10054D"/></linearGradient><linearGradient id="U" x1="236.709" y1="406.137" x2="295.434" y2="406.137" gradientUnits="userSpaceOnUse"><stop stop-color="#25054D"/><stop offset="1" stop-color="#1B2B69"/></linearGradient><linearGradient id="az" x1="123.297" y1="441.481" x2="106.134" y2="496.425" gradientUnits="userSpaceOnUse"><stop stop-color="#FFF800"/><stop offset="1" stop-color="#30F9FC"/></linearGradient><linearGradient id="W" x1="281.347" y1="413.465" x2="270.906" y2="445.594" gradientUnits="userSpaceOnUse"><stop stop-color="#FFF800"/><stop offset="1" stop-color="#30F9FC"/></linearGradient><linearGradient id="X" x1="280.074" y1="419.533" x2="275.243" y2="391.314" gradientUnits="userSpaceOnUse"><stop stop-color="#25054D"/><stop offset="1" stop-color="#45108A"/></linearGradient><linearGradient id="Y" x1="255.621" y1="423.711" x2="250.804" y2="395.491" gradientUnits="userSpaceOnUse"><stop stop-color="#25054D"/><stop offset="1" stop-color="#45108A"/></linearGradient><linearGradient id="Z" x1="321.204" y1="389.058" x2="302.985" y2="383.444" gradientUnits="userSpaceOnUse"><stop stop-color="#fff"/><stop offset="1" stop-color="#8B949E"/></linearGradient><linearGradient id="aa" x1="315.8" y1="387.767" x2="335.141" y2="392.189" gradientUnits="userSpaceOnUse"><stop stop-color="#fff"/><stop offset="1" stop-color="#8B949E"/></linearGradient><linearGradient id="ab" x1="314.141" y1="387.066" x2="334.031" y2="391.611" gradientUnits="userSpaceOnUse"><stop stop-color="#fff"/><stop offset="1" stop-color="#8B949E"/></linearGradient><linearGradient id="ac" x1="202.148" y1="427.585" x2="217.643" y2="381.147" gradientUnits="userSpaceOnUse"><stop/><stop offset=".7" stop-color="#1B2B69"/><stop offset="1" stop-color="#3746A3"/></linearGradient><linearGradient id="ad" x1="210.432" y1="430.36" x2="225.94" y2="383.922" gradientUnits="userSpaceOnUse"><stop/><stop offset=".7" stop-color="#1B2B69"/><stop offset="1" stop-color="#3746A3"/></linearGradient><linearGradient id="ae" x1="309.999" y1="411.138" x2="299.446" y2="400.152" gradientUnits="userSpaceOnUse"><stop/><stop offset=".7" stop-color="#1B2B69"/><stop offset="1" stop-color="#3746A3"/></linearGradient><linearGradient id="af" x1="238.574" y1="450.724" x2="231.793" y2="438.011" gradientUnits="userSpaceOnUse"><stop/><stop offset=".7" stop-color="#1B2B69"/><stop offset="1" stop-color="#3746A3"/></linearGradient><linearGradient id="ag" x1="289.427" y1="397.783" x2="295.628" y2="406.456" gradientUnits="userSpaceOnUse"><stop stop-color="#696969"/><stop offset=".24" stop-color="#9C9C9C"/><stop offset=".48" stop-color="#C6C6C6"/><stop offset=".69" stop-color="#E5E5E5"/><stop offset=".87" stop-color="#F8F8F8"/><stop offset="1" stop-color="#fff"/></linearGradient><linearGradient id="ah" x1="293.779" y1="395.345" x2="288.402" y2="403.3" gradientUnits="userSpaceOnUse"><stop stop-color="#FFF800"/><stop offset="1" stop-color="#30F9FC"/></linearGradient><linearGradient id="ai" x1="291.814" y1="401.149" x2="289.19" y2="398.777" gradientUnits="userSpaceOnUse"><stop/><stop offset=".7" stop-color="#1B2B69"/><stop offset="1" stop-color="#3746A3"/></linearGradient><linearGradient id="aj" x1="257.898" y1="366.923" x2="267.547" y2="426.096" gradientUnits="userSpaceOnUse"><stop/><stop offset=".7" stop-color="#1B2B69"/><stop offset="1" stop-color="#3746A3"/></linearGradient><linearGradient id="ak" x1="103.398" y1="515.902" x2="119.389" y2="515.902" gradientUnits="userSpaceOnUse"><stop stop-color="#25054D"/><stop offset="1" stop-color="#1B2B69"/></linearGradient><linearGradient id="al" x1="174.878" y1="475.369" x2="190.869" y2="475.369" gradientUnits="userSpaceOnUse"><stop stop-color="#25054D"/><stop offset="1" stop-color="#1B2B69"/></linearGradient><linearGradient id="am" x1="52.156" y1="542.79" x2="189.056" y2="467.604" gradientUnits="userSpaceOnUse"><stop stop-color="#16032E"/><stop offset="1" stop-color="#16032E" stop-opacity="0"/></linearGradient><linearGradient id="an" x1="168.514" y1="494.165" x2="183.444" y2="474.2" gradientUnits="userSpaceOnUse"><stop stop-color="#010002"/><stop offset=".03" stop-color="#030005"/><stop offset=".19" stop-color="#0F0318"/><stop offset=".36" stop-color="#160524"/><stop offset=".54" stop-color="#190628"/><stop offset=".7" stop-color="#0B0212"/><stop offset=".86" stop-color="#020004"/><stop offset="1"/></linearGradient><linearGradient id="ao" x1="188.442" y1="486.8" x2="171.477" y2="486.8" gradientUnits="userSpaceOnUse"><stop stop-color="#100221"/><stop offset="1" stop-color="#10054D"/></linearGradient><linearGradient id="ay" x1="172.001" y1="440.952" x2="164.405" y2="472.456" gradientUnits="userSpaceOnUse"><stop stop-color="#FFF800"/><stop offset="1" stop-color="#30F9FC"/></linearGradient><linearGradient id="aq" x1="186.206" y1="486.938" x2="173.136" y2="486.938" gradientUnits="userSpaceOnUse"><stop stop-color="#BCBEC0"/><stop offset="1" stop-color="#E6E7E8"/></linearGradient><linearGradient id="ar" x1="186.618" y1="487.103" x2="173.548" y2="487.103" gradientUnits="userSpaceOnUse"><stop stop-color="#BCBEC0"/><stop offset="1" stop-color="#E6E7E8"/></linearGradient><linearGradient id="as" x1="97.227" y1="534.3" x2="112.142" y2="514.335" gradientUnits="userSpaceOnUse"><stop stop-color="#010002"/><stop offset=".03" stop-color="#030005"/><stop offset=".19" stop-color="#0F0318"/><stop offset=".36" stop-color="#160524"/><stop offset=".54" stop-color="#190628"/><stop offset=".7" stop-color="#0B0212"/><stop offset=".86" stop-color="#020004"/><stop offset="1"/></linearGradient><linearGradient id="at" x1="117.154" y1="526.921" x2="100.175" y2="526.921" gradientUnits="userSpaceOnUse"><stop stop-color="#100221"/><stop offset="1" stop-color="#10054D"/></linearGradient><linearGradient id="ax" x1="151.593" y1="422.833" x2="108.136" y2="547.589" gradientUnits="userSpaceOnUse"><stop stop-color="#FFF800"/><stop offset="1" stop-color="#30F9FC"/></linearGradient><linearGradient id="av" x1="114.918" y1="527.059" x2="101.848" y2="527.059" gradientUnits="userSpaceOnUse"><stop stop-color="#BCBEC0"/><stop offset="1" stop-color="#E6E7E8"/></linearGradient><linearGradient id="aw" x1="115.316" y1="527.224" x2="102.246" y2="527.224" gradientUnits="userSpaceOnUse"><stop stop-color="#BCBEC0"/><stop offset="1" stop-color="#E6E7E8"/></linearGradient><radialGradient id="n" cx="0" cy="0" r="1" gradientUnits="userSpaceOnUse" gradientTransform="matrix(315.486 0 0 316.074 404.082 326.305)"><stop stop-color="#7C1DC9"/><stop offset=".25" stop-color="#5F169A"/><stop offset=".82" stop-color="#170526"/><stop offset="1"/></radialGradient><radialGradient id="au" cx="0" cy="0" r="1" gradientUnits="userSpaceOnUse" gradientTransform="matrix(-9.16471 0 0 -9.18184 105.212 526.717)"><stop stop-color="#fff"/><stop offset="1"/></radialGradient><radialGradient id="b" cx="0" cy="0" r="1" gradientUnits="userSpaceOnUse" gradientTransform="matrix(290.208 0 0 290.75 432.752 124.741)"><stop stop-color="#711F56"/><stop offset=".16" stop-color="#6B1D51"/><stop offset=".36" stop-color="#5C1946"/><stop offset=".58" stop-color="#421232"/><stop offset=".82" stop-color="#1F0818"/><stop offset="1"/></radialGradient><radialGradient id="Q" cx="0" cy="0" r="1" gradientUnits="userSpaceOnUse" gradientTransform="matrix(4.51207 0 0 4.52049 176.79 425.73)"><stop stop-color="#FFD3F1"/><stop offset="1" stop-color="#D30033"/></radialGradient><radialGradient id="P" cx="0" cy="0" r="1" gradientUnits="userSpaceOnUse" gradientTransform="matrix(4.55322 0 0 4.56172 176.639 425.716)"><stop stop-color="#D30033"/><stop offset="1" stop-color="#D30033"/></radialGradient><radialGradient id="O" cx="0" cy="0" r="1" gradientUnits="userSpaceOnUse" gradientTransform="matrix(4.70407 0 0 4.71287 215.424 443.826)"><stop stop-color="#FFCBEF"/><stop offset="1" stop-color="#D30033"/></radialGradient><radialGradient id="N" cx="0" cy="0" r="1" gradientUnits="userSpaceOnUse" gradientTransform="matrix(4.32007 0 0 4.32814 215.465 443.854)"><stop stop-color="#fff"/><stop offset="1" stop-color="#D30033"/></radialGradient><radialGradient id="C" cx="0" cy="0" r="1" gradientUnits="userSpaceOnUse" gradientTransform="matrix(-9.16471 0 0 -9.18184 234.724 451.096)"><stop stop-color="#fff"/><stop offset="1"/></radialGradient><radialGradient id="aF" cx="0" cy="0" r="1" gradientUnits="userSpaceOnUse" gradientTransform="matrix(4.32007 0 0 4.32814 85.953 519.475)"><stop stop-color="#fff"/><stop offset="1" stop-color="#D30033"/></radialGradient><radialGradient id="aG" cx="0" cy="0" r="1" gradientUnits="userSpaceOnUse" gradientTransform="matrix(4.70407 0 0 4.71287 85.912 519.446)"><stop stop-color="#FFCBEF"/><stop offset="1" stop-color="#D30033"/></radialGradient><radialGradient id="aH" cx="0" cy="0" r="1" gradientUnits="userSpaceOnUse" gradientTransform="matrix(4.55322 0 0 4.56172 47.127 501.337)"><stop stop-color="#D30033"/><stop offset="1" stop-color="#D30033"/></radialGradient><radialGradient id="aI" cx="0" cy="0" r="1" gradientUnits="userSpaceOnUse" gradientTransform="matrix(4.51207 0 0 4.52049 47.278 501.351)"><stop stop-color="#FFD3F1"/><stop offset="1" stop-color="#D30033"/></radialGradient><radialGradient id="x" cx="0" cy="0" r="1" gradientUnits="userSpaceOnUse" gradientTransform="matrix(-9.16471 0 0 -9.18183 306.033 410.954)"><stop stop-color="#fff"/><stop offset="1"/></radialGradient><radialGradient id="r" cx="0" cy="0" r="1" gradientUnits="userSpaceOnUse" gradientTransform="matrix(194.465 0 0 194.83 167.774 433.354)"><stop stop-color="#7C1DC9"/><stop offset=".25" stop-color="#5F169A"/><stop offset=".82" stop-color="#170526"/><stop offset="1"/></radialGradient><radialGradient id="q" cx="0" cy="0" r="1" gradientUnits="userSpaceOnUse" gradientTransform="matrix(194.45 0 0 194.812 167.773 433.354)"><stop stop-color="#7C1DC9"/><stop offset=".25" stop-color="#5F169A"/><stop offset=".82" stop-color="#170526"/><stop offset="1"/></radialGradient><radialGradient id="ap" cx="0" cy="0" r="1" gradientUnits="userSpaceOnUse" gradientTransform="matrix(-9.16471 0 0 -9.18183 176.521 486.575)"><stop stop-color="#fff"/><stop offset="1"/></radialGradient><radialGradient id="m" cx="0" cy="0" r="1" gradientUnits="userSpaceOnUse" gradientTransform="matrix(315.485 0 0 316.075 404.083 326.289)"><stop stop-color="#7C1DC9"/><stop offset=".25" stop-color="#5F169A"/><stop offset=".82" stop-color="#170526"/><stop offset="1"/></radialGradient><radialGradient id="j" cx="0" cy="0" r="1" gradientUnits="userSpaceOnUse" gradientTransform="matrix(11.0921 0 0 11.1128 390.798 179.167)"><stop stop-color="#711F56"/><stop offset=".16" stop-color="#6B1D51"/><stop offset=".36" stop-color="#5C1946"/><stop offset=".58" stop-color="#421232"/><stop offset=".82" stop-color="#1F0818"/><stop offset="1"/></radialGradient><radialGradient id="c" cx="0" cy="0" r="1" gradientUnits="userSpaceOnUse" gradientTransform="matrix(171.083 0 0 171.402 383.461 104.08)"><stop stop-color="#AF8AFC"/><stop offset="1" stop-color="#10054D"/></radialGradient><filter id="bi" x="340.213" y="191.555" width="21.419" height="20.497" filterUnits="userSpaceOnUse" color-interpolation-filters="sRGB"><feFlood flood-opacity="0" result="BackgroundImageFix"/><feColorMatrix in="SourceAlpha" values="0 0 0 0 0 0 0 0 0 0 0 0 0 0 0 0 0 0 127 0" result="hardAlpha"/><feOffset dx="5" dy="1"/><feGaussianBlur stdDeviation="2"/><feComposite in2="hardAlpha" operator="out"/><feColorMatrix values="0 0 0 0 0 0 0 0 0 0 0 0 0 0 0 0 0 0 0.1 0"/><feBlend in2="BackgroundImageFix" result="effect1_dropShadow_128_384"/><feBlend in="SourceGraphic" in2="effect1_dropShadow_128_384" result="shape"/></filter><filter id="bd" x="442.687" y="176.188" width="9.573" height="9.608" filterUnits="userSpaceOnUse" color-interpolation-filters="sRGB"><feFlood flood-opacity="0" result="BackgroundImageFix"/><feColorMatrix in="SourceAlpha" values="0 0 0 0 0 0 0 0 0 0 0 0 0 0 0 0 0 0 127 0" result="hardAlpha"/><feOffset dx="2"/><feGaussianBlur stdDeviation="1"/><feComposite in2="hardAlpha" operator="out"/><feColorMatrix values="0 0 0 0 0 0 0 0 0 0 0 0 0 0 0 0 0 0 0.14 0"/><feBlend in2="BackgroundImageFix" result="effect1_dropShadow_128_384"/><feBlend in="SourceGraphic" in2="effect1_dropShadow_128_384" result="shape"/></filter><filter id="bm" x="232.813" y="199.742" width="23.941" height="23.034" filterUnits="userSpaceOnUse" color-interpolation-filters="sRGB"><feFlood flood-opacity="0" result="BackgroundImageFix"/><feColorMatrix in="SourceAlpha" values="0 0 0 0 0 0 0 0 0 0 0 0 0 0 0 0 0 0 127 0" result="hardAlpha"/><feOffset dx="5" dy="-1"/><feGaussianBlur stdDeviation="2"/><feComposite in2="hardAlpha" operator="out"/><feColorMatrix values="0 0 0 0 0 0 0 0 0 0 0 0 0 0 0 0 0 0 0.07 0"/><feBlend in2="BackgroundImageFix" result="effect1_dropShadow_128_384"/><feBlend in="SourceGraphic" in2="effect1_dropShadow_128_384" result="shape"/></filter><filter id="bl" x="210.755" y="190.102" width="22.625" height="21.709" filterUnits="userSpaceOnUse" color-interpolation-filters="sRGB"><feFlood flood-opacity="0" result="BackgroundImageFix"/><feColorMatrix in="SourceAlpha" values="0 0 0 0 0 0 0 0 0 0 0 0 0 0 0 0 0 0 127 0" result="hardAlpha"/><feOffset dx="5" dy="-1"/><feGaussianBlur stdDeviation="2"/><feComposite in2="hardAlpha" operator="out"/><feColorMatrix values="0 0 0 0 0 0 0 0 0 0 0 0 0 0 0 0 0 0 0.07 0"/><feBlend in2="BackgroundImageFix" result="effect1_dropShadow_128_384"/><feBlend in="SourceGraphic" in2="effect1_dropShadow_128_384" result="shape"/></filter><filter id="bk" x="381.145" y="209.459" width="24.324" height="23.419" filterUnits="userSpaceOnUse" color-interpolation-filters="sRGB"><feFlood flood-opacity="0" result="BackgroundImageFix"/><feColorMatrix in="SourceAlpha" values="0 0 0 0 0 0 0 0 0 0 0 0 0 0 0 0 0 0 127 0" result="hardAlpha"/><feOffset dx="5" dy="1"/><feGaussianBlur stdDeviation="2"/><feComposite in2="hardAlpha" operator="out"/><feColorMatrix values="0 0 0 0 0 0 0 0 0 0 0 0 0 0 0 0 0 0 0.1 0"/><feBlend in2="BackgroundImageFix" result="effect1_dropShadow_128_384"/><feBlend in="SourceGraphic" in2="effect1_dropShadow_128_384" result="shape"/></filter><filter id="bj" x="360.304" y="200.356" width="22.607" height="21.691" filterUnits="userSpaceOnUse" color-interpolation-filters="sRGB"><feFlood flood-opacity="0" result="BackgroundImageFix"/><feColorMatrix in="SourceAlpha" values="0 0 0 0 0 0 0 0 0 0 0 0 0 0 0 0 0 0 127 0" result="hardAlpha"/><feOffset dx="5" dy="1"/><feGaussianBlur stdDeviation="2"/><feComposite in2="hardAlpha" operator="out"/><feColorMatrix values="0 0 0 0 0 0 0 0 0 0 0 0 0 0 0 0 0 0 0.1 0"/><feBlend in2="BackgroundImageFix" result="effect1_dropShadow_128_384"/><feBlend in="SourceGraphic" in2="effect1_dropShadow_128_384" result="shape"/></filter><filter id="bn" x="255.683" y="209.745" width="25.832" height="24.936" filterUnits="userSpaceOnUse" color-interpolation-filters="sRGB"><feFlood flood-opacity="0" result="BackgroundImageFix"/><feColorMatrix in="SourceAlpha" values="0 0 0 0 0 0 0 0 0 0 0 0 0 0 0 0 0 0 127 0" result="hardAlpha"/><feOffset dx="5" dy="-1"/><feGaussianBlur stdDeviation="2"/><feComposite in2="hardAlpha" operator="out"/><feColorMatrix values="0 0 0 0 0 0 0 0 0 0 0 0 0 0 0 0 0 0 0.07 0"/><feBlend in2="BackgroundImageFix" result="effect1_dropShadow_128_384"/><feBlend in="SourceGraphic" in2="effect1_dropShadow_128_384" result="shape"/></filter><filter id="bh" x="174.084" y="125.765" width="20.353" height="20.429" filterUnits="userSpaceOnUse" color-interpolation-filters="sRGB"><feFlood flood-opacity="0" result="BackgroundImageFix"/><feColorMatrix in="SourceAlpha" values="0 0 0 0 0 0 0 0 0 0 0 0 0 0 0 0 0 0 127 0" result="hardAlpha"/><feOffset dx="3" dy="1"/><feGaussianBlur stdDeviation="2"/><feComposite in2="hardAlpha" operator="out"/><feColorMatrix values="0 0 0 0 0 0 0 0 0 0 0 0 0 0 0 0 0 0 0.25 0"/><feBlend in2="BackgroundImageFix" result="effect1_dropShadow_128_384"/><feBlend in="SourceGraphic" in2="effect1_dropShadow_128_384" result="shape"/></filter><filter id="bg" x="157.273" y="118.425" width="18.973" height="19.042" filterUnits="userSpaceOnUse" color-interpolation-filters="sRGB"><feFlood flood-opacity="0" result="BackgroundImageFix"/><feColorMatrix in="SourceAlpha" values="0 0 0 0 0 0 0 0 0 0 0 0 0 0 0 0 0 0 127 0" result="hardAlpha"/><feOffset dx="3" dy="1"/><feGaussianBlur stdDeviation="2"/><feComposite in2="hardAlpha" operator="out"/><feColorMatrix values="0 0 0 0 0 0 0 0 0 0 0 0 0 0 0 0 0 0 0.25 0"/><feBlend in2="BackgroundImageFix" result="effect1_dropShadow_128_384"/><feBlend in="SourceGraphic" in2="effect1_dropShadow_128_384" result="shape"/></filter><filter id="bf" x="141.079" y="111.338" width="18.004" height="18.066" filterUnits="userSpaceOnUse" color-interpolation-filters="sRGB"><feFlood flood-opacity="0" result="BackgroundImageFix"/><feColorMatrix in="SourceAlpha" values="0 0 0 0 0 0 0 0 0 0 0 0 0 0 0 0 0 0 127 0" result="hardAlpha"/><feOffset dx="3" dy="1"/><feGaussianBlur stdDeviation="2"/><feComposite in2="hardAlpha" operator="out"/><feColorMatrix values="0 0 0 0 0 0 0 0 0 0 0 0 0 0 0 0 0 0 0.25 0"/><feBlend in2="BackgroundImageFix" result="effect1_dropShadow_128_384"/><feBlend in="SourceGraphic" in2="effect1_dropShadow_128_384" result="shape"/></filter><filter id="be" x="451.238" y="179.927" width="10.289" height="10.329" filterUnits="userSpaceOnUse" color-interpolation-filters="sRGB"><feFlood flood-opacity="0" result="BackgroundImageFix"/><feColorMatrix in="SourceAlpha" values="0 0 0 0 0 0 0 0 0 0 0 0 0 0 0 0 0 0 127 0" result="hardAlpha"/><feOffset dx="2"/><feGaussianBlur stdDeviation="1"/><feComposite in2="hardAlpha" operator="out"/><feColorMatrix values="0 0 0 0 0 0 0 0 0 0 0 0 0 0 0 0 0 0 0.14 0"/><feBlend in2="BackgroundImageFix" result="effect1_dropShadow_128_384"/><feBlend in="SourceGraphic" in2="effect1_dropShadow_128_384" result="shape"/></filter><filter id="bc" x="434.435" y="172.574" width="9.098" height="9.129" filterUnits="userSpaceOnUse" color-interpolation-filters="sRGB"><feFlood flood-opacity="0" result="BackgroundImageFix"/><feColorMatrix in="SourceAlpha" values="0 0 0 0 0 0 0 0 0 0 0 0 0 0 0 0 0 0 127 0" result="hardAlpha"/><feOffset dx="2"/><feGaussianBlur stdDeviation="1"/><feComposite in2="hardAlpha" operator="out"/><feColorMatrix values="0 0 0 0 0 0 0 0 0 0 0 0 0 0 0 0 0 0 0.14 0"/><feBlend in2="BackgroundImageFix" result="effect1_dropShadow_128_384"/><feBlend in="SourceGraphic" in2="effect1_dropShadow_128_384" result="shape"/></filter></defs></svg>