<svg width="581" height="502" fill="none" xmlns="http://www.w3.org/2000/svg"><path d="m498.481 425.766-5.482-3.155v-6.291c0-.55-.385-1.229-.88-1.504l-2.401-1.375c-.477-.275-.88-.055-.88.495v6.291l-5.482-3.155c-.477-.275-.88-.055-.88.495v2.752c0 .55.385 1.228.88 1.504l5.482 3.154v6.291c0 .55.385 1.229.88 1.504l2.401 1.376c.477.275.88.055.88-.496v-6.291l5.482 3.155c.477.275.88.055.88-.495v-2.751c0-.55-.385-1.229-.88-1.504zM570.494 254.242l-5.481-3.154v-6.291c0-.55-.385-1.229-.88-1.504l-2.402-1.376c-.477-.275-.88-.055-.88.495v6.291l-5.482-3.154c-.476-.275-.88-.055-.88.495v2.751c0 .55.385 1.229.88 1.504l5.482 3.155v6.291c0 .55.385 1.228.88 1.504l2.402 1.375c.476.275.88.055.88-.495v-6.291l5.481 3.155c.477.275.88.055.88-.496v-2.751c0-.55-.385-1.229-.88-1.504zM431.18 70.265l-5.482-3.155v-6.29c0-.551-.385-1.23-.88-1.505l-2.401-1.375c-.477-.275-.88-.055-.88.495v6.29l-5.482-3.154c-.477-.275-.88-.055-.88.495v2.752c0 .55.385 1.228.88 1.504l5.482 3.154v6.291c0 .55.385 1.229.88 1.504l2.401 1.376c.477.275.88.055.88-.496v-6.29l5.482 3.154c.477.275.88.055.88-.495v-2.751c0-.55-.385-1.23-.88-1.504zM164.504 11.849l-5.206-3.008V2.862c0-.532-.367-1.174-.825-1.43L156.199.11c-.458-.257-.825-.055-.825.477v5.979l-5.206-3.008c-.459-.257-.825-.055-.825.477v2.623c0 .531.366 1.173.825 1.43l5.206 3.008v5.98c0 .531.367 1.173.825 1.43l2.274 1.32c.458.257.825.055.825-.477v-5.979l5.206 3.008c.459.257.825.055.825-.477V13.28c0-.532-.366-1.174-.825-1.431zM15.162 241.422l-5.207-3.008v-5.979c0-.532-.367-1.174-.825-1.43l-2.273-1.321c-.459-.257-.825-.055-.825.477v5.979l-5.207-3.008c-.458-.257-.825-.055-.825.477v2.623c0 .532.367 1.174.825 1.43l5.207 3.008v5.979c0 .532.366 1.174.825 1.431l2.273 1.321c.458.256.825.055.825-.477v-5.979l5.207 3.007c.458.257.825.055.825-.476v-2.623c0-.532-.367-1.174-.825-1.431z" fill="#45108A" style="mix-blend-mode:color-dodge"/><g opacity=".05" fill="#000"><path opacity=".09" d="m55.983 250.786 30.11-16.705c1.22-.703 57.741-31.363 58.815-30.763l19.343-9.428c8.763-5.024 21.617-6.699 32.756-6.699 9.672 0 20.025 2.998 26.969 6.988l135.775 76.91 28.994 16.415 164.749 93.325c5.311 3.039 10.229 7.753 12.792 12.363 2.025 3.68 3.265 7.629 3.369 11.826.33 10.833-6.366 21.109-18.414 28.035l-30.11 16.705c-1.219.703-57.741 31.363-58.815 30.763l-19.364 9.428c-8.762 5.024-21.617 6.698-32.756 6.698-9.671 0-20.025-2.997-26.969-6.988L247.452 412.75l-28.994-16.415L53.709 303.01c-5.31-3.06-10.23-7.753-12.792-12.384-2.025-3.68-3.265-7.629-3.368-11.826-.33-10.833 6.365-21.109 18.413-28.035l.02.021z"/><path opacity=".18" d="m58.98 253.164 29.304-16.105c2.459-1.406 55.364-29.089 57.492-27.87l18.785-7.711c7.874-4.528 21.576-4.817 31.578-4.817 8.7 0 19.757 3.7 25.998 7.277l131.786 74.718 28.126 15.96 159.913 90.679c4.774 2.75 10.23 7.649 12.606 11.764 2.046 3.535 3.431 7.256 3.679 11.247.641 10.399-5.704 20.426-17.545 27.249l-29.305 16.105c-2.459 1.406-55.364 29.089-57.492 27.869l-18.786 7.712c-7.873 4.528-21.575 4.817-31.577 4.817-8.7 0-19.757-3.701-25.998-7.277l-131.786-74.718-28.127-15.961-159.912-90.678c-4.774-2.75-10.23-7.65-12.607-11.764-2.045-3.535-3.43-7.257-3.678-11.247-.64-10.399 5.704-20.426 17.545-27.228v-.021z"/><path opacity=".27" d="m61.996 255.521 28.478-15.506c3.679-2.109 52.988-26.815 56.17-24.975l18.207-5.975c7.005-4.011 21.513-2.936 30.42-2.936 7.729 0 19.488 4.383 25.026 7.567l127.798 72.527 27.279 15.485 155.077 88.011c4.257 2.44 10.23 7.567 12.441 11.164 2.067 3.391 3.617 6.864 3.989 10.668.971 9.965-5.022 19.765-16.678 26.443L501.726 453.5c-3.679 2.109-52.988 26.815-56.17 24.975l-18.207 5.975c-7.006 4.011-21.513 2.935-30.42 2.935-7.729 0-19.488-4.382-25.027-7.566l-127.798-72.527-27.279-15.485-155.076-88.011c-4.258-2.44-10.23-7.567-12.441-11.164-2.067-3.391-3.617-6.864-3.989-10.668-.971-9.966 5.022-19.765 16.677-26.443z"/><path opacity=".36" d="m64.993 257.899 27.672-14.907c4.898-2.811 50.59-24.54 54.847-22.101l17.628-4.259c6.138-3.514 21.451-1.054 29.242-1.054 6.779 0 19.199 5.086 24.055 7.877l123.81 70.355 26.432 15.01 150.241 85.365c3.72 2.129 10.271 7.463 12.275 10.565 2.005 3.101 3.803 6.491 4.278 10.089 1.302 9.531-4.36 19.082-15.809 25.657l-27.672 14.906c-4.898 2.812-50.59 24.541-54.847 22.101l-17.628 4.259c-6.138 3.515-21.452 1.055-29.243 1.055-6.778 0-19.198-5.086-24.055-7.877L242.41 404.584l-26.432-15.009-150.24-85.365c-3.72-2.13-10.272-7.464-12.276-10.565-2.005-3.101-3.803-6.492-4.278-10.089-1.302-9.531 4.36-19.083 15.81-25.657z"/><path opacity=".45" d="m67.99 260.276 26.865-14.286c6.138-3.514 48.214-22.245 53.504-19.206l17.05-2.543c5.249-3.019 21.41.827 28.085.827 5.807 0 18.93 5.768 23.104 8.166l119.821 68.164 25.564 14.555 145.384 82.719c3.183 1.819 10.313 7.339 12.09 9.965 2.129 3.121 3.989 6.099 4.588 9.51 1.632 9.097-3.679 18.421-14.921 24.871l-26.866 14.286c-6.137 3.515-48.213 22.246-53.504 19.207l-17.049 2.543c-5.249 3.018-21.41-.827-28.085-.827-5.807 0-18.93-5.768-23.104-8.166l-119.821-68.164-25.564-14.555-145.385-82.719c-3.182-1.84-10.312-7.339-12.09-9.965-2.128-3.122-3.988-6.099-4.587-9.51-1.633-9.097 3.678-18.421 14.92-24.872z"/><path opacity=".55" d="m71.007 262.654 26.039-13.687c7.357-4.218 45.816-19.972 52.181-16.312l16.471-.806c4.381-2.523 21.348 2.708 26.928 2.708 4.836 0 18.661 6.471 22.133 8.456l115.832 65.972 24.717 14.079 140.549 80.073c2.645 1.53 10.374 7.215 11.924 9.365 2.149 2.998 4.174 5.707 4.898 8.911 1.963 8.663-3.018 17.759-14.053 24.086l-26.039 13.686c-7.357 4.218-45.817 19.972-52.182 16.313l-16.47.806c-4.382 2.522-21.348-2.708-26.928-2.708-4.836 0-18.661-6.472-22.133-8.456l-115.833-65.973-24.716-14.079-140.549-80.072c-2.645-1.53-10.374-7.216-11.924-9.366-2.15-2.998-4.175-5.706-4.898-8.911-1.963-8.662 3.017-17.759 14.053-24.085z"/><path opacity=".64" d="m74.004 265.031 25.233-13.087c8.576-4.92 43.439-17.697 50.858-13.438l15.892.909c3.493-2.005 21.307 4.59 25.75 4.59 3.865 0 18.393 7.154 21.162 8.746l111.844 63.801 23.869 13.604 135.713 77.405c2.129 1.22 10.478 7.071 11.759 8.766 2.191 2.895 4.36 5.334 5.208 8.332 2.294 8.228-2.356 17.077-13.185 23.3l-25.233 13.087c-8.577 4.921-43.44 17.698-50.859 13.439l-15.892-.91c-3.493 2.005-21.307-4.59-25.75-4.59-3.864 0-18.392-7.153-21.162-8.745l-111.844-63.802-23.869-13.603-135.713-77.406c-2.128-1.22-10.477-7.071-11.759-8.766-2.19-2.894-4.36-5.334-5.207-8.332-2.294-8.228 2.355-17.077 13.184-23.3z"/><path opacity=".73" d="m77.02 267.409 24.428-12.488c9.816-5.623 41.042-15.423 49.536-10.544l15.313 2.626c2.625-1.509 21.245 6.471 24.593 6.471 2.893 0 18.124 7.856 20.19 9.056l107.856 61.61 23.022 13.149 130.877 74.759c1.591.909 10.849 6.76 11.573 8.166 2.727 2.295 4.546 4.941 5.497 7.753 2.645 7.794-1.674 16.416-12.317 22.515l-24.427 12.487c-9.817 5.623-41.043 15.423-49.536 10.544l-15.314-2.626c-2.624 1.51-21.244-6.471-24.592-6.471-2.893 0-18.124-7.856-20.191-9.055l-107.855-61.61-23.022-13.149-130.877-74.759c-1.591-.91-10.85-6.761-11.573-8.167-2.728-2.295-4.547-4.941-5.497-7.753-2.645-7.794 1.674-16.415 12.317-22.514z"/><path opacity=".82" d="m80.017 269.787 23.601-11.888c11.035-6.326 38.666-13.149 48.213-7.65l14.735 4.363c1.757-1.013 21.203 8.352 23.414 8.352 1.943 0 17.835 8.539 19.22 9.345l103.867 59.419 22.153 12.673 126.042 72.113c1.054.599 10.911 6.616 11.407 7.546 2.832 2.109 4.754 4.548 5.808 7.174 2.996 7.34-1.013 15.733-11.429 21.729l-23.6 11.888c-11.036 6.326-38.666 13.149-48.214 7.649l-14.755-4.362c-1.757 1.013-21.203-8.352-23.415-8.352-1.942 0-17.834-8.539-19.219-9.345l-103.867-59.419-22.154-12.673-126.041-72.113c-1.054-.62-10.912-6.616-11.408-7.546-2.83-2.109-4.753-4.549-5.807-7.174-2.996-7.34 1.013-15.733 11.428-21.729h.021z"/><path opacity=".91" d="m83.034 272.144 22.795-11.289c12.255-7.029 36.269-10.854 46.891-4.776l14.177 6.079c.868-.496 21.141 10.234 22.257 10.234.971 0 17.566 9.241 18.269 9.634l99.878 57.248 21.306 12.218 121.185 69.467c.538.31 10.995 6.491 11.243 6.946 2.913 1.923 4.939 4.177 6.117 6.595 3.348 6.906-.352 15.072-10.561 20.944l-22.794 11.288c-12.255 7.029-36.269 10.854-46.891 4.776l-14.177-6.078c-.868.496-21.141-10.234-22.257-10.234-.971 0-17.566-9.242-18.269-9.635l-99.878-57.247-21.307-12.219-121.184-69.466c-.538-.31-10.995-6.492-11.243-6.947-2.914-1.923-4.939-4.176-6.117-6.595-3.348-6.905.352-15.072 10.56-20.943z"/><path d="M378.495 470.494 230.63 385.605l-147.864-84.89c-11.677-6.698-10.21-18.421 3.265-26.153l21.989-10.689c13.494-7.753 33.892-8.58 45.568-1.881l147.864 84.889 147.865 84.89c11.676 6.699 10.209 18.421-3.265 26.153l-21.989 10.689c-13.495 7.753-33.892 8.58-45.568 1.881z"/></g><path d="m95.388 427.582-5.207-3.007v-5.98c0-.532-.366-1.173-.825-1.43l-2.273-1.321c-.458-.257-.825-.055-.825.477v5.979l-5.207-3.008c-.458-.256-.825-.055-.825.477v2.623c0 .532.367 1.174.825 1.431l5.207 3.007v5.98c0 .531.367 1.173.825 1.43l2.273 1.321c.459.256.825.055.825-.477v-5.979l5.207 3.008c.458.256.825.055.825-.477v-2.623c0-.532-.367-1.174-.825-1.431z" fill="#45108A" style="mix-blend-mode:color-dodge"/><path opacity=".66" d="M35.585 41.708v237.588a21.578 21.578 0 0 0 11.165 18.909l165.329 91.265V119.4L35.585 41.708z" fill="url(#a)"/><path opacity=".66" d="M214.957 237.846v153.293l108.148 60.121V285.899l-108.148-48.053z" fill="url(#b)"/><path opacity=".66" d="M326.13 287.77v164.169l59.51 34.059c3.318 1.907 7.462-.495 7.462-4.329V317.665l-66.972-29.877v-.018z" fill="url(#c)"/><path opacity=".66" d="M214.957 217.982v17.314l178.145 78.26v-17.093l-178.145-78.481z" fill="url(#d)"/><path opacity=".66" d="M214.957 198.541v17.314l178.145 78.26v-17.093l-178.145-78.481z" fill="url(#e)"/><path opacity=".66" d="M214.957 179.1v17.295l178.145 78.279v-17.112L214.957 179.1z" fill="url(#f)"/><path opacity=".66" d="M214.957 159.64v17.314l178.145 78.261v-17.094L214.957 159.64z" fill="url(#g)"/><path opacity=".66" d="M214.957 140.199v17.314l178.145 78.26v-17.094l-178.145-78.48z" fill="url(#h)"/><path opacity=".66" d="M258.426 139.061v17.314l178.144 78.26v-17.093l-178.144-78.481z" fill="url(#i)"/><path d="M35.585 25.587v9.445l358.837 158.172v-8.547a13.532 13.532 0 0 0-7.975-12.343L42.937 20.836c-3.447-1.559-7.352.972-7.352 4.75z" fill="url(#j)"/><path d="m437.597 251.326-3.997-8.584-5.537 4.255v-22.632l17.05 14.672-6.691 1.211 4.106 8.767-4.931 2.329v-.018zm-3.502-10.656 4.143 8.84 2.494-1.174-4.29-9.115 5.61-1.009-12.724-10.913v16.984l4.749-3.613h.018z" fill="#666"/><path d="m434.095 240.67 4.143 8.84 2.494-1.174-4.29-9.115 5.61-1.009-12.724-10.913v16.984l4.749-3.613h.018zM43.688 34.005a2.897 2.897 0 1 0-.001-5.794 2.897 2.897 0 0 0 .001 5.794zM51.517 37.27a2.897 2.897 0 1 0-.002-5.795 2.897 2.897 0 0 0 .002 5.795zM59.088 40.167a2.897 2.897 0 1 0-.001-5.794 2.897 2.897 0 0 0 .001 5.794z" fill="#fff"/><defs><linearGradient id="a" x1="160.589" y1="-51.289" x2="-110.654" y2="187.574" gradientUnits="userSpaceOnUse"><stop stop-color="#FFF800"/><stop offset="1" stop-color="#30F9FC"/></linearGradient><linearGradient id="b" x1="291.555" y1="180.775" x2="125.13" y2="327.112" gradientUnits="userSpaceOnUse"><stop stop-color="#FFF800"/><stop offset="1" stop-color="#30F9FC"/></linearGradient><linearGradient id="c" x1="373.564" y1="234.582" x2="237.327" y2="314.178" gradientUnits="userSpaceOnUse"><stop stop-color="#FFF800"/><stop offset="1" stop-color="#30F9FC"/></linearGradient><linearGradient id="d" x1="341.13" y1="192.424" x2="298.715" y2="329.606" gradientUnits="userSpaceOnUse"><stop stop-color="#FFF800"/><stop offset="1" stop-color="#30F9FC"/></linearGradient><linearGradient id="e" x1="341.13" y1="172.983" x2="298.715" y2="310.165" gradientUnits="userSpaceOnUse"><stop stop-color="#FFF800"/><stop offset="1" stop-color="#30F9FC"/></linearGradient><linearGradient id="f" x1="341.13" y1="153.542" x2="298.715" y2="290.723" gradientUnits="userSpaceOnUse"><stop stop-color="#FFF800"/><stop offset="1" stop-color="#30F9FC"/></linearGradient><linearGradient id="g" x1="341.13" y1="134.082" x2="298.715" y2="271.264" gradientUnits="userSpaceOnUse"><stop stop-color="#FFF800"/><stop offset="1" stop-color="#30F9FC"/></linearGradient><linearGradient id="h" x1="341.13" y1="114.641" x2="298.715" y2="251.823" gradientUnits="userSpaceOnUse"><stop stop-color="#FFF800"/><stop offset="1" stop-color="#30F9FC"/></linearGradient><linearGradient id="i" x1="384.599" y1="113.503" x2="342.183" y2="250.685" gradientUnits="userSpaceOnUse"><stop stop-color="#FFF800"/><stop offset="1" stop-color="#30F9FC"/></linearGradient><linearGradient id="j" x1="289.735" y1="-25.85" x2="219.687" y2="226.499" gradientUnits="userSpaceOnUse"><stop stop-color="#FFF800"/><stop offset="1" stop-color="#30F9FC"/></linearGradient></defs></svg>