<svg width="148" height="148" viewBox="0 0 148 148" fill="none" xmlns="http://www.w3.org/2000/svg">
<circle cx="73.8345" cy="74.0042" r="72.8345" stroke="url(#paint0_linear_29_605)" stroke-width="2"/>
<path d="M46.026 99.7555V102.618C46.026 104.439 44.3846 106 42.4688 106H29.1986C27.1472 106 25.6415 104.439 25.6415 102.618V89.8704C25.6415 82.1955 24.41 69.5787 30.4301 63.724H26.4629C25.0957 63.724 24 62.6834 24 61.3821V59.0402C24 57.7402 25.5043 56.6983 26.7358 56.4389L35.7645 55.2679L41.7831 44.6018C43.4246 42.3903 47.1189 40.0485 49.9918 39.6586C65.7235 37.4471 82.1408 37.4471 98.0082 39.6586C100.881 40.0485 104.575 42.3903 106.217 44.6018L112.236 55.2679L121.264 56.4389C122.496 56.6983 124 57.7389 124 59.0402V61.3821C124 62.6821 122.906 63.724 121.537 63.724H117.57C123.589 69.5773 122.359 82.1955 122.359 89.8704V102.618C122.359 104.439 120.717 106 118.801 106H105.531C103.615 106 101.974 104.439 101.974 102.618V99.7555C83.3694 100.926 64.6277 100.926 46.0217 99.7555H46.0246H46.026ZM50.1289 40.8295C47.5289 41.089 44.246 43.3005 42.7417 45.2525L36.4487 56.3085L26.8729 57.6085C26.4629 57.6085 26.0515 57.8679 25.6415 58.2591C25.3686 58.5186 25.2314 58.7794 25.2314 59.0402V61.3821C25.2314 62.0328 25.7786 62.553 26.4629 62.553H33.303C32.7558 63.0733 32.3458 63.4632 31.9358 63.853C25.3686 69.7063 26.8743 81.6738 26.8743 89.869C26.7372 93.9008 26.7372 98.0642 26.7372 102.616C26.7372 103.787 27.8315 104.828 29.2001 104.828H42.4703C43.7017 104.828 44.796 103.787 44.796 102.616V98.5845C64.3592 99.7555 83.648 99.7555 103.21 98.5845V102.616C103.21 103.787 104.304 104.828 105.535 104.828H118.806C120.173 104.828 121.131 103.787 121.131 102.616V89.869C121.131 81.6738 122.636 69.7063 116.07 63.853C115.523 63.4632 115.113 63.0719 114.703 62.553H121.543C122.227 62.553 122.774 62.0328 122.774 61.3821V59.0402C122.774 58.7808 122.637 58.5199 122.364 58.2591C121.954 57.8693 121.543 57.6085 120.997 57.6085L111.558 56.3085L105.265 45.2525C103.761 43.3018 100.341 41.089 97.7411 40.8295C82.1465 38.4877 65.8663 38.4877 50.1347 40.8295H50.1289ZM97.3253 45.9032C98.9668 46.4234 100.061 46.9437 101.018 48.3741L105.943 57.6098H42.0574L46.9818 48.3741C47.9389 46.9437 49.0332 46.4234 50.6747 45.9032C66.2692 44.212 81.7294 44.212 97.3239 45.9032H97.3253ZM107.858 58.6504L101.975 47.8538C100.881 46.1626 99.5125 45.3829 97.461 44.8626C82.9608 42.7816 65.0392 42.7816 50.539 44.8626C48.4875 45.3829 46.9818 46.1626 45.8875 47.8538L40.1417 58.6504H107.858ZM107.174 74.2597C103.207 74.2597 100.061 77.2509 100.061 80.8941C100.061 84.5373 103.207 87.5285 107.174 87.5285C111.141 87.5285 114.151 84.5373 114.151 80.8941C114.151 77.2509 111.006 74.2597 107.174 74.2597V74.2597ZM107.174 75.4306C110.32 75.4306 112.92 77.9029 112.92 80.8941C112.92 83.8853 110.32 86.488 107.174 86.488C104.028 86.488 101.291 84.0157 101.291 80.8941C101.291 77.7725 103.891 75.4306 107.174 75.4306V75.4306ZM40.826 74.2597C44.656 74.2597 47.8032 77.2509 47.8032 80.8941C47.8032 84.5373 44.6574 87.5285 40.826 87.5285C36.9945 87.5285 33.8487 84.5373 33.8487 80.8941C33.8487 77.2509 36.9945 74.2597 40.826 74.2597V74.2597ZM40.826 75.4306C37.6802 75.4306 35.0802 77.9029 35.0802 80.8941C35.0802 83.8853 37.6788 86.488 40.826 86.488C43.9731 86.488 46.7089 84.0157 46.7089 80.8941C46.7089 77.7725 44.1089 75.4306 40.826 75.4306V75.4306Z" fill="white" stroke="url(#paint1_linear_29_605)"/>
<defs>
<linearGradient id="paint0_linear_29_605" x1="104.588" y1="-39.3192" x2="4.12522" y2="135.001" gradientUnits="userSpaceOnUse">
<stop stop-color="#FFF800"/>
<stop offset="1" stop-color="#30F9FC"/>
</linearGradient>
<linearGradient id="paint1_linear_29_605" x1="94.8262" y1="19.8158" x2="58.4986" y2="112.513" gradientUnits="userSpaceOnUse">
<stop stop-color="#FFF800"/>
<stop offset="1" stop-color="#30F9FC"/>
</linearGradient>
</defs>
</svg>
