<svg width="148" height="148" fill="none" xmlns="http://www.w3.org/2000/svg"><circle cx="73.835" cy="74.004" r="72.835" stroke="url(#a)" stroke-width="2"/><path d="M46.026 99.755v2.863c0 1.821-1.641 3.382-3.557 3.382h-13.27c-2.052 0-3.558-1.561-3.558-3.382V89.87c0-7.675-1.231-20.291 4.79-26.146h-3.968c-1.367 0-2.463-1.04-2.463-2.342V59.04c0-1.3 1.504-2.342 2.736-2.601l9.028-1.171 6.02-10.666c1.64-2.212 5.335-4.553 8.208-4.943 15.732-2.212 32.149-2.212 48.016 0 2.873.39 6.567 2.731 8.209 4.943l6.019 10.666 9.028 1.17c1.232.26 2.736 1.3 2.736 2.602v2.342c0 1.3-1.094 2.342-2.463 2.342h-3.967c6.019 5.853 4.789 18.471 4.789 26.146v12.748c0 1.821-1.642 3.382-3.558 3.382h-13.27c-1.916 0-3.557-1.561-3.557-3.382v-2.862a446.211 446.211 0 0 1-55.952 0h.004zm4.103-58.925c-2.6.259-5.883 2.47-7.387 4.422l-6.293 11.056-9.576 1.3c-.41 0-.822.26-1.232.651-.272.26-.41.52-.41.781v2.342c0 .65.548 1.171 1.232 1.171h6.84l-1.367 1.3c-6.567 5.853-5.062 17.82-5.062 26.016-.137 4.032-.137 8.195-.137 12.747 0 1.171 1.095 2.212 2.463 2.212h13.27c1.232 0 2.326-1.041 2.326-2.212v-4.031a486.092 486.092 0 0 0 58.414 0v4.031c0 1.171 1.094 2.212 2.325 2.212h13.271c1.367 0 2.325-1.041 2.325-2.212V89.869c0-8.195 1.505-20.163-5.061-26.016a6.346 6.346 0 0 1-1.367-1.3h6.84c.684 0 1.231-.52 1.231-1.17V59.04c0-.26-.137-.52-.41-.78-.41-.39-.821-.651-1.367-.651l-9.439-1.3-6.293-11.056c-1.504-1.951-4.924-4.164-7.524-4.423-15.594-2.342-31.875-2.342-47.606 0h-.006zm47.196 5.073c1.642.52 2.736 1.04 3.693 2.471l4.925 9.236H42.057l4.925-9.236c.957-1.43 2.051-1.95 3.693-2.47a215.092 215.092 0 0 1 46.649 0h.001zm10.533 12.747-5.883-10.796c-1.094-1.691-2.462-2.471-4.514-2.991-14.5-2.081-32.422-2.081-46.922 0-2.052.52-3.557 1.3-4.651 2.99L40.142 58.65h67.716zm-.684 15.61c-3.967 0-7.113 2.99-7.113 6.634 0 3.643 3.146 6.634 7.113 6.634 3.967 0 6.977-2.99 6.977-6.634 0-3.643-3.145-6.634-6.977-6.634zm0 1.17c3.146 0 5.746 2.473 5.746 5.464 0 2.991-2.6 5.594-5.746 5.594-3.146 0-5.883-2.472-5.883-5.594 0-3.122 2.6-5.463 5.883-5.463zm-66.348-1.17c3.83 0 6.977 2.99 6.977 6.634 0 3.643-3.146 6.634-6.977 6.634-3.831 0-6.977-2.99-6.977-6.634 0-3.643 3.146-6.634 6.977-6.634zm0 1.17c-3.146 0-5.746 2.473-5.746 5.464 0 2.991 2.599 5.594 5.746 5.594 3.147 0 5.883-2.472 5.883-5.594 0-3.122-2.6-5.463-5.883-5.463z" fill="#fff" stroke="url(#b)"/><defs><linearGradient id="a" x1="104.588" y1="-39.319" x2="4.125" y2="135.001" gradientUnits="userSpaceOnUse"><stop stop-color="#FFF800"/><stop offset="1" stop-color="#30F9FC"/></linearGradient><linearGradient id="b" x1="94.826" y1="19.816" x2="58.499" y2="112.513" gradientUnits="userSpaceOnUse"><stop stop-color="#FFF800"/><stop offset="1" stop-color="#30F9FC"/></linearGradient></defs></svg>