<svg width="148" height="148" fill="none" xmlns="http://www.w3.org/2000/svg"><circle cx="73.835" cy="74.004" r="72.835" stroke="url(#a)" stroke-width="2"/><path stroke="url(#b)" stroke-width="2" d="M44 109h60"/><rect x="44" y="24" width="60" height="100" rx="5" stroke="url(#c)" stroke-width="2"/><circle cx="74.5" cy="116.5" r="3.5" stroke="url(#d)" stroke-width="2"/><path stroke="url(#e)" stroke-linecap="round" d="M55.5 38.5h41"/><circle cx="50.5" cy="38.5" r="1.5" fill="url(#f)"/><path stroke="url(#g)" stroke-linecap="round" d="M55.5 46.5h41"/><circle cx="50.5" cy="46.5" r="1.5" fill="url(#h)"/><path stroke="url(#i)" stroke-linecap="round" d="M55.5 54.5h41"/><circle cx="50.5" cy="54.5" r="1.5" fill="url(#j)"/><path stroke="url(#k)" stroke-linecap="round" d="M55.5 62.5h41"/><circle cx="50.5" cy="62.5" r="1.5" fill="url(#l)"/><path stroke="url(#m)" stroke-linecap="round" d="M55.5 70.5h41"/><circle cx="50.5" cy="70.5" r="1.5" fill="url(#n)"/><path stroke="url(#o)" stroke-linecap="round" d="M55.5 78.5h41"/><circle cx="50.5" cy="78.5" r="1.5" fill="url(#p)"/><path stroke="url(#q)" stroke-linecap="round" d="M55.5 86.5h41"/><circle cx="50.5" cy="86.5" r="1.5" fill="url(#r)"/><path stroke="url(#s)" stroke-linecap="round" d="M55.5 94.5h41"/><circle cx="50.5" cy="94.5" r="1.5" fill="url(#t)"/><defs><linearGradient id="k" x1="84.747" y1="62.733" x2="84.725" y2="64.305" gradientUnits="userSpaceOnUse"><stop stop-color="#FFF800"/><stop offset="1" stop-color="#30F9FC"/></linearGradient><linearGradient id="a" x1="104.588" y1="-39.319" x2="4.125" y2="135.001" gradientUnits="userSpaceOnUse"><stop stop-color="#FFF800"/><stop offset="1" stop-color="#30F9FC"/></linearGradient><linearGradient id="c" x1="86.912" y1="-4.276" x2="6.825" y2="80.192" gradientUnits="userSpaceOnUse"><stop stop-color="#FFF800"/><stop offset="1" stop-color="#30F9FC"/></linearGradient><linearGradient id="d" x1="76.374" y1="109.593" x2="70.251" y2="120.218" gradientUnits="userSpaceOnUse"><stop stop-color="#FFF800"/><stop offset="1" stop-color="#30F9FC"/></linearGradient><linearGradient id="e" x1="84.747" y1="38.733" x2="84.725" y2="40.305" gradientUnits="userSpaceOnUse"><stop stop-color="#FFF800"/><stop offset="1" stop-color="#30F9FC"/></linearGradient><linearGradient id="f" x1="51.125" y1="36.198" x2="49.084" y2="39.739" gradientUnits="userSpaceOnUse"><stop stop-color="#FFF800"/><stop offset="1" stop-color="#30F9FC"/></linearGradient><linearGradient id="g" x1="84.747" y1="46.733" x2="84.725" y2="48.305" gradientUnits="userSpaceOnUse"><stop stop-color="#FFF800"/><stop offset="1" stop-color="#30F9FC"/></linearGradient><linearGradient id="h" x1="51.125" y1="44.198" x2="49.084" y2="47.739" gradientUnits="userSpaceOnUse"><stop stop-color="#FFF800"/><stop offset="1" stop-color="#30F9FC"/></linearGradient><linearGradient id="i" x1="84.747" y1="54.733" x2="84.725" y2="56.305" gradientUnits="userSpaceOnUse"><stop stop-color="#FFF800"/><stop offset="1" stop-color="#30F9FC"/></linearGradient><linearGradient id="j" x1="51.125" y1="52.198" x2="49.084" y2="55.739" gradientUnits="userSpaceOnUse"><stop stop-color="#FFF800"/><stop offset="1" stop-color="#30F9FC"/></linearGradient><linearGradient id="b" x1="86.496" y1="109.733" x2="86.481" y2="111.305" gradientUnits="userSpaceOnUse"><stop stop-color="#FFF800"/><stop offset="1" stop-color="#30F9FC"/></linearGradient><linearGradient id="l" x1="51.125" y1="60.198" x2="49.084" y2="63.739" gradientUnits="userSpaceOnUse"><stop stop-color="#FFF800"/><stop offset="1" stop-color="#30F9FC"/></linearGradient><linearGradient id="m" x1="84.747" y1="70.733" x2="84.725" y2="72.305" gradientUnits="userSpaceOnUse"><stop stop-color="#FFF800"/><stop offset="1" stop-color="#30F9FC"/></linearGradient><linearGradient id="n" x1="51.125" y1="68.198" x2="49.084" y2="71.739" gradientUnits="userSpaceOnUse"><stop stop-color="#FFF800"/><stop offset="1" stop-color="#30F9FC"/></linearGradient><linearGradient id="o" x1="84.747" y1="78.733" x2="84.725" y2="80.305" gradientUnits="userSpaceOnUse"><stop stop-color="#FFF800"/><stop offset="1" stop-color="#30F9FC"/></linearGradient><linearGradient id="p" x1="51.125" y1="76.198" x2="49.084" y2="79.739" gradientUnits="userSpaceOnUse"><stop stop-color="#FFF800"/><stop offset="1" stop-color="#30F9FC"/></linearGradient><linearGradient id="q" x1="84.747" y1="86.733" x2="84.725" y2="88.305" gradientUnits="userSpaceOnUse"><stop stop-color="#FFF800"/><stop offset="1" stop-color="#30F9FC"/></linearGradient><linearGradient id="r" x1="51.125" y1="84.198" x2="49.084" y2="87.739" gradientUnits="userSpaceOnUse"><stop stop-color="#FFF800"/><stop offset="1" stop-color="#30F9FC"/></linearGradient><linearGradient id="s" x1="84.747" y1="94.733" x2="84.725" y2="96.305" gradientUnits="userSpaceOnUse"><stop stop-color="#FFF800"/><stop offset="1" stop-color="#30F9FC"/></linearGradient><linearGradient id="t" x1="51.125" y1="92.198" x2="49.084" y2="95.739" gradientUnits="userSpaceOnUse"><stop stop-color="#FFF800"/><stop offset="1" stop-color="#30F9FC"/></linearGradient></defs></svg>