<svg width="148" height="148" fill="none" xmlns="http://www.w3.org/2000/svg"><circle cx="73.835" cy="73.834" r="72.835" stroke="url(#a)" stroke-width="2"/><path d="M36.59 83.63v13.914h1.618V83.063H61.54v14.481h1.616V83.063h22.64v14.481h1.616V83.063h23.332v14.481h1.616V83.63a1.98 1.98 0 0 0-.59-1.406 2.038 2.038 0 0 0-1.43-.582H75.457V51.827h-1.619v29.815H38.61c-1.116 0-2.022.89-2.022 1.988h.002z" fill="#fff" stroke="url(#b)" stroke-miterlimit="10"/><path d="M74.478 49.593c7.187 0 13.014-5.729 13.014-12.796C87.492 29.729 81.665 24 74.478 24c-7.188 0-13.014 5.73-13.014 12.797s5.826 12.796 13.014 12.796z" stroke="url(#c)" stroke-width="2" stroke-miterlimit="10"/><path d="M37.506 113.585c3.593 0 6.506-2.865 6.506-6.398 0-3.533-2.913-6.397-6.506-6.397-3.593 0-6.506 2.864-6.506 6.397 0 3.533 2.913 6.398 6.506 6.398z" stroke="url(#d)" stroke-width="2" stroke-miterlimit="10"/><path d="M62.534 113.631c3.593 0 6.506-2.865 6.506-6.398 0-3.533-2.913-6.397-6.506-6.397-3.593 0-6.506 2.864-6.506 6.397 0 3.533 2.913 6.398 6.506 6.398z" stroke="url(#e)" stroke-width="2" stroke-miterlimit="10"/><path d="M86.842 113.585c3.593 0 6.506-2.865 6.506-6.398 0-3.533-2.913-6.397-6.506-6.397-3.594 0-6.507 2.864-6.507 6.397 0 3.533 2.913 6.398 6.507 6.398z" stroke="url(#f)" stroke-width="2" stroke-miterlimit="10"/><path d="M111.496 113.585c3.593 0 6.506-2.865 6.506-6.398 0-3.533-2.913-6.397-6.506-6.397-3.593 0-6.506 2.864-6.506 6.397 0 3.533 2.913 6.398 6.506 6.398z" stroke="url(#g)" stroke-width="2" stroke-miterlimit="10"/><defs><linearGradient id="a" x1="104.588" y1="-39.489" x2="4.125" y2="134.831" gradientUnits="userSpaceOnUse"><stop stop-color="#FFF800"/><stop offset="1" stop-color="#30F9FC"/></linearGradient><linearGradient id="b" x1="90.255" y1="39.601" x2="67.953" y2="103.74" gradientUnits="userSpaceOnUse"><stop stop-color="#FFF800"/><stop offset="1" stop-color="#30F9FC"/></linearGradient><linearGradient id="c" x1="79.898" y1="17.156" x2="62.635" y2="47.62" gradientUnits="userSpaceOnUse"><stop stop-color="#FFF800"/><stop offset="1" stop-color="#30F9FC"/></linearGradient><linearGradient id="d" x1="40.216" y1="97.368" x2="31.585" y2="112.598" gradientUnits="userSpaceOnUse"><stop stop-color="#FFF800"/><stop offset="1" stop-color="#30F9FC"/></linearGradient><linearGradient id="e" x1="65.244" y1="97.414" x2="56.614" y2="112.644" gradientUnits="userSpaceOnUse"><stop stop-color="#FFF800"/><stop offset="1" stop-color="#30F9FC"/></linearGradient><linearGradient id="f" x1="89.552" y1="97.368" x2="80.921" y2="112.598" gradientUnits="userSpaceOnUse"><stop stop-color="#FFF800"/><stop offset="1" stop-color="#30F9FC"/></linearGradient><linearGradient id="g" x1="114.206" y1="97.368" x2="105.575" y2="112.598" gradientUnits="userSpaceOnUse"><stop stop-color="#FFF800"/><stop offset="1" stop-color="#30F9FC"/></linearGradient></defs></svg>