<svg width="148" height="148" viewBox="0 0 148 148" fill="none" xmlns="http://www.w3.org/2000/svg">
<circle cx="73.8345" cy="73.9957" r="72.8345" stroke="url(#paint0_linear_29_649)" stroke-width="2"/>
<line x1="24.4208" y1="45.6473" x2="113.814" y2="45.6473" stroke="url(#paint1_linear_29_649)" stroke-width="2"/>
<path d="M114 61.5V42C114 39.7909 112.209 38 110 38H28C25.7909 38 24 39.7909 24 42V95C24 97.2091 25.7909 99 28 99H61" stroke="url(#paint2_linear_29_649)" stroke-width="2"/>
<circle cx="30.0982" cy="42.404" r="0.914454" stroke="url(#paint3_linear_29_649)"/>
<circle cx="34.6246" cy="42.404" r="0.914454" stroke="url(#paint4_linear_29_649)"/>
<circle cx="39.1507" cy="42.404" r="0.914454" stroke="url(#paint5_linear_29_649)"/>
<path d="M79.0967 108.495V110.511C79.0967 111.794 78.0461 112.893 76.8201 112.893H68.3271C67.0142 112.893 66.0505 111.794 66.0505 110.511V101.532C66.0505 96.1267 65.2624 87.2404 69.1153 83.1168H66.5763C65.7013 83.1168 65 82.3839 65 81.4674V79.8179C65 78.9023 65.9628 78.1685 66.7509 77.9857L72.5293 77.161L76.3812 69.6486C77.4317 68.091 79.7961 66.4416 81.6348 66.167C91.703 64.6094 102.21 64.6094 112.365 66.167C114.204 66.4416 116.568 68.091 117.619 69.6486L121.471 77.161L127.249 77.9857C128.037 78.1685 129 78.9014 129 79.8179V81.4674C129 82.383 128.3 83.1168 127.424 83.1168H124.885C128.737 87.2395 127.949 96.1267 127.949 101.532V110.511C127.949 111.794 126.899 112.893 125.673 112.893H117.18C115.954 112.893 114.903 111.794 114.903 110.511V108.495C102.996 109.319 91.0017 109.319 79.0939 108.495H79.0957H79.0967ZM81.7225 66.9917C80.0585 67.1744 77.9574 68.732 76.9947 70.1069L72.9672 77.8939L66.8387 78.8095C66.5763 78.8095 66.3129 78.9922 66.0505 79.2678C65.8759 79.4505 65.7881 79.6342 65.7881 79.8179V81.4674C65.7881 81.9257 66.1383 82.2921 66.5763 82.2921H70.9539C70.6037 82.6585 70.3413 82.9331 70.0789 83.2077C65.8759 87.3304 66.8396 95.7593 66.8396 101.531C66.7518 104.371 66.7518 107.304 66.7518 110.51C66.7518 111.334 67.4521 112.067 68.328 112.067H76.821C77.6091 112.067 78.3094 111.334 78.3094 110.51V107.67C90.8299 108.495 103.175 108.495 115.694 107.67V110.51C115.694 111.334 116.395 112.067 117.183 112.067H125.676C126.551 112.067 127.164 111.334 127.164 110.51V101.531C127.164 95.7593 128.127 87.3304 123.925 83.2077C123.575 82.9331 123.312 82.6576 123.05 82.2921H127.427C127.865 82.2921 128.216 81.9257 128.216 81.4674V79.8179C128.216 79.6352 128.128 79.4515 127.953 79.2678C127.691 78.9932 127.427 78.8095 127.078 78.8095L121.037 77.8939L117.01 70.1069C116.047 68.733 113.858 67.1744 112.194 66.9917C102.214 65.3423 91.7944 65.3423 81.7262 66.9917H81.7225ZM111.928 70.5652C112.979 70.9316 113.679 71.298 114.292 72.3055L117.443 78.8105H76.5567L79.7083 72.3055C80.3209 71.298 81.0213 70.9316 82.0718 70.5652C92.0523 69.374 101.947 69.374 111.927 70.5652H111.928ZM118.669 79.5433L114.904 71.9391C114.204 70.7479 113.328 70.1987 112.015 69.8323C102.735 68.3665 91.2651 68.3665 81.9849 69.8323C80.672 70.1987 79.7083 70.7479 79.008 71.9391L75.3307 79.5433H118.669ZM118.231 90.5374C115.692 90.5374 113.679 92.6442 113.679 95.2102C113.679 97.7762 115.692 99.8829 118.231 99.8829C120.77 99.8829 122.697 97.7762 122.697 95.2102C122.697 92.6442 120.684 90.5374 118.231 90.5374V90.5374ZM118.231 91.3621C120.245 91.3621 121.909 93.1034 121.909 95.2102C121.909 97.3169 120.245 99.1501 118.231 99.1501C116.218 99.1501 114.466 97.4088 114.466 95.2102C114.466 93.0115 116.13 91.3621 118.231 91.3621V91.3621ZM75.7686 90.5374C78.2198 90.5374 80.234 92.6442 80.234 95.2102C80.234 97.7762 78.2208 99.8829 75.7686 99.8829C73.3165 99.8829 71.3032 97.7762 71.3032 95.2102C71.3032 92.6442 73.3165 90.5374 75.7686 90.5374V90.5374ZM75.7686 91.3621C73.7553 91.3621 72.0913 93.1034 72.0913 95.2102C72.0913 97.3169 73.7544 99.1501 75.7686 99.1501C77.7828 99.1501 79.5337 97.4088 79.5337 95.2102C79.5337 93.0115 77.8697 91.3621 75.7686 91.3621V91.3621Z" stroke="url(#paint6_linear_29_649)"/>
<defs>
<linearGradient id="paint0_linear_29_649" x1="104.588" y1="-39.3277" x2="4.12522" y2="134.992" gradientUnits="userSpaceOnUse">
<stop stop-color="#FFF800"/>
<stop offset="1" stop-color="#30F9FC"/>
</linearGradient>
<linearGradient id="paint1_linear_29_649" x1="87.7348" y1="46.3799" x2="87.7247" y2="47.9524" gradientUnits="userSpaceOnUse">
<stop stop-color="#FFF800"/>
<stop offset="1" stop-color="#30F9FC"/>
</linearGradient>
<linearGradient id="paint2_linear_29_649" x1="87.7436" y1="21.6877" x2="55.2339" y2="104.915" gradientUnits="userSpaceOnUse">
<stop stop-color="#FFF800"/>
<stop offset="1" stop-color="#30F9FC"/>
</linearGradient>
<linearGradient id="paint3_linear_29_649" x1="30.6874" y1="40.233" x2="28.7628" y2="43.5725" gradientUnits="userSpaceOnUse">
<stop stop-color="#FFF800"/>
<stop offset="1" stop-color="#30F9FC"/>
</linearGradient>
<linearGradient id="paint4_linear_29_649" x1="35.2138" y1="40.233" x2="33.2892" y2="43.5725" gradientUnits="userSpaceOnUse">
<stop stop-color="#FFF800"/>
<stop offset="1" stop-color="#30F9FC"/>
</linearGradient>
<linearGradient id="paint5_linear_29_649" x1="39.7399" y1="40.233" x2="37.8153" y2="43.5725" gradientUnits="userSpaceOnUse">
<stop stop-color="#FFF800"/>
<stop offset="1" stop-color="#30F9FC"/>
</linearGradient>
<linearGradient id="paint6_linear_29_649" x1="110.329" y1="52.1912" x2="82.9405" y2="115.695" gradientUnits="userSpaceOnUse">
<stop stop-color="#FFF800"/>
<stop offset="1" stop-color="#30F9FC"/>
</linearGradient>
</defs>
</svg>
