<svg width="148" height="148" viewBox="0 0 148 148" fill="none" xmlns="http://www.w3.org/2000/svg">
<circle cx="73.8345" cy="74.0042" r="72.8345" stroke="url(#paint0_linear_29_612)" stroke-width="2"/>
<line x1="29.4208" y1="50.6558" x2="118.814" y2="50.6558" stroke="url(#paint1_linear_29_612)" stroke-width="2"/>
<rect x="29.8549" y="44.1691" width="88.525" height="59.6702" rx="3" stroke="url(#paint2_linear_29_612)" stroke-width="2"/>
<circle cx="35.0984" cy="47.4124" r="0.914454" stroke="url(#paint3_linear_29_612)"/>
<circle cx="39.6245" cy="47.4124" r="0.914454" stroke="url(#paint4_linear_29_612)"/>
<circle cx="44.1509" cy="47.4124" r="0.914454" stroke="url(#paint5_linear_29_612)"/>
<path d="M82.9556 81.171C82.9556 82.1763 82.6946 83.1237 82.1726 84.013C81.67 84.883 80.916 85.608 79.9106 86.188C78.9246 86.7487 77.755 87.0773 76.4016 87.174V89.523H74.5456V87.145C72.6123 86.971 71.056 86.391 69.8766 85.405C68.6973 84.3997 68.0883 83.0463 68.0496 81.345H72.3996C72.5156 82.737 73.231 83.578 74.5456 83.868V78.329C73.1536 77.981 72.0323 77.633 71.1816 77.285C70.331 76.937 69.5963 76.3763 68.9776 75.603C68.359 74.8297 68.0496 73.776 68.0496 72.442C68.0496 70.76 68.649 69.3873 69.8476 68.324C71.0656 67.2607 72.6316 66.6517 74.5456 66.497V64.148H76.4016V66.497C78.2576 66.6517 79.7366 67.2123 80.8386 68.179C81.96 69.1457 82.5883 70.4797 82.7236 72.181H78.3446C78.2866 71.6203 78.0836 71.137 77.7356 70.731C77.407 70.3057 76.9623 70.006 76.4016 69.832V75.313C77.8516 75.6803 78.9923 76.038 79.8236 76.386C80.6743 76.7147 81.409 77.2657 82.0276 78.039C82.6463 78.793 82.9556 79.837 82.9556 81.171ZM72.2836 72.239C72.2836 72.877 72.477 73.399 72.8636 73.805C73.2503 74.1917 73.811 74.5107 74.5456 74.762V69.745C73.8496 69.8417 73.2986 70.1027 72.8926 70.528C72.4866 70.9533 72.2836 71.5237 72.2836 72.239ZM76.4016 83.926C77.1363 83.7907 77.7066 83.491 78.1126 83.027C78.538 82.563 78.7506 82.0023 78.7506 81.345C78.7506 80.707 78.5476 80.1947 78.1416 79.808C77.7356 79.4213 77.1556 79.1023 76.4016 78.851V83.926Z" fill="url(#paint6_linear_29_612)"/>
<defs>
<linearGradient id="paint0_linear_29_612" x1="104.588" y1="-39.3192" x2="4.12522" y2="135.001" gradientUnits="userSpaceOnUse">
<stop stop-color="#FFF800"/>
<stop offset="1" stop-color="#30F9FC"/>
</linearGradient>
<linearGradient id="paint1_linear_29_612" x1="92.7348" y1="51.3883" x2="92.7247" y2="52.9608" gradientUnits="userSpaceOnUse">
<stop stop-color="#FFF800"/>
<stop offset="1" stop-color="#30F9FC"/>
</linearGradient>
<linearGradient id="paint2_linear_29_612" x1="92.9704" y1="26.6775" x2="59.98" y2="110.705" gradientUnits="userSpaceOnUse">
<stop stop-color="#FFF800"/>
<stop offset="1" stop-color="#30F9FC"/>
</linearGradient>
<linearGradient id="paint3_linear_29_612" x1="35.6876" y1="45.2414" x2="33.763" y2="48.5809" gradientUnits="userSpaceOnUse">
<stop stop-color="#FFF800"/>
<stop offset="1" stop-color="#30F9FC"/>
</linearGradient>
<linearGradient id="paint4_linear_29_612" x1="40.2137" y1="45.2414" x2="38.2891" y2="48.5809" gradientUnits="userSpaceOnUse">
<stop stop-color="#FFF800"/>
<stop offset="1" stop-color="#30F9FC"/>
</linearGradient>
<linearGradient id="paint5_linear_29_612" x1="44.7401" y1="45.2414" x2="42.8155" y2="48.5809" gradientUnits="userSpaceOnUse">
<stop stop-color="#FFF800"/>
<stop offset="1" stop-color="#30F9FC"/>
</linearGradient>
<linearGradient id="paint6_linear_29_612" x1="83.0809" y1="39.8967" x2="45.2076" y2="85.4957" gradientUnits="userSpaceOnUse">
<stop stop-color="#FFF800"/>
<stop offset="1" stop-color="#30F9FC"/>
</linearGradient>
</defs>
</svg>
