<svg width="148" height="148" fill="none" xmlns="http://www.w3.org/2000/svg"><circle cx="73.835" cy="73.996" r="72.835" stroke="url(#a)" stroke-width="2"/><path stroke="url(#b)" stroke-width="2" d="M24.421 45.647h89.393"/><path d="M114 61.5V42a4 4 0 0 0-4-4H28a4 4 0 0 0-4 4v53a4 4 0 0 0 4 4h33" stroke="url(#c)" stroke-width="2"/><circle cx="30.098" cy="42.404" r=".914" stroke="url(#d)"/><circle cx="34.625" cy="42.404" r=".914" stroke="url(#e)"/><circle cx="39.151" cy="42.404" r=".914" stroke="url(#f)"/><path d="M79.097 108.495v2.016c0 1.283-1.05 2.382-2.277 2.382h-8.493c-1.313 0-2.276-1.099-2.276-2.382v-8.979c0-5.405-.789-14.292 3.064-18.415h-2.539c-.875 0-1.576-.733-1.576-1.65v-1.65c0-.915.963-1.648 1.75-1.831l5.78-.825 3.851-7.512c1.05-1.558 3.415-3.207 5.254-3.482 10.068-1.558 20.575-1.558 30.73 0 1.839.275 4.203 1.924 5.254 3.482l3.852 7.512 5.778.825c.788.182 1.751.915 1.751 1.832v1.65c0 .915-.7 1.649-1.576 1.649h-2.539c3.852 4.123 3.064 13.01 3.064 18.415v8.979c0 1.283-1.05 2.382-2.276 2.382h-8.493c-1.226 0-2.277-1.099-2.277-2.382v-2.016a259.672 259.672 0 0 1-35.81 0h.003zm2.626-41.503c-1.665.182-3.766 1.74-4.728 3.115l-4.028 7.787-6.128.915c-.263 0-.526.183-.788.459-.175.183-.263.366-.263.55v1.65c0 .458.35.824.788.824h4.378l-.875.916c-4.203 4.122-3.24 12.551-3.24 18.323-.087 2.84-.087 5.773-.087 8.979 0 .824.7 1.557 1.576 1.557h8.493c.788 0 1.488-.733 1.488-1.557v-2.84c12.52.825 24.866.825 37.385 0v2.84c0 .824.701 1.557 1.489 1.557h8.493c.875 0 1.488-.733 1.488-1.557v-8.979c0-5.772.963-14.2-3.239-18.323a4.253 4.253 0 0 1-.875-.916h4.377c.438 0 .789-.366.789-.825v-1.65c0-.182-.088-.365-.263-.55-.262-.274-.526-.457-.875-.457l-6.041-.916-4.027-7.787c-.963-1.374-3.152-2.933-4.816-3.115-9.98-1.65-20.4-1.65-30.468 0h-.004zm30.205 3.573c1.051.367 1.751.733 2.364 1.74l3.151 6.505H76.557l3.151-6.505c.613-1.007 1.313-1.373 2.364-1.74a125.157 125.157 0 0 1 29.855 0h.001zm6.741 8.978-3.765-7.604c-.7-1.191-1.576-1.74-2.889-2.107-9.28-1.465-20.75-1.465-30.03 0-1.313.367-2.277.916-2.977 2.107l-3.677 7.604h43.338zm-.438 10.994c-2.539 0-4.552 2.107-4.552 4.673s2.013 4.673 4.552 4.673c2.539 0 4.466-2.107 4.466-4.673s-2.013-4.673-4.466-4.673zm0 .825c2.014 0 3.678 1.741 3.678 3.848 0 2.107-1.664 3.94-3.678 3.94-2.013 0-3.765-1.741-3.765-3.94 0-2.198 1.664-3.848 3.765-3.848zm-42.462-.825c2.45 0 4.465 2.107 4.465 4.673s-2.013 4.673-4.465 4.673c-2.453 0-4.466-2.107-4.466-4.673s2.014-4.673 4.466-4.673zm0 .825c-2.014 0-3.678 1.741-3.678 3.848 0 2.107 1.663 3.94 3.678 3.94 2.014 0 3.765-1.741 3.765-3.94 0-2.198-1.664-3.848-3.765-3.848z" stroke="url(#g)"/><defs><linearGradient id="a" x1="104.588" y1="-39.328" x2="4.125" y2="134.992" gradientUnits="userSpaceOnUse"><stop stop-color="#FFF800"/><stop offset="1" stop-color="#30F9FC"/></linearGradient><linearGradient id="b" x1="87.735" y1="46.38" x2="87.725" y2="47.952" gradientUnits="userSpaceOnUse"><stop stop-color="#FFF800"/><stop offset="1" stop-color="#30F9FC"/></linearGradient><linearGradient id="c" x1="87.744" y1="21.688" x2="55.234" y2="104.915" gradientUnits="userSpaceOnUse"><stop stop-color="#FFF800"/><stop offset="1" stop-color="#30F9FC"/></linearGradient><linearGradient id="d" x1="30.687" y1="40.233" x2="28.763" y2="43.572" gradientUnits="userSpaceOnUse"><stop stop-color="#FFF800"/><stop offset="1" stop-color="#30F9FC"/></linearGradient><linearGradient id="e" x1="35.214" y1="40.233" x2="33.289" y2="43.572" gradientUnits="userSpaceOnUse"><stop stop-color="#FFF800"/><stop offset="1" stop-color="#30F9FC"/></linearGradient><linearGradient id="f" x1="39.74" y1="40.233" x2="37.815" y2="43.572" gradientUnits="userSpaceOnUse"><stop stop-color="#FFF800"/><stop offset="1" stop-color="#30F9FC"/></linearGradient><linearGradient id="g" x1="110.329" y1="52.191" x2="82.941" y2="115.695" gradientUnits="userSpaceOnUse"><stop stop-color="#FFF800"/><stop offset="1" stop-color="#30F9FC"/></linearGradient></defs></svg>