<svg width="148" height="148" fill="none" xmlns="http://www.w3.org/2000/svg"><circle cx="73.835" cy="74.004" r="72.835" stroke="url(#a)" stroke-width="2"/><path stroke="url(#b)" stroke-width="2" d="M29.421 50.656h89.393"/><rect x="29.855" y="44.169" width="88.525" height="59.67" rx="3" stroke="url(#c)" stroke-width="2"/><circle cx="35.098" cy="47.412" r=".914" stroke="url(#d)"/><circle cx="39.624" cy="47.412" r=".914" stroke="url(#e)"/><circle cx="44.151" cy="47.412" r=".914" stroke="url(#f)"/><path d="M82.956 81.171a5.524 5.524 0 0 1-.783 2.842c-.503.87-1.257 1.595-2.262 2.175-.986.56-2.156.89-3.51.986v2.349h-1.855v-2.378c-1.934-.174-3.49-.754-4.67-1.74-1.179-1.005-1.788-2.359-1.826-4.06h4.35c.116 1.392.831 2.233 2.146 2.523v-5.539c-1.392-.348-2.514-.696-3.364-1.044-.851-.348-1.586-.909-2.204-1.682-.619-.773-.928-1.827-.928-3.161 0-1.682.599-3.055 1.798-4.118 1.218-1.063 2.784-1.672 4.698-1.827v-2.349h1.856v2.349c1.856.155 3.335.715 4.437 1.682 1.121.967 1.75 2.3 1.885 4.002h-4.38a2.58 2.58 0 0 0-.608-1.45c-.329-.425-.774-.725-1.334-.899v5.481c1.45.367 2.59.725 3.422 1.073.85.329 1.585.88 2.204 1.653.618.754.928 1.798.928 3.132zm-10.672-8.932c0 .638.193 1.16.58 1.566.386.387.947.706 1.682.957v-5.017c-.696.097-1.247.358-1.653.783-.406.425-.61.996-.61 1.711zm4.118 11.687c.734-.135 1.305-.435 1.71-.899.426-.464.639-1.025.639-1.682 0-.638-.203-1.15-.61-1.537-.405-.387-.985-.706-1.74-.957v5.075z" fill="url(#g)"/><defs><linearGradient id="a" x1="104.588" y1="-39.319" x2="4.125" y2="135.001" gradientUnits="userSpaceOnUse"><stop stop-color="#FFF800"/><stop offset="1" stop-color="#30F9FC"/></linearGradient><linearGradient id="b" x1="92.735" y1="51.388" x2="92.725" y2="52.961" gradientUnits="userSpaceOnUse"><stop stop-color="#FFF800"/><stop offset="1" stop-color="#30F9FC"/></linearGradient><linearGradient id="c" x1="92.97" y1="26.677" x2="59.98" y2="110.705" gradientUnits="userSpaceOnUse"><stop stop-color="#FFF800"/><stop offset="1" stop-color="#30F9FC"/></linearGradient><linearGradient id="d" x1="35.688" y1="45.241" x2="33.763" y2="48.581" gradientUnits="userSpaceOnUse"><stop stop-color="#FFF800"/><stop offset="1" stop-color="#30F9FC"/></linearGradient><linearGradient id="e" x1="40.214" y1="45.241" x2="38.289" y2="48.581" gradientUnits="userSpaceOnUse"><stop stop-color="#FFF800"/><stop offset="1" stop-color="#30F9FC"/></linearGradient><linearGradient id="f" x1="44.74" y1="45.241" x2="42.816" y2="48.581" gradientUnits="userSpaceOnUse"><stop stop-color="#FFF800"/><stop offset="1" stop-color="#30F9FC"/></linearGradient><linearGradient id="g" x1="83.081" y1="39.897" x2="45.208" y2="85.496" gradientUnits="userSpaceOnUse"><stop stop-color="#FFF800"/><stop offset="1" stop-color="#30F9FC"/></linearGradient></defs></svg>