<svg width="856" height="781" fill="none" xmlns="http://www.w3.org/2000/svg"><path opacity=".05" d="M804 644.829c.424-78.442-247.597-166.821-383.176-167.556C285.244 476.538 1.133 566.387.709 644.829c-.423 78.442 537.922 134.265 673.501 135 135.58.735 129.366-56.558 129.79-135z" fill="url(#a)"/><g opacity=".2" fill="#000"><path opacity=".09" d="m435.622 510.287 19.296-10.788c.782-.447 37.007-20.255 37.677-19.852l12.44-6.11c5.606-3.246 13.869-4.32 20.994-4.32 6.209 0 12.842 1.947 17.286 4.521l87.079 49.71 18.582 10.608 105.66 60.319c3.417 1.969 6.566 5.013 8.197 8.012 1.295 2.373 2.077 4.924 2.166 7.632.201 7.006-4.087 13.631-11.814 18.107l-19.297 10.788c-.781.448-37.007 20.255-37.677 19.852l-12.439 6.11c-5.606 3.246-13.87 4.32-20.994 4.32-6.209 0-12.842-1.947-17.286-4.521l-87.079-49.709-18.582-10.609-105.661-60.318c-3.417-1.97-6.566-5.014-8.196-8.013-1.296-2.373-2.077-4.924-2.167-7.632-.201-7.006 4.087-13.631 11.815-18.107z"/><path opacity=".18" d="m437.543 511.831 18.782-10.407c1.564-.918 35.488-18.778 36.851-17.995l12.082-4.991c5.048-2.932 13.825-3.111 20.257-3.111 5.583 0 12.663 2.395 16.661 4.7l84.533 48.3 18.023 10.295 102.557 58.595c3.059 1.768 6.566 4.946 8.107 7.632 1.317 2.283 2.211 4.678 2.367 7.274.402 6.715-3.663 13.205-11.256 17.592l-18.783 10.408c-1.563.917-35.488 18.778-36.85 17.994l-12.083 4.991c-5.047 2.932-13.824 3.111-20.257 3.111-5.583 0-12.663-2.394-16.66-4.7L557.34 613.22l-18.023-10.296-102.556-58.594c-3.06-1.769-6.566-4.969-8.107-7.633-1.318-2.283-2.211-4.677-2.368-7.274-.402-6.714 3.663-13.205 11.257-17.592z"/><path opacity=".27" d="m439.463 513.353 18.269-10.004c2.368-1.365 33.947-17.323 36.002-16.137l11.703-3.872c4.489-2.596 13.802-1.903 19.497-1.903 4.958 0 12.485 2.843 16.058 4.902l81.965 46.889 17.487 10.005 99.452 56.894c2.725 1.589 6.566 4.901 7.996 7.229 1.317 2.193 2.322 4.454 2.568 6.893.603 6.424-3.238 12.758-10.698 17.078l-18.269 10.004c-2.367 1.365-33.947 17.323-36.002 16.137l-11.703 3.872c-4.489 2.596-13.802 1.903-19.497 1.903-4.958 0-12.484-2.843-16.058-4.902l-81.964-46.889-17.488-10.005-99.452-56.894c-2.724-1.589-6.566-4.901-7.995-7.229-1.318-2.193-2.323-4.454-2.569-6.893-.603-6.424 3.239-12.758 10.698-17.078z"/><path opacity=".36" d="m441.406 514.898 17.733-9.624c3.149-1.813 32.429-15.846 35.154-14.257l11.345-2.753c3.931-2.283 13.758-.694 18.76-.694 4.333 0 12.306 3.29 15.433 5.08l79.419 45.48 16.928 9.691 96.348 55.171c2.39 1.387 6.588 4.834 7.884 6.848 1.295 2.015 2.457 4.208 2.769 6.536.804 6.155-2.836 12.31-10.162 16.562l-17.733 9.624c-3.149 1.813-32.428 15.846-35.153 14.257l-11.345 2.753c-3.931 2.283-13.758.694-18.761.694-4.332 0-12.305-3.29-15.432-5.081l-79.419-45.479-16.929-9.691-96.347-55.171c-2.39-1.387-6.589-4.834-7.884-6.848-1.295-2.015-2.457-4.208-2.769-6.536-.804-6.155 2.836-12.31 10.161-16.562z"/><path opacity=".45" d="m443.327 516.442 17.219-9.244c3.931-2.282 30.888-14.368 34.305-12.399l10.966-1.634c3.372-1.947 13.713.537 18.001.537 3.729 0 12.127 3.738 14.807 5.282l76.85 44.07 16.393 9.4 93.243 53.447c2.055 1.186 6.633 4.745 7.772 6.446 1.363 2.037 2.569 3.962 2.971 6.177 1.027 5.864-2.412 11.885-9.604 16.048l-17.219 9.243c-3.931 2.283-30.888 14.369-34.305 12.4l-10.965 1.634c-3.373 1.947-13.713-.537-18.001-.537-3.73 0-12.128-3.738-14.808-5.283l-76.85-44.069-16.393-9.4-93.243-53.447c-2.055-1.186-6.633-4.745-7.772-6.446-1.362-2.037-2.569-3.962-2.971-6.177-1.027-5.864 2.413-11.885 9.604-16.048z"/><path opacity=".55" d="m445.248 517.964 16.705-8.841c4.713-2.73 29.369-12.891 33.456-10.541l10.586-.538c2.814-1.633 13.691 1.746 17.264 1.746 3.105 0 11.971 4.186 14.182 5.461l74.304 42.659 15.835 9.087 90.139 51.747c1.697.984 6.678 4.677 7.66 6.065 1.385 1.947 2.703 3.715 3.172 5.797 1.228 5.595-1.988 11.437-9.045 15.533l-16.706 8.84c-4.712 2.731-29.369 12.892-33.456 10.542l-10.586.537c-2.814 1.634-13.691-1.746-17.264-1.746-3.104 0-11.971-4.185-14.182-5.461l-74.304-42.659-15.835-9.087-90.139-51.746c-1.697-.985-6.677-4.678-7.66-6.065-1.385-1.948-2.702-3.716-3.171-5.797-1.229-5.596 1.987-11.437 9.045-15.533z"/><path opacity=".64" d="m447.191 519.508 16.192-8.46c5.494-3.178 27.85-11.437 32.607-8.684l10.229.582c2.255-1.298 13.646 2.954 16.504 2.954 2.479 0 11.793 4.633 13.557 5.663l71.736 41.227 15.298 8.796 87.035 50.022c1.362.784 6.722 4.589 7.548 5.685 1.43 1.88 2.837 3.47 3.373 5.439 1.429 5.305-1.564 11.012-8.487 15.018l-16.192 8.46c-5.494 3.178-27.85 11.437-32.607 8.684l-10.229-.582c-2.256 1.299-13.646-2.954-16.505-2.954-2.479 0-11.792-4.633-13.556-5.662l-71.736-41.227-15.298-8.796-87.035-50.023c-1.362-.783-6.722-4.588-7.549-5.685-1.429-1.88-2.836-3.469-3.372-5.439-1.429-5.304 1.563-11.011 8.487-14.995v-.023z"/><path opacity=".73" d="m449.111 521.03 15.656-8.079c6.298-3.649 26.309-9.96 31.759-6.804l9.849 1.701c1.675-.985 13.624 4.163 15.768 4.163 1.853 0 11.613 5.08 12.953 5.841l69.168 39.817 14.74 8.483 83.93 48.321c1.027.582 6.968 4.387 7.437 5.282 1.787 1.5 2.948 3.223 3.573 5.059 1.653 5.013-1.139 10.564-7.928 14.48l-15.656 8.08c-6.298 3.648-26.309 9.96-31.759 6.804l-9.849-1.701c-1.675.985-13.623-4.163-15.767-4.163-1.854 0-11.614-5.08-12.954-5.841l-69.167-39.817-14.741-8.483-83.93-48.322c-1.027-.581-6.968-4.386-7.437-5.282-1.786-1.499-2.948-3.222-3.573-5.058-1.653-5.013 1.139-10.564 7.928-14.481z"/><path opacity=".82" d="m451.032 522.575 15.142-7.677c7.08-4.096 24.791-8.483 30.91-4.947l9.492 2.821c1.117-.65 13.579 5.393 15.008 5.393 1.251 0 11.435 5.506 12.328 6.021l66.622 38.407 14.204 8.191 80.826 46.599c.692.403 7.012 4.297 7.325 4.901 1.832 1.388 3.082 2.977 3.752 4.701 1.876 4.722-.714 10.116-7.37 13.966l-15.142 7.676c-7.08 4.096-24.791 8.483-30.91 4.947l-9.492-2.82c-1.116.649-13.579-5.394-15.008-5.394-1.251 0-11.435-5.506-12.328-6.021l-66.622-38.407-14.204-8.191-80.825-46.599c-.693-.402-7.013-4.297-7.326-4.901-1.831-1.388-3.082-2.977-3.752-4.7-1.876-4.723.715-10.117 7.37-13.966z"/><path opacity=".91" d="m452.953 524.097 14.628-7.297c7.862-4.543 23.25-7.028 30.062-3.089l9.112 3.94c.558-.336 13.534 6.602 14.249 6.602.625 0 11.256 5.954 11.702 6.222l64.053 36.997 13.646 7.878 77.722 44.875c.335.202 7.057 4.208 7.213 4.499 1.899 1.253 3.216 2.731 3.953 4.342 2.077 4.454-.29 9.691-6.811 13.451l-14.629 7.297c-7.861 4.543-23.249 7.027-30.061 3.088l-9.112-3.939c-.559.336-13.534-6.602-14.249-6.602-.625 0-11.256-5.954-11.703-6.222l-64.053-36.997-13.646-7.878-77.721-44.875c-.335-.202-7.058-4.208-7.214-4.499-1.898-1.254-3.216-2.731-3.953-4.342-2.077-4.454.29-9.691 6.812-13.451z"/><path d="m642.454 652.298-94.829-54.879-94.828-54.88c-7.482-4.342-6.544-11.907 2.099-16.898l14.093-6.916c8.643-5.013 21.73-5.551 29.212-1.209l94.829 54.88 94.829 54.88c7.481 4.342 6.543 11.906-2.1 16.898l-14.092 6.915c-8.643 5.014-21.731 5.551-29.213 1.209z"/></g><path d="M650.943 639.984 480.805 541.55c-19.185-11.101-34.751-40.891-34.751-66.541V30.378c0-13.049-10.698-15.914-4.221-20.614.245-.179 15.187-6.983 15.477-7.095 6.968-2.685 14.428-3.872 23.495 1.366l170.138 98.434c19.185 11.101 34.751 40.891 34.751 66.54v444.632c0 13.63-4.399 23.344-11.39 27.775-.424.269-18.425 8.841-18.872 8.998-6.209 2.081 3.909-5.596-4.489-10.453v.023z" fill="url(#b)"/><path style="mix-blend-mode:color-dodge" d="M649.38 103.006 479.242 4.572c-9.068-5.237 160.713 101.567 160.713 101.567 19.185 11.102 34.751 40.891 34.751 66.541 0 0 9.403 455.106 9.403 441.498V169.546c0-25.649-15.567-55.439-34.752-66.54h.023z" fill="url(#c)"/><path style="mix-blend-mode:screen" opacity=".6" d="m637.722 646.027-170.139-98.434c-19.184-11.101-34.751-40.891-34.751-66.54V36.421c0-25.65 15.567-37.422 34.751-26.32l170.139 98.433c19.184 11.101 34.751 40.891 34.751 66.54v444.632c0 25.649-15.567 37.422-34.751 26.321z" fill="url(#d)"/><path d="m634.684 647.661-170.138-98.434c-19.185-11.102-34.751-40.891-34.751-66.541V38.077c0-25.65 15.566-37.422 34.751-26.32l170.138 98.433c19.185 11.102 34.751 40.891 34.751 66.541v444.631c0 25.65-15.566 37.422-34.751 26.321v-.022z" fill="url(#e)"/><path d="M434.552 485.73V40.539c0-22.471 13.646-32.811 30.463-23.075l169.223 97.919c16.817 9.736 30.463 35.855 30.463 58.326V618.9c0 22.472-13.646 32.812-30.463 23.076l-169.223-97.919c-16.817-9.736-30.463-35.856-30.463-58.327z" fill="url(#f)"/><path d="M441.319 488.483V45.597c0-18.823 11.413-27.462 25.505-19.315l165.604 95.815c14.071 8.147 25.506 30.014 25.506 48.814v442.886c0 18.823-11.413 27.463-25.506 19.316l-165.604-95.816c-14.07-8.146-25.505-30.013-25.505-48.814z" fill="url(#g)"/><path d="M468.745 31.273c-13.266-7.677-24.031-1.522-24.031 13.72V492.96c0 15.264 10.765 33.863 24.031 41.54l161.785 93.599c13.266 7.677 24.031 1.522 24.031-13.72V166.413c0-15.264-10.765-33.864-24.031-41.54l-161.785-93.6z" fill="url(#h)"/><path d="M674.014 281.767v-30.64c0-3.917 2.367-8.483 5.315-10.161 2.926-1.701 5.316.112 5.316 4.028v30.641c0 3.916-2.368 8.482-5.316 10.161-2.925 1.701-5.315-.112-5.315-4.029z" fill="url(#i)"/><path d="M677.208 285.281c-1.519 0-2.055-1.902-2.055-3.514v-30.64c0-3.492 2.166-7.677 4.735-9.177.558-.313 1.072-.492 1.541-.492 1.518 0 2.054 1.903 2.054 3.514v30.64c0 3.492-2.166 7.677-4.734 9.177-.559.313-1.072.492-1.541.492z" fill="url(#j)"/><path style="mix-blend-mode:color-dodge" d="M676.716 282.551V251.91c0-3.491 2.167-7.677 4.735-9.176.491-.269.938-.425 1.362-.448-.312-.492-.781-.806-1.384-.806-.447 0-.983.18-1.541.493-2.569 1.477-4.735 5.685-4.735 9.176v30.641c0 1.611.536 3.514 2.055 3.514.044 0 .111-.023.178-.023-.469-.694-.67-1.746-.67-2.686v-.044z" fill="url(#k)"/><path opacity=".3" d="m654.512 553.146-148.007 82.848-95.119-55.036 243.126-139.059v111.247z" fill="#310070"/><path opacity=".7" d="m416.559 580.311 237.953-135.825v105.426L507.01 632.639l-90.451-52.328z" fill="#666"/><path d="M311.538 693.028c-.581 0-1.139-.291-1.429-.828a1.664 1.664 0 0 1 .625-2.261l8.599-4.901a1.656 1.656 0 0 1 2.255.627c.447.783.179 1.79-.625 2.26l-8.599 4.902a1.571 1.571 0 0 1-.804.224l-.022-.023z" fill="url(#l)" style="mix-blend-mode:screen"/><path d="m595.645 153.656.045-.045-.045.045z" fill="url(#m)"/><path d="m657.822 397.345.022.045v-.067l-.022.022z" fill="url(#n)"/><path d="M309.321 740.91a1.03 1.03 0 0 1-.893-.514c-.268-.493-.112-1.119.379-1.388l10.587-6.043c.491-.269 1.116-.112 1.384.38.268.493.112 1.12-.379 1.388l-10.587 6.043a1.01 1.01 0 0 1-.491.134zm21.172-12.108c-.357 0-.692-.179-.893-.515-.268-.492-.112-1.119.38-1.387l10.586-6.043c.491-.269 1.117-.112 1.385.38s.111 1.119-.38 1.388l-10.586 6.043a1.024 1.024 0 0 1-.492.134zm21.173-12.108a1.03 1.03 0 0 1-.894-.515c-.268-.493-.111-1.119.38-1.388l10.586-6.043c.492-.268 1.117-.112 1.385.381.268.492.112 1.119-.38 1.387l-10.586 6.043c-.156.09-.335.135-.491.135zm21.172-12.109c-.357 0-.692-.179-.893-.515-.268-.492-.112-1.119.379-1.387l10.587-6.043a.996.996 0 0 1 1.384.38c.268.493.112 1.119-.379 1.388l-10.587 6.043a1.02 1.02 0 0 1-.491.134zm21.172-12.108c-.357 0-.692-.179-.893-.515-.268-.492-.112-1.119.38-1.388l10.586-6.043c.491-.268 1.117-.112 1.385.381.268.492.111 1.119-.38 1.387l-10.586 6.043c-.157.09-.335.135-.492.135zm21.173-12.109a1.03 1.03 0 0 1-.894-.514c-.268-.493-.111-1.12.38-1.388l10.586-6.043c.492-.269 1.117-.112 1.385.38.268.493.112 1.119-.38 1.388l-10.586 6.043a1.01 1.01 0 0 1-.491.134zm21.172-12.108c-.357 0-.692-.179-.893-.515-.268-.492-.112-1.119.379-1.387l10.587-6.044c.491-.268 1.116-.111 1.384.381.268.492.112 1.119-.379 1.388l-10.587 6.043a1.02 1.02 0 0 1-.491.134zm21.172-12.109a1.03 1.03 0 0 1-.893-.514c-.268-.493-.112-1.119.38-1.388l10.586-6.043a.997.997 0 0 1 1.385.381c.268.492.111 1.119-.38 1.387l-10.586 6.043c-.157.09-.335.134-.492.134zm21.173-12.108a1.03 1.03 0 0 1-.894-.515c-.268-.492-.111-1.119.38-1.387l10.586-6.043c.492-.269 1.117-.112 1.385.38.268.493.112 1.119-.38 1.388l-10.586 6.043a1.02 1.02 0 0 1-.491.134zm21.172-12.108c-.357 0-.692-.179-.893-.515-.268-.492-.112-1.119.379-1.388l10.587-6.043a.996.996 0 0 1 1.384.381c.268.492.112 1.119-.379 1.387l-10.586 6.043c-.157.09-.335.135-.492.135zm21.172-12.109c-.357 0-.692-.179-.893-.515-.268-.492-.112-1.119.38-1.387l10.586-6.043c.491-.269 1.117-.112 1.385.38.268.493.111 1.119-.38 1.388l-10.586 6.043a1.01 1.01 0 0 1-.492.134zm21.173-12.108a1.03 1.03 0 0 1-.894-.515c-.268-.492-.111-1.119.38-1.388l10.586-6.043c.492-.268 1.117-.112 1.385.381.268.492.112 1.119-.38 1.388l-10.586 6.043a1.02 1.02 0 0 1-.491.134zm21.172-12.109a1.03 1.03 0 0 1-.893-.514c-.268-.493-.112-1.119.379-1.388l10.587-6.043c.491-.269 1.116-.112 1.384.38.268.493.112 1.12-.379 1.388l-10.586 6.043c-.157.09-.335.134-.492.134zm21.173-12.108a1.03 1.03 0 0 1-.894-.515c-.268-.492-.111-1.119.38-1.387l10.586-6.043c.491-.269 1.117-.112 1.385.38s.111 1.119-.38 1.388l-10.586 6.043a1.02 1.02 0 0 1-.491.134zm21.172-12.108c-.358 0-.692-.179-.893-.515-.268-.493-.112-1.119.379-1.388l10.586-6.043a.996.996 0 0 1 1.385.381c.268.492.112 1.119-.38 1.387l-10.586 6.043c-.156.09-.335.135-.491.135zm21.172-12.109c-.357 0-.692-.179-.893-.515-.268-.492-.112-1.119.38-1.387l10.586-6.043a.996.996 0 0 1 1.384.38c.268.493.112 1.119-.379 1.388l-10.586 6.043a1.024 1.024 0 0 1-.492.134z" fill="#fff" style="mix-blend-mode:screen" opacity=".5"/><g style="mix-blend-mode:screen" opacity=".5"><path d="M124.024 755.473c-.357 0-.692-.179-.893-.515-.268-.493-.112-1.119.38-1.388l5.293-3.021c.491-.269 1.116-.112 1.384.38.268.493.112 1.119-.379 1.388l-5.293 3.021c-.157.09-.335.135-.492.135z" fill="url(#o)"/><path d="M183.02 720.148c-.357 0-.692-.179-.893-.515-.268-.492-.112-1.119.38-1.387l10.429-5.954a.996.996 0 0 1 1.385.381c.268.492.112 1.119-.379 1.387l-10.43 5.954a1.024 1.024 0 0 1-.492.134zm20.86-11.907c-.357 0-.692-.179-.893-.515-.268-.492-.112-1.119.379-1.387l10.43-5.954c.491-.268 1.117-.112 1.385.381.268.492.112 1.119-.38 1.387l-10.43 5.954a1.02 1.02 0 0 1-.491.134zm20.86-11.907a1.03 1.03 0 0 1-.894-.515c-.268-.492-.111-1.119.38-1.387l10.43-5.954a.997.997 0 0 1 1.385.381c.268.492.111 1.119-.38 1.387l-10.43 5.954a1.02 1.02 0 0 1-.491.134zm20.859-11.929c-.357 0-.692-.179-.893-.515-.268-.492-.112-1.119.38-1.388l10.429-5.953c.492-.269 1.117-.112 1.385.38.268.493.112 1.119-.379 1.388l-10.43 5.954a1.024 1.024 0 0 1-.492.134zm20.86-11.907c-.357 0-.692-.179-.893-.515-.268-.492-.112-1.119.379-1.388l10.43-5.953a.997.997 0 0 1 1.385.38c.268.493.112 1.119-.38 1.388l-10.43 5.954a1.02 1.02 0 0 1-.491.134zm20.86-11.907a1.03 1.03 0 0 1-.894-.515c-.268-.492-.111-1.119.38-1.388l10.43-5.953c.491-.269 1.117-.112 1.385.38.268.493.111 1.119-.38 1.388l-10.43 5.954a1.02 1.02 0 0 1-.491.134zm20.859-11.907c-.357 0-.692-.179-.893-.515-.268-.492-.112-1.119.38-1.388l10.429-5.953c.492-.269 1.117-.112 1.385.38.268.493.112 1.119-.379 1.388l-10.43 5.954a1.024 1.024 0 0 1-.492.134zm20.86-11.907c-.357 0-.692-.179-.893-.515-.268-.492-.112-1.119.379-1.388l10.43-5.953a.997.997 0 0 1 1.385.38c.268.493.112 1.12-.38 1.388l-10.43 5.954a1.02 1.02 0 0 1-.491.134zm20.86-11.907a1.03 1.03 0 0 1-.894-.515c-.268-.492-.111-1.119.38-1.388l10.43-5.953c.491-.269 1.117-.112 1.385.38.268.493.111 1.12-.38 1.388l-10.43 5.954a1.02 1.02 0 0 1-.491.134zm20.859-11.907c-.357 0-.692-.179-.893-.515-.268-.492-.112-1.119.38-1.388l10.429-5.953a.997.997 0 0 1 1.385.38c.268.493.112 1.12-.38 1.388l-10.429 5.954a1.024 1.024 0 0 1-.492.134zm20.86-11.907c-.357 0-.692-.179-.893-.515-.268-.492-.112-1.119.379-1.388l10.43-5.953c.491-.269 1.117-.112 1.385.38.268.493.112 1.12-.38 1.388l-10.43 5.954a1.02 1.02 0 0 1-.491.134zm20.86-11.907a1.03 1.03 0 0 1-.894-.515c-.268-.492-.111-1.119.38-1.387l10.43-5.954c.491-.269 1.117-.112 1.385.38.268.493.111 1.12-.38 1.388l-10.43 5.954a1.02 1.02 0 0 1-.491.134zm20.859-11.907c-.357 0-.692-.179-.893-.515-.268-.492-.112-1.119.38-1.387l10.43-5.954c.491-.269 1.116-.112 1.384.381.268.492.112 1.119-.379 1.387l-10.43 5.954a1.024 1.024 0 0 1-.492.134zm20.86-11.907c-.357 0-.692-.179-.893-.515-.268-.492-.112-1.119.379-1.387l10.43-5.954c.492-.269 1.117-.112 1.385.381.268.492.112 1.119-.38 1.387l-10.43 5.954a1.02 1.02 0 0 1-.491.134zm20.86-11.907a1.03 1.03 0 0 1-.894-.515c-.268-.492-.111-1.119.38-1.387l10.43-5.954c.491-.268 1.117-.112 1.385.381.268.492.111 1.119-.38 1.387l-10.43 5.954a1.02 1.02 0 0 1-.491.134zm20.859-11.907c-.357 0-.692-.179-.893-.515-.268-.492-.112-1.119.38-1.387l10.43-5.954c.491-.268 1.116-.112 1.384.381.268.492.112 1.119-.379 1.387l-10.43 5.954a1.024 1.024 0 0 1-.492.134zm20.86-11.907c-.357 0-.692-.179-.893-.515-.268-.492-.112-1.119.379-1.387l10.43-5.954a.996.996 0 0 1 1.385.381c.268.492.112 1.119-.38 1.387l-10.43 5.954a1.02 1.02 0 0 1-.491.134zm20.86-11.907a1.03 1.03 0 0 1-.894-.515c-.268-.492-.111-1.119.38-1.387l10.43-5.954c.491-.268 1.117-.112 1.385.381.268.492.111 1.119-.38 1.387l-10.43 5.954a1.02 1.02 0 0 1-.491.134zm20.859-11.907c-.357 0-.692-.179-.893-.515-.268-.492-.112-1.119.38-1.387l10.43-5.954c.491-.268 1.116-.112 1.384.381.268.492.112 1.119-.379 1.387l-10.43 5.954a1.024 1.024 0 0 1-.492.134zm20.86-11.907c-.357 0-.692-.179-.893-.515-.268-.492-.112-1.119.379-1.387l10.43-5.954c.492-.268 1.117-.112 1.385.381.268.492.112 1.119-.38 1.387l-10.43 5.954a1.02 1.02 0 0 1-.491.134zm20.86-11.907a1.03 1.03 0 0 1-.894-.515c-.268-.492-.111-1.119.38-1.387l10.43-5.954c.491-.268 1.117-.112 1.385.381.268.492.111 1.119-.38 1.387l-10.43 5.954a1.02 1.02 0 0 1-.491.134z" fill="#fff"/><path d="M577.8 496.227c-.357 0-.692-.179-.893-.515-.268-.492-.112-1.119.38-1.387l5.293-3.022c.491-.268 1.116-.112 1.384.381.268.492.112 1.119-.379 1.387l-5.293 3.022a1.024 1.024 0 0 1-.492.134z" fill="url(#p)"/></g><path d="m415.479 677.473-24.634-11.885 26.041-8.885-1.407 20.77z" fill="url(#q)"/><path d="m531.882 611.447-24.634-11.907 26.041-8.863-1.407 20.77z" fill="url(#r)"/><path opacity=".2" d="m536.17 624.496-133.443 76.321a73.65 73.65 0 0 1-73.456-.179l-31.155-18.017c-3.15-1.836-3.172-6.401 0-8.237l166.899-96.912a4.756 4.756 0 0 1 4.757 0l66.421 38.765c3.149 1.835 3.126 6.424-.045 8.236l.022.023z" fill="#16032E"/><path d="M493.692 623.131c0 4.297 1.474 7.318 3.886 8.796.067.044 7.571 4.409 7.66 4.431 2.502 1.41.894-1.768 4.69-3.962 7.638-4.409 13.825-15.107 13.825-23.881 0-4.342 3.998-4.364 1.541-5.819-.067-.045-8.063-4.476-8.13-4.498-2.479-1.343-5.896-1.097-9.648 1.074-7.638 4.409-13.824 15.107-13.824 23.881v-.022z" fill="url(#s)"/><path d="M501.687 627.674c0 8.774 6.187 12.31 13.825 7.901 7.638-4.41 13.824-15.108 13.824-23.881 0-8.774-6.186-12.31-13.824-7.901-7.638 4.409-13.825 15.107-13.825 23.881z" fill="url(#t)"/><path style="mix-blend-mode:screen" d="M514.842 603.457c3.662-2.126 6.99-2.395 9.447-1.164-2.301-.649-5.159-.156-8.264 1.634-7.638 4.409-13.824 15.108-13.824 23.881 0 4.566 1.675 7.722 4.355 9.065-3.373-.94-5.561-4.32-5.561-9.535 0-8.773 6.186-19.472 13.824-23.881h.023z" fill="url(#u)"/><path style="mix-blend-mode:multiply" d="M504.412 626.063c0 6.759 4.757 9.489 10.653 6.087 5.874-3.402 10.653-11.638 10.653-18.397 0-6.76-4.757-9.49-10.653-6.088-5.874 3.402-10.653 11.638-10.653 18.398zm7.035-4.253v.403c0 .358-.156.828-.447 1.186l-3.305 4.096c-.491.604-1.139.694-1.273.157a9.673 9.673 0 0 1-.313-2.529c0-.941.112-1.903.313-2.888.156-.716.782-1.387 1.273-1.343l3.305.291c.291.023.469.269.447.649v-.022zm-2.747-5.461c1.094-1.925 2.501-3.671 4.065-5.058.558-.493 1.116-.336 1.116.335v4.365c0 .38-.178.85-.469 1.186-.111.112-.201.246-.29.358-.268.358-.625.56-.916.537l-3.305-.291c-.491-.044-.603-.761-.201-1.477v.045zm8.665-7.722c1.564-.425 2.948-.291 4.065.358.402.224.313 1.075-.201 1.679l-3.305 4.096c-.291.358-.648.559-.916.515-.089 0-.201-.023-.29-.023-.291 0-.469-.268-.469-.649v-4.364c0-.672.558-1.455 1.116-1.612zm6.343 3.581c.201.739.313 1.589.313 2.529s-.112 1.903-.313 2.888c-.156.716-.781 1.387-1.273 1.343l-3.305-.291c-.291-.023-.469-.269-.447-.649v-.403c0-.358.156-.828.447-1.187l3.305-4.095c.492-.605 1.139-.694 1.273-.157v.022zm-2.278 11.303c-1.094 1.925-2.501 3.671-4.065 5.058-.558.493-1.116.336-1.116-.335v-4.365c0-.38.178-.85.469-1.186.111-.112.201-.246.29-.358.268-.358.625-.56.916-.537l3.305.291c.491.044.603.761.201 1.477v-.045zm-8.665 7.722c-1.564.425-2.971.291-4.065-.358-.402-.224-.313-1.075.201-1.679l3.305-4.096c.291-.358.648-.559.916-.515.089 0 .201.023.29.023.291 0 .469.268.469.649v4.364c0 .672-.558 1.455-1.116 1.612z" fill="url(#v)"/><path d="M505.082 626.331c0 6.759 4.757 9.49 10.653 6.088 5.874-3.402 10.653-11.639 10.653-18.398s-4.757-9.49-10.653-6.088c-5.874 3.402-10.653 11.639-10.653 18.398zm7.035-4.252v.402c0 .359-.156.829-.447 1.187l-3.305 4.095c-.491.605-1.139.694-1.273.157a9.667 9.667 0 0 1-.313-2.529c0-.94.112-1.902.313-2.887.156-.716.782-1.388 1.273-1.343l3.305.291c.291.022.469.268.447.649v-.022zm-2.747-5.461c1.094-1.925 2.501-3.671 4.065-5.059.558-.492 1.116-.335 1.116.336v4.364c0 .381-.178.851-.469 1.187-.111.112-.201.246-.29.358-.268.358-.625.559-.916.537l-3.305-.291c-.491-.045-.603-.761-.201-1.477v.045zm8.665-7.722c1.564-.425 2.948-.291 4.065.358.402.224.313 1.074-.201 1.679l-3.305 4.095c-.291.358-.648.56-.916.515-.089 0-.201-.022-.29-.022-.291 0-.469-.269-.469-.649v-4.365c0-.671.558-1.454 1.116-1.611zm6.343 3.581c.201.739.313 1.589.313 2.529s-.112 1.902-.313 2.887c-.156.716-.781 1.388-1.295 1.343l-3.306-.291c-.29-.022-.469-.268-.446-.649v-.403c0-.358.156-.828.446-1.186l3.306-4.096c.491-.604 1.139-.694 1.295-.156v.022zM522.1 623.78c-1.094 1.924-2.501 3.67-4.065 5.058-.558.492-1.116.336-1.116-.336v-4.364c0-.381.178-.851.469-1.187.111-.111.201-.246.29-.358.268-.358.625-.559.916-.537l3.305.291c.492.045.603.761.201 1.477v-.044zm-8.665 7.721c-1.564.425-2.948.291-4.065-.358-.402-.224-.313-1.074.201-1.678l3.305-4.096c.291-.358.648-.56.916-.515.089 0 .201.022.29.022.291 0 .469.269.469.649v4.365c0 .671-.558 1.455-1.116 1.611z" fill="url(#w)"/><path d="M377.579 688.485c0 4.297 1.474 7.318 3.886 8.796.067.044 7.571 4.409 7.66 4.431 2.502 1.41.894-1.768 4.69-3.961 7.639-4.41 13.825-15.108 13.825-23.881 0-4.342 3.998-4.365 1.541-5.82-.067-.044-8.062-4.476-8.129-4.498-2.502-1.343-5.897-1.097-9.649 1.074-7.638 4.409-13.824 15.108-13.824 23.881v-.022z" fill="url(#x)"/><path d="M385.597 693.028c0 8.774 6.186 12.31 13.824 7.901 7.638-4.409 13.825-15.108 13.825-23.881 0-8.774-6.187-12.31-13.825-7.901-7.638 4.409-13.824 15.108-13.824 23.881z" fill="url(#y)"/><path style="mix-blend-mode:screen" d="M398.751 668.811c3.663-2.126 6.991-2.395 9.447-1.164-2.3-.649-5.159-.156-8.263 1.634-7.638 4.409-13.825 15.108-13.825 23.881 0 4.566 1.675 7.722 4.355 9.065-3.372-.94-5.561-4.32-5.561-9.535 0-8.773 6.187-19.472 13.825-23.881h.022z" fill="url(#z)"/><path style="mix-blend-mode:multiply" d="M388.321 691.417c0 6.759 4.757 9.489 10.654 6.087 5.873-3.402 10.653-11.638 10.653-18.397 0-6.759-4.757-9.49-10.653-6.088-5.874 3.402-10.654 11.638-10.654 18.398zm7.036-4.253v.403c0 .358-.157.828-.447 1.186l-3.306 4.096c-.491.604-1.139.694-1.273.157a9.675 9.675 0 0 1-.312-2.529c0-.94.111-1.903.312-2.888.157-.716.782-1.387 1.273-1.342l3.306.29c.29.023.469.269.447.65v-.023zm-2.748-5.461c1.095-1.925 2.502-3.671 4.065-5.058.559-.493 1.117-.336 1.117.336v4.364c0 .38-.179.85-.469 1.186-.112.112-.201.246-.29.358-.268.358-.626.56-.916.537l-3.306-.291c-.491-.044-.603-.76-.201-1.477v.045zm8.666-7.722c1.563-.425 2.948-.291 4.065.359.402.223.312 1.074-.201 1.678l-3.306 4.096c-.29.358-.647.559-.915.515-.09 0-.201-.023-.291-.023-.29 0-.469-.268-.469-.649v-4.364c0-.672.559-1.455 1.117-1.612zm6.343 3.581c.201.739.312 1.59.312 2.53 0 .94-.111 1.902-.312 2.887-.157.716-.782 1.388-1.273 1.343l-3.306-.291c-.29-.023-.469-.269-.446-.649v-.403c0-.358.156-.828.446-1.186l3.306-4.096c.491-.605 1.139-.694 1.273-.157v.022zm-2.278 11.303c-1.095 1.925-2.502 3.671-4.065 5.058-.558.493-1.117.336-1.117-.335v-4.365c0-.38.179-.85.469-1.186.112-.112.201-.246.291-.358.268-.358.625-.56.915-.537l3.306.291c.491.045.603.761.201 1.477v-.045zm-8.666 7.722c-1.563.425-2.948.291-4.065-.358-.402-.224-.312-1.075.201-1.679l3.306-4.096c.29-.358.648-.559.916-.515.089 0 .201.023.29.023.29 0 .469.268.469.649v4.364c0 .672-.558 1.455-1.117 1.612z" fill="url(#A)"/><path d="M388.969 691.685c0 6.759 4.757 9.49 10.653 6.088 5.874-3.402 10.653-11.638 10.653-18.398 0-6.759-4.757-9.489-10.653-6.087-5.874 3.402-10.653 11.638-10.653 18.397zm7.035-4.252v.403c0 .358-.156.828-.447 1.186l-3.305 4.096c-.491.604-1.139.694-1.273.156a9.667 9.667 0 0 1-.313-2.529c0-.94.112-1.902.313-2.887.156-.716.782-1.388 1.273-1.343l3.305.291c.291.022.469.269.447.649v-.022zm-2.747-5.461c1.094-1.925 2.501-3.671 4.065-5.059.558-.492 1.116-.335 1.116.336v4.365c0 .38-.178.85-.469 1.186-.111.112-.201.246-.29.358-.268.358-.625.559-.916.537l-3.305-.291c-.491-.045-.603-.761-.201-1.477v.045zm8.666-7.722c1.563-.425 2.948-.291 4.064.358.402.224.313 1.074-.201 1.679l-3.305 4.096c-.29.358-.648.559-.916.514-.089 0-.201-.022-.29-.022-.29 0-.469-.269-.469-.649v-4.365c0-.671.558-1.454 1.117-1.611zm6.342 3.581c.201.739.313 1.589.313 2.529s-.112 1.903-.313 2.887c-.156.717-.781 1.388-1.273 1.343l-3.305-.291c-.29-.022-.469-.268-.447-.649v-.403c0-.358.157-.828.447-1.186l3.305-4.096c.492-.604 1.139-.693 1.273-.156v.022zm-2.278 11.303c-1.094 1.925-2.501 3.67-4.064 5.058-.559.492-1.117.336-1.117-.336v-4.364c0-.381.179-.851.469-1.186.112-.112.201-.247.29-.358.268-.359.626-.56.916-.538l3.305.291c.492.045.603.761.201 1.478v-.045zm-8.665 7.721c-1.564.426-2.948.291-4.065-.358-.402-.224-.313-1.074.201-1.678l3.305-4.096c.291-.358.648-.56.916-.515.089 0 .201.022.29.022.291 0 .469.269.469.65v4.364c0 .671-.558 1.455-1.116 1.611z" fill="url(#B)"/><path d="M398.237 667.11c2.547-1.477 5.026-2.216 7.371-2.216 5.516 0 9.223 3.962 9.849 12.579l84.086-44.696c-.134-3.223-.201-4.141-.201-5.103 0-9.669 6.589-21.061 14.986-25.918 2.546-1.477 5.025-2.216 7.37-2.216 6.008 0 9.916 4.723 9.961 12.019 3.082-3.894 7.593-10.519 7.593-16.025 0-11.482-11.144-28.335-36.537-35.609-23.384-6.692-33.255-6.938-49.135-3.536-15.879 3.402-17.197 5.752-24.745 6.535-7.549.784-10.944-7.296-47.906 13.832-36.985 21.128-52.864 40.981-61.194 47.247-8.331 6.267-13.535 8.752-16.416 13.183-2.858 4.432-5.851 26.612-1.697 33.147 4.176 6.536 46.878 27.664 57.822 28.716 10.05.962 21.932-5.663 23.83-6.759.335-9.49 6.767-20.412 14.963-25.135v-.045z" fill="url(#C)"/><path opacity=".5" d="M526.634 572.347c-5.807-5.036-13.691-9.512-23.897-12.422-15.075-4.297-24.523-5.931-33.59-5.663-7.638 1.836-16.505 4.745-23.741 8.08-10.34 4.768 45.427 26.388 45.427 26.388 9.581.716 30.954-10.049 35.801-16.406v.023z" fill="url(#D)" fill-opacity=".5"/><path opacity=".5" d="M390.309 625.033s13.936-17.771 32.808-28.447c22.178-12.534 33.746-13.474 33.746-13.474l-17.331-14.19-22.289-6.356s-11.568 1.679-27.135 10.094c-15.567 8.416-48.464 33.438-48.464 33.438l48.665 18.935z" fill="url(#E)"/><path d="M345.575 603.681c-6.365 1.03-22.111 16.092-22.624 22.941-.536 6.849 28.162 24.53 45.516 21.352 17.375-3.156 23.673-21.106 22.624-24.799-1.05-3.693-32.362-21.62-45.516-19.516v.022z" fill="url(#F)"/><path d="M364.156 647.012c-13.78 0-31.669-9.848-37.922-16.63-2.122-2.305-2.167-3.402-2.144-3.603.469-6.178 15.879-20.837 21.574-21.755.625-.112 1.34-.157 2.099-.157 13.758 0 40.648 15.667 42.278 18.845.223.829-.424 5.103-3.596 10.229-2.456 3.961-8.085 10.9-18.09 12.713a24.683 24.683 0 0 1-4.176.358h-.023z" fill="url(#G)"/><path d="M414.787 562.23s21.708-.604 34.997.694c13.288 1.298 27.626 6.536 34.863 13.63 6.074 5.954 11.658 12.982 6.186 12.198-5.472-.783-32.027-5.214-34.104-5.752-2.077-.514-8.643-6.155-19.609-12.421-10.161-5.82-22.311-8.349-22.311-8.349h-.022z" fill="url(#H)"/><path d="M488.868 587.007c-.179 0-.38 0-.603-.045-5.45-.783-30.084-4.946-32.116-5.439-.76-.179-2.859-1.634-5.293-3.312-3.395-2.35-8.04-5.551-14.048-8.998-5.092-2.909-10.631-5.013-14.964-6.378h3.886c6.656 0 14.182-.135 21.195.559 13.691 1.343 27.426 6.692 34.193 13.317 5.985 5.864 8.085 9.333 8.085 10.296-.067 0-.179.022-.358.022l.023-.022z" fill="url(#I)"/><path d="m452.263 654.039-1.117-.067c0-.134.782-12.623-4.578-28.491-3.284-9.692-15.143-24.463-15.277-24.62l.871-.694c.492.604 12.127 15.085 15.455 24.956 5.45 16.092 4.646 28.805 4.646 28.939v-.023z" fill="url(#J)" opacity=".5"/><path opacity=".5" d="m340.17 670.177.581 2.059s10.675 5.17 18.469 6.737c7.795 1.566 14.406-6.2 14.406-7.386 0-.963-3.953.582-11.77-.493-4.623-.626-16.951.895-21.686-.917z" fill="url(#K)"/><path d="m342.582 666.484-2.568 3.648s2.925 1.343 6.811 2.887 8.777 3.268 12.686 4.051c3.908.783 7.459-.358 10.005-1.813 2.546-1.455 4.154-3.29 4.154-3.872 0-.962-3.729-1.097-11.524-2.171-3.863-.537-10.564-2.395-15.41-4.051-1.519-.515-3.216 0-4.132 1.343l-.022-.022z" fill="url(#L)"/><path d="M343.029 666.573c.938-1.029 2.501-1.41 3.953-.918 2.345.784 5.092 1.634 7.727 2.328 2.546.694 5.003 1.253 6.834 1.522 1.586.224 2.993.425 4.221.582 4.244.537 6.455.761 6.7 1.432.179.493-.938 2.015-2.903 3.246-2.01 1.208-4.735 2.26-7.839 2.171-.692 0-1.429-.09-2.144-.246-3.507-.694-7.862-2.216-11.413-3.604-3.372-1.32-5.963-2.484-6.141-2.551-.536-.202.513-2.619.156-2.776l.849-1.186z" fill="url(#M)"/><path d="M343.252 666.618c.938-.873 2.434-1.164 3.841-.694 2.278.761 4.936 1.567 7.504 2.261 2.457.671 4.825 1.208 6.634 1.477 1.518.224 2.903.425 4.087.559 3.997.493 6.141.717 6.521 1.343.29.448-.625 1.813-2.256 2.91-1.987 1.208-4.712 2.305-7.816 2.238-.715 0-1.43-.09-2.144-.246-3.328-.672-7.415-2.059-10.788-3.38-3.126-1.208-5.516-2.283-5.806-2.395-.804-.291-.201-2.574-.715-2.797l.916-1.321.022.045z" fill="url(#N)"/><path d="M343.475 666.64c.938-.716 2.39-.94 3.752-.47 2.234.739 4.802 1.522 7.259 2.194 2.367.649 4.668 1.163 6.432 1.454 1.474.224 2.792.426 3.953.56 3.752.47 5.829.694 6.343 1.253.379.403-.313 1.612-1.631 2.597-1.943 1.208-4.667 2.35-7.794 2.283-.715 0-1.429-.09-2.144-.247-3.127-.626-6.946-1.924-10.14-3.155-2.858-1.097-5.092-2.082-5.471-2.216-1.095-.403-.894-2.529-1.586-2.82l1.005-1.433h.022z" fill="url(#O)"/><path d="M343.699 666.685c.938-.56 2.322-.694 3.64-.269 2.166.717 4.645 1.478 7.035 2.127 2.278.626 4.489 1.141 6.231 1.432 1.43.224 2.703.425 3.819.56 3.484.447 5.539.649 6.187 1.163.469.359 0 1.41-1.005 2.283-1.899 1.231-4.646 2.395-7.772 2.328-.715 0-1.43-.089-2.144-.224-2.926-.582-6.5-1.768-9.515-2.909-2.613-.985-4.667-1.88-5.136-2.059-1.363-.493-1.586-2.485-2.457-2.865l1.094-1.545.023-.022z" fill="url(#P)"/><path opacity=".5" d="m300.528 649.138 9.246 4.745 1.541-.918-9.001-11.705c-.67 1.969-1.317 4.767-1.786 7.878z" fill="url(#Q)"/><path d="m300.528 647.303 10.787 5.774-.603-6.132a3.74 3.74 0 0 0-1.564-2.686l-6.811-4.835c-.67 1.97-1.318 4.768-1.787 7.879h-.022z" fill="url(#R)"/><path d="m302.314 639.693 6.589 4.678c.804.559 1.474 1.566 1.585 2.551l.581 5.819-10.452-5.595c.469-2.932 1.05-5.551 1.697-7.431v-.022z" fill="url(#S)"/><path opacity=".5" d="M328.601 655.561c10.34 6.357 26.957 11.348 38.28 11.751 11.323.38 112.495-58.729 112.495-58.729s-76.56 39.928-93.757 46.978c-17.197 7.051-36.337 3.917-51.569-4.297-12.73-6.871-23.093-16.003-26.152-18.8-1.921 1.499-3.44 2.954-4.579 4.722-.022.045-.067.112-.089.157 3.707 3.066 13.601 11.012 25.349 18.241l.022-.023z" fill="url(#T)" fill-opacity=".5"/><path style="mix-blend-mode:multiply" d="M320.181 655.382v10.184l12.887 7.229v-9.579l-12.887-7.834z" fill="url(#U)"/><path d="M319.846 654.823v10.183l12.887 7.23v-9.58l-12.887-7.833z" fill="url(#V)"/><path d="m312.498 649.921 2.524 2.082a82.744 82.744 0 0 0 23.92 13.72l-26.444-15.802z" fill="url(#W)" fill-opacity=".5"/><path d="M339.478 679.487a9.578 9.578 0 0 1-4.557-1.164l-22.244-11.996c-2.658-1.432-4.511-4.073-4.936-7.05l-1.161-7.968 1.094-.157 1.162 7.968a8.522 8.522 0 0 0 4.355 6.245l22.244 11.996a8.436 8.436 0 0 0 10.72-2.305l1.34-1.746.894.671-1.34 1.746c-1.876 2.44-4.69 3.76-7.571 3.76z" fill="url(#X)" fill-opacity=".5"/><path d="M303.654 672.616c8.174 6.894 35.801 20.725 49.894 25.202l-2.301-4.611a10.03 10.03 0 0 0-4.935-4.722l-3.953-1.768A251.869 251.869 0 0 1 315 672.459l-5.472-3.29a3.186 3.186 0 0 0-4.333 1.03l-1.518 2.44-.023-.023z" fill="url(#Y)"/><path d="m422.693 671.094-.201-.671c-.045-.135-3.685-12.959-9.38-23.904-3.931-7.542-14.361-14.816-14.45-14.883l.625-.918c.447.291 10.765 7.498 14.807 15.286 4.981 9.602 8.42 20.614 9.247 23.434l65.906-36.974c.514-1.343 3.596-9.557 4.087-15.354.536-6.267-1.92-16.249-1.943-16.361l1.072-.269c.112.426 2.524 10.251 1.966 16.719-.559 6.446-4.087 15.466-4.221 15.847l-.067.179-.179.089-67.314 37.758.045.022z" fill="url(#Z)" opacity=".5"/><path style="mix-blend-mode:screen" d="M405.853 633.314c-3.864 0-6.298-.806-7.705-2.574-1.072-1.343-1.385-3.088-.916-5.17 1.832-8.057 34.685-35.967 62.937-35.967.513 0 1.049 0 1.563.022 21.038.806 30.91 10.833 30.91 10.833s-39.843 23.434-64.075 29.074c-11.301 2.641-18.113 3.76-22.736 3.76l.022.022z" fill="url(#aa)"/><path d="M491.615 599.966s-9.38-7.297-29.95-8.08c-27.336-1.052-60.68 27.305-62.244 34.199-1.563 6.893 8.398 6.021 28.654 1.298 24.21-5.64 63.54-27.395 63.54-27.395v-.022z" fill="url(#ab)"/><path opacity=".5" d="m423.519 670.042 65.237-36.795s-47.258 21.911-53.914 25.828c-6.633 3.917-11.323 10.967-11.323 10.967z" fill="url(#ac)"/><path d="M446.947 615.901c.581 1.03 1.117 1.992 1.608 2.932 16.572-6.692 33.546-15.555 39.844-18.934-3.864-2.082-12.597-5.775-26.667-6.312-.469 0-.938-.022-1.429-.022-8.174 0-16.773 2.573-24.835 6.289 2.434 2.618 6.812 7.9 11.457 16.07l.022-.023z" fill="url(#ad)"/><path d="M439.532 613.641c-2.858-5.64-5.538-9.96-7.102-12.355-10.608 5.372-19.944 12.467-25.594 17.95a40.895 40.895 0 0 0 3.439 9.87c4.154-.47 9.805-1.566 17.555-3.379 4.332-1.007 9.201-2.552 14.226-4.409-.536-2.641-1.34-5.305-2.546-7.677h.022z" fill="url(#ae)"/><path opacity=".5" d="M492.664 600.48s28.051-10.832 32.719-13.361c4.668-2.529 5.316-2.619 5.226-10.654 0 0 .559 4.476-8.018 9.445-8.576 4.946-29.927 14.57-29.927 14.57z" fill="url(#af)"/><path d="M524.914 586.85s13.311 5.148 12.261-.336c-1.049-5.483-6.633-10.407-6.633-10.407s1.162 8.975-5.65 10.743h.022z" fill="url(#ag)"/><path d="M527.527 586.649s9.224 3.044 8.353-1.589c-.871-4.633-4.333-7.006-4.333-7.006s2.591 7.923-3.997 8.595h-.023z" fill="url(#ah)"/><path style="mix-blend-mode:multiply" d="M524.646 586.649s4.355 1.163 7.929 1.88c.536-1.701.982-3.537.915-4.723-.134-2.798-2.925-7.699-2.925-7.699s1.898 9.781-5.919 10.564v-.022z" fill="url(#ai)"/><g style="mix-blend-mode:screen"><path d="M345.642 605.024c-2.167.336-5.718 2.686-9.336 5.774-1.63 9.11-2.68 17.794-2.613 25.582 6.432 4.208 15.142 8.237 23.361 9.871-2.122-10.542-5.047-26.612-6.387-41.182a22.586 22.586 0 0 0-2.926-.202c-.759 0-1.474.045-2.099.157z" fill="url(#aj)"/><path d="M374.854 644.55c-4.645-9.356-11.502-23.881-16.549-37.713-2.591-.806-5.07-1.41-7.326-1.724 2.993 15.623 7.862 30.618 12.485 41.876h.715c1.496 0 2.903-.112 4.176-.358a26.033 26.033 0 0 0 6.499-2.104v.023z" fill="url(#ak)"/></g><g style="mix-blend-mode:screen"><path d="M521.721 597.392c-2.725 0-5.562.85-8.443 2.507-9 5.214-16.058 17.412-16.058 27.775 0 2.238.335 4.185.871 5.886l1.452-.761c-.134-3.223-.201-4.14-.201-5.103 0-9.668 6.589-21.061 14.986-25.917 2.546-1.478 5.025-2.216 7.37-2.216 6.008 0 9.916 4.722 9.961 12.019a65.331 65.331 0 0 0 1.943-2.597c-1.027-7.945-6.477-11.548-11.904-11.548l.023-.045z" fill="url(#al)"/><path d="M405.608 662.768c-2.725 0-5.561.851-8.443 2.507-9 5.215-16.057 17.413-16.057 27.776v.38a75.805 75.805 0 0 0 2.144-1.164c.335-9.49 6.767-20.412 14.963-25.134 2.546-1.478 5.025-2.216 7.37-2.216 5.517 0 9.224 3.961 9.849 12.578l2.211-1.163c-.312-9.334-6.208-13.541-12.06-13.541l.023-.023z" fill="url(#am)"/></g><path style="mix-blend-mode:multiply" d="M492.664 600.48s-2.791 5.193-2.523 9.244c.29 4.073-1.966 4.767-3.641 4.208-1.675-.56-.692-15.264 6.142-13.452h.022z" fill="url(#an)"/><path d="M492.955 600.413s-5.494-3.312-8.353-3.312-2.345 11.75.782 11.996c3.126.269 2.077-5.215 3.64-6.535 1.563-1.321 3.931-2.171 3.931-2.171v.022z" fill="url(#ao)"/><path style="mix-blend-mode:screen" d="M486.59 601.555c0 2.26-.805 4.096-1.787 4.096-.983 0-1.787-1.836-1.787-4.096 0-2.261.804-4.096 1.787-4.096.982 0 1.787 1.835 1.787 4.096z" fill="url(#ap)"/><path style="mix-blend-mode:screen" d="M425.753 562.79h-3.886c4.332 1.388 9.849 3.469 14.963 6.379 2.1 1.208 4.02 2.372 5.785 3.491a91.356 91.356 0 0 1 3.618-9.378c-6.79-.604-14.026-.492-20.48-.492z" fill="url(#aq)"/><path opacity=".48" d="M450.9 313.584v162.11l194.974 109.513V421.329L450.9 313.584zM450.9 107v162.11L550.997 327V163.122L450.9 107zM557.997 167v162.11l89 50.268V215.5l-89-48.5zM450.9 283v18.554l194.974 108.551v-18.331L450.9 283z" fill="#fff"/><path d="M451.369 56.698v34.737l195.242 107.901V165.54c0-5.707-3.418-10.878-8.711-13.228L459.41 51.595c-3.775-1.678-8.041 1.03-8.041 5.103z" fill="#666"/><path d="m617.655 154.724 18.838 9.339M617.655 163.133l18.838 9.457M616.362 170.894l20.131 10.223" stroke="#fff" stroke-miterlimit="10" stroke-linecap="round"/><path d="M469.594 79.102c0 .94-.693 1.298-1.631.806l-.134-.09c-.982-.581-1.786-1.857-1.786-2.82v-3.222l-1.407-.829v3.223c0 .85.357 1.858.96 2.798s1.407 1.746 2.233 2.26c.827.515 1.653.65 2.256.404.603-.247.938-.829.96-1.68V76.73l-1.429-.85v3.222h-.022zM471.872 80.445c0 1.768 1.429 4.051 3.193 5.103l.246.157v-1.41l-.246-.157c-.982-.582-1.786-1.857-1.786-2.82V79.55l2.032 1.209v-1.433l-3.439-2.036v3.2-.045zM485.741 85.459c-1.764-1.052-3.194-.448-3.194 1.32v3.2l1.407.829v-3.2c0-.985.804-1.299 1.787-.74l.246.157v-1.432l-.246-.157v.023zM478.795 81.34c-1.764-1.051-3.216-.447-3.216 1.321s1.429 4.051 3.216 5.103c1.787 1.052 3.194.448 3.194-1.32 0-1.769-1.429-4.074-3.194-5.103zm0 4.992c-.983-.582-1.787-1.858-1.787-2.843 0-.985.804-1.298 1.787-.716.983.582 1.787 1.858 1.787 2.82 0 .962-.804 1.298-1.787.739zM489.337 87.563c-1.765-1.052-3.216-.448-3.216 1.32s1.429 4.051 3.216 5.103c1.786 1.052 3.193.448 3.193-1.32 0-1.769-1.429-4.074-3.193-5.103zm0 4.99c-.983-.581-1.787-1.857-1.787-2.842 0-.985.804-1.298 1.787-.716.982.582 1.786 1.858 1.786 2.82 0 .963-.804 1.298-1.786.739zM496.305 91.68c-1.765-1.051-3.216-.447-3.216 1.321s1.429 4.051 3.216 5.103c1.786 1.052 3.194.448 3.194-1.32s-1.43-4.074-3.194-5.103zm0 4.992c-.983-.582-1.787-1.858-1.787-2.843 0-.984.804-1.298 1.787-.716.982.582 1.786 1.858 1.786 2.82 0 .963-.804 1.298-1.786.739zM503.653 97.478v-1.433l-3.44-2.037v3.201c0 1.768 1.43 4.051 3.194 5.103l.246.157v-1.41l-.246-.157c-.983-.582-1.787-1.858-1.787-2.82v-1.768l2.033 1.208v-.044zM504.278 102.2c0-.425.312-.537.714-.313.402.224.693.716.693 1.141 0 .425-.313.537-.693.314-.379-.224-.714-.717-.714-1.142zm1.251.739c0-.336-.224-.716-.537-.918-.312-.201-.535-.089-.535.269s.223.716.535.895c.313.179.537.089.537-.269v.023zm-.827-.851.29.179c.157.09.291.246.291.403 0 .09-.045.134-.134.112l.156.403-.178-.112-.135-.313-.134-.09v.246l-.178-.089v-.739h.022zm.246.515s.156.045.156-.022c0-.068-.044-.135-.134-.202l-.089-.067v.224l.089.045-.022.022z" fill="#fff"/><path d="M469.594 79.102c0 .94-.693 1.298-1.631.806l-.134-.09c-.982-.581-1.786-1.857-1.786-2.82v-3.222l-1.407-.829v3.223c0 .85.357 1.858.96 2.798s1.407 1.746 2.233 2.26c.827.515 1.653.65 2.256.404.603-.247.938-.829.96-1.68V76.73l-1.429-.85v3.222h-.022zM471.872 80.445c0 1.768 1.429 4.051 3.193 5.103l.246.157v-1.41l-.246-.157c-.982-.582-1.786-1.857-1.786-2.82V79.55l2.032 1.209v-1.433l-3.439-2.036v3.2-.045zM485.741 85.459c-1.764-1.052-3.194-.448-3.194 1.32v3.2l1.407.829v-3.2c0-.985.804-1.299 1.787-.74l.246.157v-1.432l-.246-.157v.023zM478.795 81.34c-1.764-1.051-3.216-.447-3.216 1.321s1.429 4.051 3.216 5.103c1.787 1.052 3.194.448 3.194-1.32 0-1.769-1.429-4.074-3.194-5.103zm0 4.992c-.983-.582-1.787-1.858-1.787-2.843 0-.985.804-1.298 1.787-.716.983.582 1.787 1.858 1.787 2.82 0 .962-.804 1.298-1.787.739zM489.337 87.563c-1.765-1.052-3.216-.448-3.216 1.32s1.429 4.051 3.216 5.103c1.786 1.052 3.193.448 3.193-1.32 0-1.769-1.429-4.074-3.193-5.103zm0 4.99c-.983-.581-1.787-1.857-1.787-2.842 0-.985.804-1.298 1.787-.716.982.582 1.786 1.858 1.786 2.82 0 .963-.804 1.298-1.786.739zM496.305 91.68c-1.765-1.051-3.216-.447-3.216 1.321s1.429 4.051 3.216 5.103c1.786 1.052 3.194.448 3.194-1.32s-1.43-4.074-3.194-5.103zm0 4.992c-.983-.582-1.787-1.858-1.787-2.843 0-.984.804-1.298 1.787-.716.982.582 1.786 1.858 1.786 2.82 0 .963-.804 1.298-1.786.739zM503.653 97.478v-1.433l-3.44-2.037v3.201c0 1.768 1.43 4.051 3.194 5.103l.246.157v-1.41l-.246-.157c-.983-.582-1.787-1.858-1.787-2.82v-1.768l2.033 1.208v-.044zM504.278 102.2c0-.425.312-.537.714-.313.402.224.693.716.693 1.141 0 .425-.313.537-.693.314-.379-.224-.714-.717-.714-1.142zm1.251.739c0-.336-.224-.716-.537-.918-.312-.201-.535-.089-.535.269s.223.716.535.895c.313.179.537.089.537-.269v.023zm-.827-.851.29.179c.157.09.291.246.291.403 0 .09-.045.134-.134.112l.156.403-.178-.112-.135-.313-.134-.09v.246l-.178-.089v-.739h.022zm.246.515s.156.045.156-.022c0-.068-.044-.135-.134-.202l-.089-.067v.224l.089.045-.022.022z" fill="#fff"/><path opacity=".5" d="M462.402 74.85v2.663h-.379l.312-2.238s0-.045.023-.09c0-.067.022-.134.022-.223v-.112h.022z" fill="#fff"/><path d="M463.809 75.7v3.2l-1.407-.827v-3.2c0-.986-.804-2.261-1.787-2.843-.982-.582-1.786-.269-1.786.716s.804 2.26 1.786 2.843c.827.492 1.519.335 1.72-.314l-.312 2.238c-.425-.044-.894-.201-1.408-.514-1.764-1.052-3.216-3.335-3.216-5.103 0-1.769 1.452-2.373 3.216-1.321 1.765 1.052 3.194 3.335 3.194 5.103v.022z" fill="#fff"/><defs><linearGradient id="I" x1="512.162" y1="595.087" x2="423.869" y2="559.899" gradientUnits="userSpaceOnUse"><stop stop-color="#84EAB9"/><stop offset="1" stop-color="#45108A"/></linearGradient><linearGradient id="a" x1="-213.668" y1="561.699" x2="158.848" y2="1141.17" gradientUnits="userSpaceOnUse"><stop stop-color="#FFF800"/><stop offset="1" stop-color="#30F9FC"/></linearGradient><linearGradient id="ap" x1="486.768" y1="603.345" x2="482.494" y2="599.482" gradientUnits="userSpaceOnUse"><stop/><stop offset=".7" stop-color="#1B2B69"/><stop offset="1" stop-color="#3746A3"/></linearGradient><linearGradient id="an" x1="482.882" y1="597.862" x2="492.983" y2="611.987" gradientUnits="userSpaceOnUse"><stop stop-color="#696969"/><stop offset=".24" stop-color="#9C9C9C"/><stop offset=".48" stop-color="#C6C6C6"/><stop offset=".69" stop-color="#E5E5E5"/><stop offset=".87" stop-color="#F8F8F8"/><stop offset="1" stop-color="#fff"/></linearGradient><linearGradient id="e" x1="684.354" y1="371.965" x2="9.53" y2="161.171" gradientUnits="userSpaceOnUse"><stop offset=".19" stop-color="#3D065F"/><stop offset=".93" stop-color="#3D065F"/></linearGradient><linearGradient id="f" x1="692.283" y1="631.77" x2="350.591" y2="-88.709" gradientUnits="userSpaceOnUse"><stop stop-color="#311B61"/><stop offset=".2" stop-color="#290E52"/><stop offset=".49" stop-color="#200041"/><stop offset="1" stop-color="#0F001F"/></linearGradient><linearGradient id="g" x1="441.319" y1="329.709" x2="657.934" y2="329.709" gradientUnits="userSpaceOnUse"><stop stop-color="#311B61"/><stop offset=".2" stop-color="#290E52"/><stop offset=".49" stop-color="#200041"/><stop offset="1" stop-color="#0F001F"/></linearGradient><linearGradient id="h" x1="593.341" y1="-133.4" x2="173.578" y2="119.889" gradientUnits="userSpaceOnUse"><stop stop-color="#FFF800"/><stop offset="1" stop-color="#30F9FC"/></linearGradient><linearGradient id="i" x1="6405.94" y1="-15981" x2="6386.46" y2="-15924.9" gradientUnits="userSpaceOnUse"><stop stop-color="#311B61"/><stop offset=".2" stop-color="#290E52"/><stop offset=".49" stop-color="#200041"/><stop offset="1" stop-color="#0F001F"/></linearGradient><linearGradient id="j" x1="689.29" y1="263.795" x2="662.579" y2="262.658" gradientUnits="userSpaceOnUse"><stop stop-color="#3D065F"/><stop offset="1" stop-color="#5F27BD"/></linearGradient><linearGradient id="am" x1="400.069" y1="684.098" x2="389.022" y2="663.392" gradientUnits="userSpaceOnUse"><stop/><stop offset=".7" stop-color="#1B2B69"/><stop offset="1" stop-color="#3746A3"/></linearGradient><linearGradient id="al" x1="516.383" y1="619.617" x2="499.192" y2="601.726" gradientUnits="userSpaceOnUse"><stop/><stop offset=".7" stop-color="#1B2B69"/><stop offset="1" stop-color="#3746A3"/></linearGradient><linearGradient id="m" x1="639.57" y1="69.84" x2="600.393" y2="144.359" gradientUnits="userSpaceOnUse"><stop stop-color="#25054D"/><stop offset="1" stop-color="#45108A"/></linearGradient><linearGradient id="n" x1="671.605" y1="262.372" x2="695.765" y2="26.681" gradientUnits="userSpaceOnUse"><stop offset=".03" stop-color="#7C1DC9"/><stop offset=".21" stop-color="#6E41D1"/><stop offset=".62" stop-color="#4C9BE8"/><stop offset="1" stop-color="#2AF6FF"/></linearGradient><linearGradient id="ak" x1="354.24" y1="650.928" x2="379.507" y2="575.289" gradientUnits="userSpaceOnUse"><stop/><stop offset=".7" stop-color="#1B2B69"/><stop offset="1" stop-color="#3746A3"/></linearGradient><linearGradient id="aj" x1="340.751" y1="646.407" x2="365.995" y2="570.768" gradientUnits="userSpaceOnUse"><stop/><stop offset=".7" stop-color="#1B2B69"/><stop offset="1" stop-color="#3746A3"/></linearGradient><linearGradient id="q" x1="390.845" y1="667.088" x2="416.886" y2="667.088" gradientUnits="userSpaceOnUse"><stop stop-color="#25054D"/><stop offset="1" stop-color="#1B2B69"/></linearGradient><linearGradient id="r" x1="507.248" y1="601.062" x2="533.289" y2="601.062" gradientUnits="userSpaceOnUse"><stop stop-color="#25054D"/><stop offset="1" stop-color="#1B2B69"/></linearGradient><linearGradient id="s" x1="496.885" y1="631.68" x2="521.206" y2="599.165" gradientUnits="userSpaceOnUse"><stop stop-color="#010002"/><stop offset=".03" stop-color="#030005"/><stop offset=".19" stop-color="#0F0318"/><stop offset=".36" stop-color="#160524"/><stop offset=".54" stop-color="#190628"/><stop offset=".7" stop-color="#0B0212"/><stop offset=".86" stop-color="#020004"/><stop offset="1"/></linearGradient><linearGradient id="t" x1="529.336" y1="619.684" x2="501.709" y2="619.684" gradientUnits="userSpaceOnUse"><stop stop-color="#100221"/><stop offset="1" stop-color="#10054D"/></linearGradient><linearGradient id="ai" x1="523.128" y1="580.404" x2="555.518" y2="587.805" gradientUnits="userSpaceOnUse"><stop stop-color="#fff"/><stop offset="1" stop-color="#8B949E"/></linearGradient><linearGradient id="v" x1="525.696" y1="619.908" x2="504.412" y2="619.908" gradientUnits="userSpaceOnUse"><stop stop-color="#BCBEC0"/><stop offset="1" stop-color="#E6E7E8"/></linearGradient><linearGradient id="w" x1="526.366" y1="620.176" x2="505.082" y2="620.176" gradientUnits="userSpaceOnUse"><stop stop-color="#BCBEC0"/><stop offset="1" stop-color="#E6E7E8"/></linearGradient><linearGradient id="x" x1="380.795" y1="697.057" x2="405.094" y2="664.541" gradientUnits="userSpaceOnUse"><stop stop-color="#010002"/><stop offset=".03" stop-color="#030005"/><stop offset=".19" stop-color="#0F0318"/><stop offset=".36" stop-color="#160524"/><stop offset=".54" stop-color="#190628"/><stop offset=".7" stop-color="#0B0212"/><stop offset=".86" stop-color="#020004"/><stop offset="1"/></linearGradient><linearGradient id="y" x1="413.246" y1="685.038" x2="385.597" y2="685.038" gradientUnits="userSpaceOnUse"><stop stop-color="#100221"/><stop offset="1" stop-color="#10054D"/></linearGradient><linearGradient id="ah" x1="525.83" y1="581.546" x2="557.327" y2="588.746" gradientUnits="userSpaceOnUse"><stop stop-color="#fff"/><stop offset="1" stop-color="#8B949E"/></linearGradient><linearGradient id="A" x1="409.605" y1="685.262" x2="388.321" y2="685.262" gradientUnits="userSpaceOnUse"><stop stop-color="#BCBEC0"/><stop offset="1" stop-color="#E6E7E8"/></linearGradient><linearGradient id="B" x1="410.253" y1="685.53" x2="388.969" y2="685.53" gradientUnits="userSpaceOnUse"><stop stop-color="#BCBEC0"/><stop offset="1" stop-color="#E6E7E8"/></linearGradient><linearGradient id="C" x1="260.716" y1="502.649" x2="383.114" y2="800.499" gradientUnits="userSpaceOnUse"><stop stop-color="#FFF800"/><stop offset="1" stop-color="#FF0071"/></linearGradient><linearGradient id="D" x1="474.462" y1="589.513" x2="508.122" y2="523.434" gradientUnits="userSpaceOnUse"><stop offset=".04" stop-color="#FFE2D9"/><stop offset=".32" stop-color="#FFE1D1"/><stop offset=".86" stop-color="#FEE0A3"/><stop offset="1" stop-color="#FEECA8"/></linearGradient><linearGradient id="E" x1="322.964" y1="540.328" x2="371.656" y2="672.464" gradientUnits="userSpaceOnUse"><stop stop-color="#FFF800"/><stop offset="1" stop-color="#FF0071"/></linearGradient><linearGradient id="F" x1="322.928" y1="625.928" x2="391.202" y2="625.928" gradientUnits="userSpaceOnUse"><stop stop-color="#010002"/><stop offset=".03" stop-color="#030005"/><stop offset=".19" stop-color="#0F0318"/><stop offset=".36" stop-color="#160524"/><stop offset=".54" stop-color="#190628"/><stop offset=".7" stop-color="#0B0212"/><stop offset=".86" stop-color="#020004"/><stop offset="1"/></linearGradient><linearGradient id="G" x1="324.09" y1="625.928" x2="390.086" y2="625.928" gradientUnits="userSpaceOnUse"><stop stop-color="#84EAB9"/><stop offset="1" stop-color="#45108A"/></linearGradient><linearGradient id="H" x1="414.787" y1="575.458" x2="493.066" y2="575.458" gradientUnits="userSpaceOnUse"><stop stop-color="#010002"/><stop offset=".03" stop-color="#030005"/><stop offset=".19" stop-color="#0F0318"/><stop offset=".36" stop-color="#160524"/><stop offset=".54" stop-color="#190628"/><stop offset=".7" stop-color="#0B0212"/><stop offset=".86" stop-color="#020004"/><stop offset="1"/></linearGradient><linearGradient id="b" x1="392.029" y1="20.239" x2="612.252" y2="400.877" gradientUnits="userSpaceOnUse"><stop offset=".06" stop-color="#200041"/><stop offset=".26" stop-color="#210143"/><stop offset=".36" stop-color="#25084A"/><stop offset=".43" stop-color="#2C1357"/><stop offset=".47" stop-color="#311B61"/><stop offset=".48" stop-color="#351F65"/><stop offset=".5" stop-color="#422C72"/><stop offset=".51" stop-color="#574188"/><stop offset=".52" stop-color="#755FA6"/><stop offset=".53" stop-color="#8770B8"/><stop offset=".54" stop-color="#7D66AE"/><stop offset=".56" stop-color="#5C458C"/><stop offset=".59" stop-color="#442E74"/><stop offset=".61" stop-color="#351F66"/><stop offset=".63" stop-color="#311B61"/><stop offset=".67" stop-color="#2A1054"/><stop offset=".75" stop-color="#220446"/><stop offset=".81" stop-color="#200041"/><stop offset="1" stop-color="#200041"/></linearGradient><linearGradient id="J" x1="431.291" y1="627.092" x2="452.307" y2="627.092" gradientUnits="userSpaceOnUse"><stop offset=".04" stop-color="#FFA98C"/><stop offset=".32" stop-color="#FEB892"/><stop offset=".86" stop-color="#FEE0A3"/><stop offset="1" stop-color="#FEECA8"/></linearGradient><linearGradient id="K" x1="340.17" y1="674.653" x2="373.626" y2="674.653" gradientUnits="userSpaceOnUse"><stop offset=".04" stop-color="#FFA98C"/><stop offset=".32" stop-color="#FEB892"/><stop offset=".86" stop-color="#FEE0A3"/><stop offset="1" stop-color="#FEECA8"/></linearGradient><linearGradient id="ag" x1="534.629" y1="583.65" x2="504.959" y2="574.509" gradientUnits="userSpaceOnUse"><stop stop-color="#fff"/><stop offset="1" stop-color="#8B949E"/></linearGradient><linearGradient id="af" x1="492.664" y1="588.484" x2="530.609" y2="588.484" gradientUnits="userSpaceOnUse"><stop offset=".04" stop-color="#FFA98C"/><stop offset=".32" stop-color="#FEB892"/><stop offset=".86" stop-color="#FEE0A3"/><stop offset="1" stop-color="#FEECA8"/></linearGradient><linearGradient id="ae" x1="427.83" y1="640.096" x2="419.98" y2="594.13" gradientUnits="userSpaceOnUse"><stop stop-color="#84EAB9"/><stop offset="1" stop-color="#45108A"/></linearGradient><linearGradient id="ad" x1="467.651" y1="633.292" x2="459.779" y2="587.326" gradientUnits="userSpaceOnUse"><stop stop-color="#84EAB9"/><stop offset="1" stop-color="#45108A"/></linearGradient><linearGradient id="ac" x1="439.398" y1="617.58" x2="456.386" y2="651.996" gradientUnits="userSpaceOnUse"><stop offset=".04" stop-color="#FFA98C"/><stop offset=".32" stop-color="#FEB892"/><stop offset=".86" stop-color="#FEE0A3"/><stop offset="1" stop-color="#FEECA8"/></linearGradient><linearGradient id="Q" x1="300.528" y1="647.549" x2="311.315" y2="647.549" gradientUnits="userSpaceOnUse"><stop offset=".04" stop-color="#FFA98C"/><stop offset=".32" stop-color="#FEB892"/><stop offset=".86" stop-color="#FEE0A3"/><stop offset="1" stop-color="#FEECA8"/></linearGradient><linearGradient id="ab" x1="399.265" y1="611.47" x2="491.615" y2="611.47" gradientUnits="userSpaceOnUse"><stop stop-color="#010002"/><stop offset=".03" stop-color="#030005"/><stop offset=".19" stop-color="#0F0318"/><stop offset=".36" stop-color="#160524"/><stop offset=".54" stop-color="#190628"/><stop offset=".7" stop-color="#0B0212"/><stop offset=".86" stop-color="#020004"/><stop offset="1"/></linearGradient><linearGradient id="aa" x1="397.031" y1="611.47" x2="492.664" y2="611.47" gradientUnits="userSpaceOnUse"><stop stop-color="#25054D"/><stop offset="1" stop-color="#1B2B69"/></linearGradient><linearGradient id="T" x1="394.485" y1="585.35" x2="387.174" y2="671.651" gradientUnits="userSpaceOnUse"><stop offset=".04" stop-color="#FFC1AC"/><stop offset=".32" stop-color="#FFE1D0"/><stop offset=".86" stop-color="#FBEFD7"/><stop offset="1" stop-color="#FEECA8"/></linearGradient><linearGradient id="U" x1="323.152" y1="676.824" x2="327.793" y2="659.886" gradientUnits="userSpaceOnUse"><stop stop-color="#fff"/><stop offset="1" stop-color="#8B949E"/></linearGradient><linearGradient id="V" x1="322.839" y1="676.264" x2="327.458" y2="659.327" gradientUnits="userSpaceOnUse"><stop stop-color="#fff"/><stop offset="1" stop-color="#8B949E"/></linearGradient><linearGradient id="W" x1="312.498" y1="657.822" x2="338.942" y2="657.822" gradientUnits="userSpaceOnUse"><stop offset=".04" stop-color="#FFA98C"/><stop offset=".32" stop-color="#FEB892"/><stop offset=".86" stop-color="#FEE0A3"/><stop offset="1" stop-color="#FEECA8"/></linearGradient><linearGradient id="X" x1="306.58" y1="665.297" x2="348.389" y2="665.297" gradientUnits="userSpaceOnUse"><stop offset=".04" stop-color="#FFA98C"/><stop offset=".32" stop-color="#FEB892"/><stop offset=".86" stop-color="#FEE0A3"/><stop offset="1" stop-color="#FEECA8"/></linearGradient><linearGradient id="Y" x1="303.654" y1="683.27" x2="353.548" y2="683.27" gradientUnits="userSpaceOnUse"><stop stop-color="#100221"/><stop offset="1" stop-color="#10054D"/></linearGradient><linearGradient id="Z" x1="398.662" y1="635.799" x2="494.563" y2="635.799" gradientUnits="userSpaceOnUse"><stop offset=".04" stop-color="#FFA98C"/><stop offset=".32" stop-color="#FEB892"/><stop offset=".86" stop-color="#FEE0A3"/><stop offset="1" stop-color="#FEECA8"/></linearGradient><linearGradient id="aq" x1="431.537" y1="547.593" x2="447.258" y2="643.98" gradientUnits="userSpaceOnUse"><stop/><stop offset=".7" stop-color="#1B2B69"/><stop offset="1" stop-color="#3746A3"/></linearGradient><radialGradient id="S" cx="0" cy="0" r="1" gradientUnits="userSpaceOnUse" gradientTransform="matrix(7.34779 0 0 7.36351 299.456 643.386)"><stop stop-color="#FF6363"/><stop offset="1" stop-color="#AB1919"/></radialGradient><radialGradient id="P" cx="0" cy="0" r="1" gradientUnits="userSpaceOnUse" gradientTransform="matrix(10.0278 0 0 10.0493 361.387 672.683)"><stop stop-color="#FF6363"/><stop offset="1" stop-color="#AB194E"/></radialGradient><radialGradient id="O" cx="0" cy="0" r="1" gradientUnits="userSpaceOnUse" gradientTransform="matrix(9.44715 0 0 9.46739 361.7 672.728)"><stop stop-color="#FF63CE"/><stop offset="1" stop-color="#9F19AB"/></radialGradient><radialGradient id="N" cx="0" cy="0" r="1" gradientUnits="userSpaceOnUse" gradientTransform="matrix(8.82181 0 0 8.84067 362.035 672.773)"><stop stop-color="#FF63CE"/><stop offset="1" stop-color="#9F19AB"/></radialGradient><radialGradient id="M" cx="0" cy="0" r="1" gradientUnits="userSpaceOnUse" gradientTransform="matrix(8.24113 0 0 8.2588 362.258 672.818)"><stop stop-color="#FF63CE"/><stop offset="1" stop-color="#9F19AB"/></radialGradient><radialGradient id="L" cx="0" cy="0" r="1" gradientUnits="userSpaceOnUse" gradientTransform="matrix(7.03511 0 0 7.0502 362.437 672.907)"><stop stop-color="#FF6388"/><stop offset="1" stop-color="#AB1919"/></radialGradient><radialGradient id="z" cx="0" cy="0" r="1" gradientUnits="userSpaceOnUse" gradientTransform="matrix(-14.9245 0 0 -14.9565 393.8 684.705)"><stop stop-color="#fff"/><stop offset="1"/></radialGradient><radialGradient id="R" cx="0" cy="0" r="1" gradientUnits="userSpaceOnUse" gradientTransform="matrix(7.41479 0 0 7.43068 299.21 643.363)"><stop stop-color="#FF6363"/><stop offset="1" stop-color="#9F19AB"/></radialGradient><radialGradient id="p" cx="0" cy="0" r="1" gradientUnits="userSpaceOnUse" gradientTransform="matrix(275.262 0 0 275.854 360.159 612.276)"><stop stop-color="#7C1DC9"/><stop offset=".25" stop-color="#5F169A"/><stop offset=".82" stop-color="#170526"/><stop offset="1"/></radialGradient><radialGradient id="o" cx="0" cy="0" r="1" gradientUnits="userSpaceOnUse" gradientTransform="matrix(275.24 0 0 275.828 360.158 612.276)"><stop stop-color="#7C1DC9"/><stop offset=".25" stop-color="#5F169A"/><stop offset=".82" stop-color="#170526"/><stop offset="1"/></radialGradient><radialGradient id="l" cx="0" cy="0" r="1" gradientUnits="userSpaceOnUse" gradientTransform="matrix(446.562 0 0 447.521 694.65 460.684)"><stop stop-color="#7C1DC9"/><stop offset=".25" stop-color="#5F169A"/><stop offset=".82" stop-color="#170526"/><stop offset="1"/></radialGradient><radialGradient id="k" cx="0" cy="0" r="1" gradientUnits="userSpaceOnUse" gradientTransform="matrix(15.7006 0 0 15.7342 675.845 252.38)"><stop stop-color="#711F56"/><stop offset=".16" stop-color="#6B1D51"/><stop offset=".36" stop-color="#5C1946"/><stop offset=".58" stop-color="#421232"/><stop offset=".82" stop-color="#1F0818"/><stop offset="1"/></radialGradient><radialGradient id="d" cx="0" cy="0" r="1" gradientUnits="userSpaceOnUse" gradientTransform="matrix(242.164 0 0 242.683 665.46 146.068)"><stop stop-color="#AF8AFC"/><stop offset="1" stop-color="#10054D"/></radialGradient><radialGradient id="ao" cx="0" cy="0" r="1" gradientUnits="userSpaceOnUse" gradientTransform="matrix(13.7129 0 0 13.7422 483.106 600.861)"><stop stop-color="#FEECA8"/><stop offset=".54" stop-color="#FFA98C"/><stop offset=".62" stop-color="#F09990"/><stop offset=".78" stop-color="#CA719D"/><stop offset="1" stop-color="#9033B1"/></radialGradient><radialGradient id="c" cx="0" cy="0" r="1" gradientUnits="userSpaceOnUse" gradientTransform="matrix(410.784 0 0 411.664 735.23 175.321)"><stop stop-color="#711F56"/><stop offset=".16" stop-color="#6B1D51"/><stop offset=".36" stop-color="#5C1946"/><stop offset=".58" stop-color="#421232"/><stop offset=".82" stop-color="#1F0818"/><stop offset="1"/></radialGradient><radialGradient id="u" cx="0" cy="0" r="1" gradientUnits="userSpaceOnUse" gradientTransform="matrix(-14.9245 0 0 -14.9565 509.923 619.317)"><stop stop-color="#fff"/><stop offset="1"/></radialGradient></defs></svg>