<svg width="447" height="636" fill="none" xmlns="http://www.w3.org/2000/svg"><path opacity=".05" d="M446.231 537.836c.385-71.189-99.078-105.961-222.156-106.628C100.997 430.541.911 464.231.526 535.42c-.384 71.189 167.755 98.324 290.833 98.991 123.078.668 154.488-25.386 154.872-96.575z" fill="#666"/><path d="m273.105 542.267-45.511-23.289c-5.132-2.621-13.825-1.822-19.419 1.779l-81.81-20.921c-2.846 1.836-5.076-1.121-5.188.953 0 .07-.589 1.443-.168 5.535a3.391 3.391 0 0 0 1.262 2.312c8.272 6.53 55.914 35.593 58.199 36.756l43.759 28.46c5.131 2.62 13.824 1.822 19.418-1.78l24.228-15.652c4.29-2.732 5.622-5.073 7.557-9.136.659-1.388.968-3.77.645-5.283-.462-2.144-.631 1.457-2.972.266z" fill="url(#a)"/><path style="mix-blend-mode:color-dodge" d="m224.117 573.432-90.686-59.541c-2.425-1.247 90.041 57.032 90.041 57.032 5.131 2.621 13.824 1.822 19.418-1.779 0 0 17.75-10.3 22.546-12.822l-21.901 15.316c-5.594 3.615-14.287 4.414-19.418 1.78v.014z" fill="url(#b)"/><path style="mix-blend-mode:screen" opacity=".6" d="m272.558 538.525-45.511-23.289c-5.132-2.621-76.959-36.602-82.554-32.987l-18.871 12.192c-5.595 3.615-5.959 8.674-.828 11.294l98.874 64.375c5.132 2.621 13.824 1.822 19.419-1.779l20.386-13.032c4.472-2.186 10.753-10.258 9.071-16.76l.014-.014z" fill="url(#c)"/><path d="m240.353 522.971-13.362-8.618c-4.15-2.13-38.304-30.828-58.186-40.301-5.314-2.536-9.954-.406-24.298 8.198l-18.871 12.191c-5.595 3.615-5.959 8.674-.827 11.294l98.803 63.479c5.132 2.62 13.824 1.821 19.419-1.78l21.788-14.083c-5.37-5.759-19.335-27.76-24.466-30.394v.014z" fill="url(#d)"/><path d="m268.057 548.488-43.52-25.111c-4.907-2.83-8.889-10.439-8.889-16.969l-60.947-56.332c0-3.321-3.646-3.587-1.991-4.793.056-.042 3.519-2.396 8.805-1.779 4.584.532 57.358 25.545 59.685 26.876l46.857 20.922c4.908 2.83 8.889 10.439 8.889 16.969l.309 29.624c0 3.475-.533 9.276-4.417 13.284-1.051 1.079-3.21.056-3.336.098 1.149-.715 1.976-1.415 1.948-1.499-.154-.323-1.71-.309-3.393-1.276v-.014z" fill="url(#e)"/><path style="mix-blend-mode:color-dodge" d="m267.651 491.428-95.355-44.421c-2.313-1.331 92.957 45.22 92.957 45.22 4.908 2.83 8.889 10.439 8.889 16.969 0 0 2.412 36.168 2.412 32.692v-33.49c0-6.545-3.982-14.14-8.889-16.97h-.014z" fill="url(#f)"/><path style="mix-blend-mode:screen" opacity=".6" d="m266.165 547.83-45.007-22.911c-4.907-2.831-71.309-43.973-71.309-50.517v-22.07c0-6.544 3.982-9.543 8.889-6.712l105.94 47.223c4.908 2.831 8.89 10.44 8.89 16.97v27.801c0 3.56-1.585 8.38-3.141 10.762-.238.421-.252.435-.561.869a7.923 7.923 0 0 1-1.108-.42c-.602-.28-1.36-.294-2.593-1.009v.014z" fill="url(#g)"/><path d="m252.158 552.23-31.785-26.905c-3.968-2.284-46.703-25.013-65.14-36.377-4.935-3.041-5.384 2.718-5.384 1.457v-38.087c0-6.544 3.982-9.543 8.889-6.712l105.169 47.644c4.907 2.83 8.889 10.439 8.889 16.969v23.149c0 3.293.323 8.885-3.393 14.994-.925 1.514-1.949 3.251-4.865 5.157-.168.112-12.184-1.205-12.366-1.303l-.014.014z" fill="url(#h)"/><path d="M142.292 488.527s10.081-4.988 10.081-18.987c0-13.999 4.795 3.951 4.795 3.951l-2.369 23.15-12.507-8.114z" fill="url(#i)"/><path style="mix-blend-mode:multiply" d="M272.81 533.383v-23.15c0-6.544-3.981-14.139-8.889-16.969L158.752 445.62c-4.907-2.831-8.889.168-8.889 6.712v17.6c-.953 6.965-4.458 11.197-7.024 13.411l-17.189 11.098c-5.594 3.615-5.959 8.674-.827 11.294l98.803 63.479c5.132 2.62 13.824 1.821 19.419-1.78l21.788-14.083c2.692-1.822 3.701-3.503 4.598-4.961 3.716-6.123 3.393-11.714 3.393-14.993l-.014-.014z" fill="url(#j)"/><path d="m391.032 578.028-144.805-85.675c-12.043-6.951-21.816-25.602-21.816-41.66L50.289 104.084c0-8.17-8.931-8.815-4.865-11.743.154-.112 8.636-5.872 21.605-4.358 11.259 1.317 165.332 74.857 171.024 78.15l152.993 75.375c12.044 6.95 21.817 25.602 21.817 41.66v278.381c0 8.533-2.762 14.615-7.151 17.39-.266.168-11.567 5.535-11.847 5.633-3.898 1.303 2.453-3.503-2.819-6.544h-.014z" fill="url(#k)"/><path style="mix-blend-mode:color-dodge" d="M390.051 241.844 85.845 100.734c-5.692-3.279 298.289 143.072 298.289 143.072 12.044 6.951 21.816 25.602 21.816 41.66 0 0 5.903 284.939 5.903 276.419v-278.38c0-16.059-9.772-34.71-21.816-41.661h.014z" fill="url(#l)"/><path style="mix-blend-mode:screen" opacity=".6" d="m382.732 581.825-144.805-85.674C225.883 489.2 38.371 376.074 38.371 360.029V109.661c0-16.059 9.773-23.43 21.816-16.48l322.531 152.125c12.044 6.95 21.816 25.601 21.816 41.66v278.38c0 16.059-9.772 23.43-21.816 16.479h.014z" fill="url(#m)"/><path d="m380.839 582.848-144.805-85.675c-9.744-5.619-139.183-73.567-184.427-101.439-12.1-7.455-13.222-32.636-13.222-35.705V109.661c0-16.059 9.773-23.43 21.816-16.48L380.84 246.33c12.044 6.95 21.817 25.601 21.817 41.66v278.38c0 16.059-9.773 23.43-21.817 16.479z" fill="url(#n)"/><path d="M41.358 361.907V111.202c0-14.069 8.566-20.543 19.124-14.447L380.545 249.58c10.558 6.095 19.124 22.448 19.124 36.517v278.731c0 14.069-8.566 20.543-19.124 14.447L60.482 398.425c-10.558-6.096-19.124-22.449-19.124-36.518z" fill="url(#o)"/><path d="M43.77 364.191V114.944c0-12.906 5.986-17.657 14.833-12.556l320.806 151.41c8.833 5.1 16.012 18.791 16.012 30.562v277.287c0 11.785-7.165 17.194-16.012 12.093L59.767 394.753c-8.833-5.1-16.012-18.791-16.012-30.562h.014z" fill="url(#p)"/><path d="M61.435 105.064c-8.328-4.806-15.086-.953-15.086 8.59v252.443c0 9.556 6.758 21.201 15.086 26.008l316.769 178.496c8.328 4.806 15.086.953 15.086-8.59V281.543c0-9.557-6.758-21.202-15.086-26.008L61.435 105.064z" fill="url(#q)"/><path opacity=".5" d="m53.435 142.58 331.403 155.287M53.17 159.728l331.403 155.287M52.886 178.09l331.402 155.287" stroke="#fff" stroke-miterlimit="10" stroke-linecap="round"/><path opacity=".41" d="m52.567 198.643.567 168.687a20.136 20.136 0 0 0 10.149 17.805l149.01 82.546 3.902-193.994-163.628-75.044zM217.17 350.247l-2.215 119.033 100.083 57.661 2.39-130.294-100.258-46.4zM320.224 398.436l-2.372 130.182 55.058 32.64c3.07 1.827 6.972-.355 7.028-3.931l2.37-130.028-62.084-28.846v-.017zM218.019 329.433l-.25 16.155 165.16 75.598.247-15.95-165.157-75.803zM218.3 311.276l-.25 16.155 165.16 75.598.247-15.95L218.3 311.276zM218.581 293.135l-.25 16.155 165.16 75.598.247-15.949-165.157-75.804zM218.862 274.995l-.25 16.138 165.16 75.615.247-15.967-165.157-75.786z" fill="#fff"/><path d="m53.827 117.303-.137 8.814 332.622 156.195.123-7.975a12.626 12.626 0 0 0-7.266-11.632L60.758 112.977c-3.195-1.504-6.877.801-6.931 4.326z" fill="url(#r)"/><path d="M61.27 125.275a2.703 2.703 0 1 0 .083-5.407 2.703 2.703 0 1 0-.084 5.407z" fill="#FF6E60"/><path d="M68.53 128.435a2.705 2.705 0 1 0 .083-5.408 2.705 2.705 0 0 0-.083 5.408z" fill="#FFC145"/><path d="M75.556 131.249a2.705 2.705 0 1 0 .082-5.409 2.705 2.705 0 0 0-.082 5.409z" fill="#00C646"/><g filter="url(#s)"><path d="M241 370V190.923l-63.62-37.647v179.077l-43.405-30.207L214 440l70.618-50.852L241 370z" fill="#CFCA00"/></g><path d="M134 302h-23l43.5 30.5v-16c-8.006-5.468-12.494-9.033-20.5-14.5z" fill="#C69D36"/><path d="M218 369V190l-63.62-36.724v179.077L111 302l75 141 76-54-44-20z" fill="url(#t)"/><path d="M218 249h23v121l-23-1V249z" fill="#AFA339"/><path d="m214 440-28 3 76-54h23l-71 51z" fill="#AF9539"/><path d="m241 370-23-1 44 20h23l-44-19z" fill="#C6AF36"/><path d="m266.696 77.383-9.813.811c-2.056-.234-4.094-1.55-5.682-3.678-1.587-2.127-2.615-4.921-2.85-7.788-.252-2.866.289-5.607 1.515-7.644l6.169-9.285c.578-.865.848-2.073.758-3.353-.09-1.28-.559-2.524-1.281-3.461l-17.515-23.167c-1.497-1.875-3.644-1.983-4.87-.253l-6.17 9.285c-1.01 1.442-2.345 2.362-3.842 2.632-1.497.289-3.084-.09-4.564-1.063-1.479-.848-2.814-2.254-3.824-4.057-1.01-1.803-1.641-3.894-1.822-6.04l-1.028-13.647c-.198-2.668-1.912-4.904-3.806-4.994L185.541.51c-1.894-.108-10.264-.144-10.066 2.524l8.028 15.865c.126 2.867-.542 5.535-1.858 7.446-1.317 1.93-3.193 2.957-5.25 2.903-2.056-.072-4.112-1.226-5.772-3.245l-7.612-10.006c-1.479-1.947-3.662-2.056-4.871-.253l-14.286 21.31c-.577.866-.848 2.073-.758 3.354.09 1.28.559 2.524 1.281 3.461l7.612 10.006c1.173 1.586 2.02 3.57 2.453 5.679.433 2.11-3.824 1.46-4.275 3.39 0 0-.739 9.518-2.273 9.482l-9.831-.505c-1.912-.108-3.283 1.984-3.084 4.634l2.381 31.424c.072 1.298.523 2.56 1.245 3.515.721.956 1.641 1.533 2.579 1.569 0 0 18.057 17.596 16.83 19.633 0 0-7.017 11.358-6.927 12.638.09 1.28 18.851 26.52 18.851 26.52 1.497 1.875 11.039-9.032 11.039-9.032 1.01-1.443 2.345-2.362 3.842-2.633 1.498-.288 3.085.09 4.564 1.064 1.479.847 2.814 2.254 3.824 4.056 1.01 1.803 1.642 3.895 1.822 6.04l1.046 13.756c.199 2.668-.956 4.904.956 5.012l24.858-5.066c1.894.108 3.283-1.983 3.084-4.634l-.577-7.518c-.126-2.866.541-5.534 1.858-7.445 1.317-1.929 3.193-2.957 5.249-2.903 2.056.072 4.113 1.226 5.772 3.245l7.613 10.006c1.479 1.947 3.661 2.055 4.87.252l14.214-21.399c.578-.866.848-2.074.758-3.354-.09-1.28-.559-2.524-1.281-3.461l-7.612-10.006c-1.172-1.569-2.02-3.534-2.453-5.625-.433-2.091-.415-4.237.018-6.148 0-.09 0-.198-.018-.288.397-1.965 1.226-3.624 2.399-4.778 1.154-1.154 5.069-4.831 6.584-4.795l7.143-.541c1.912.108 3.283-1.983 3.085-4.634l-2.075-28.593c-.198-2.668-1.912-4.904-3.806-4.994l-.018-.054zm-59.617 60.053c-7.883-.414-15.766-5.174-21.917-13.269-6.169-8.077-10.083-18.822-10.931-29.837-.83-11.016-7.296-28.907-2.317-36.407 4.979-7.5 21.005-3.995 28.869-3.58 7.865.414 10.914 7.517 17.083 15.594 6.169 8.077 14.936 16.478 15.766 27.512.829 11.015-8.875 15.919-13.854 23.419-4.979 7.5-4.834 16.983-12.717 16.586l.018-.018z" fill="#7D7D7D"/><path d="m215.106 86.228 5.682-9.82c-2.056-.234-4.095-1.55-5.682-3.678-1.587-2.127-2.616-4.922-2.85-7.788-.253-2.867.289-5.607 1.515-7.644l6.169-9.285c.578-.865.848-2.073.758-3.353-.09-1.28-.559-2.524-1.281-3.462 0 0-38.548 3.065-39.54 1.262-1.01-1.803-27.888 6.905-27.888 6.905 1.173 1.587 2.02 3.57 2.453 5.68.433 2.108-3.824 1.46-4.275 3.389 0 0-.739 9.519-2.273 9.483l-9.831-.505c-1.912-.108-3.283 1.983-3.084 4.633l2.381 31.424c.072 1.298.523 2.56 1.245 3.516.721.955 1.641 1.532 2.579 1.568 0 0 18.057 17.596 16.83 19.633l-6.169 9.285c-.577.865 59.52 6.009 59.953 4.08 7.374 12.166 12.923-27.211 14.456-27.175l7.143-.541c1.912.109 3.283-1.983 3.085-4.633l-2.075-27.277c-.198-2.668-6.259 1.177-8.153 1.087l-11.148 3.216zm-8.009 46.682c-7.883-.415-15.766-5.175-21.917-13.269-6.169-8.077-10.083-18.822-10.931-29.838-.83-11.015 1.497-21.418 6.476-28.917 4.978-7.5 12.212-11.485 20.076-11.07 7.865.415 8.136 14.837 14.305 22.914 6.169 8.077 17.714 9.159 18.544 20.192.829 11.016-8.875 15.919-13.854 23.419-4.979 7.5-4.834 16.983-12.717 16.587l.018-.018z" fill="url(#u)"/><path d="M182.33.003h-23.612l21.393 1.172 27.96.505L182.33.003z" fill="url(#v)"/><path d="m207.602 17.871 27.617.397s1.659.018 2.67 1.388c.793 1.064 10.805 14.062 17.641 23.293 1.281 1.73 1.263 3.534 1.263 3.534l-34.057.594-15.134-29.206z" fill="url(#w)"/><path d="m132.922 14.048 23-1.658-.217.973s1.281 9.736.577 10.835c-.703 1.1-3.21 4.471-3.21 4.471l-4.33 1.353s-6.53-1.767-6.584-1.911c-.054-.145-9.236-14.063-9.236-14.063z" fill="url(#x)"/><path d="m110.104 71.397 14.467-1.082-.776 1.172-2.165.866s-4.942.342-5.032.342c-.091 0-4.384-.108-4.384-.108l-2.11-1.172v-.018z" fill="#BABABA"/><path d="m145.044 172.808 22.927-1.73-1.984-8.402s-1.118-2.001-2.976-2.902c-1.858-.902-4.257-2.019-5.304-2.055-1.046-.037-3.373.739-3.535.847-.162.108-4.546 4.741-4.852 5.264-.307.523-2.309 3.101-2.382 3.696-.072.595-1.912 5.282-1.912 5.282h.018z" fill="#686868"/><path d="m238.538 78.195 28.573-.794s1.028.199 1.966 1.335c.433.504 1.48 1.316 1.606 4.344.108 2.416 1.299 20.589 1.912 29.062.144 1.893-1.389 3.498-3.301 3.48l-27.13 3.66 1.317-.739.974-2.146-.054-3.299-5.881-34.903h.018z" fill="url(#y)"/><path d="m194.398 190.765 27.581-5.769c1.822.036 3.283-1.515 3.138-3.317l-1.118-14.748-9.272-6.057-11.039-1.389-8.442 2.074-2.58 8.275 1.732 20.931z" fill="#858585"/><path d="m219.381 176.828 28.267.721a2.32 2.32 0 0 0 2.002-1.045l14.286-21.869s.92-1.677.65-3.84c-.108-.938-27.852-.018-27.852-.018l-17.389 26.069.036-.018z" fill="url(#z)"/><path d="m238.755 78.212-9.831-.505c-2.057-.234-4.095-1.55-5.683-3.678-1.587-2.127-2.615-4.921-2.85-7.788-.252-2.867.289-5.607 1.516-7.644l6.169-9.285c.577-.865.848-2.073.757-3.353-.09-1.28-.559-2.524-1.28-3.462l-17.516-23.166c-1.497-1.875-3.644-1.983-4.87-.253l-6.169 9.285c-1.011 1.442-2.345 2.362-3.843 2.632-1.497.289-3.084-.09-4.563-1.064-1.48-.847-2.814-2.253-3.825-4.056-1.01-1.803-1.641-3.894-1.821-6.04l-1.029-13.647c-.198-2.668-1.912-4.904-3.806-4.994L158.718.004c-1.895-.108-3.283 1.983-3.085 4.633l-.108 13.756c.126 2.867-.541 5.535-1.858 7.446-1.317 1.929-3.193 2.957-5.249 2.903-2.057-.073-4.113-1.226-5.773-3.246l-7.612-10.005c-1.479-1.947-3.662-2.056-4.87-.253l-14.287 21.31c-.577.865-.848 2.073-.758 3.353.091 1.28.56 2.524 1.281 3.462l7.612 10.006c1.173 1.586 2.021 3.57 2.454 5.679.433 2.109.415 4.272-.036 6.183v.199c-.379 1.965-1.227 3.623-2.382 4.777-1.154 1.154-2.597 1.75-4.112 1.695l-9.831-.505c-1.912-.108-3.283 1.983-3.085 4.633l2.381 31.424c.072 1.298.523 2.56 1.245 3.516.721.955 1.641 1.532 2.579 1.568l9.831.505c2.057.235 4.095 1.551 5.682 3.678 1.588 2.127 2.616 4.922 2.851 7.788.252 2.867-.289 5.607-1.516 7.645l-6.169 9.284c-.577.866-.848 2.074-.757 3.354.09 1.28.559 2.524 1.28 3.461l17.588 23.059c1.497 1.875 3.644 1.983 4.87.252l6.169-9.285c1.011-1.442 2.345-2.361 3.843-2.632 1.497-.288 3.084.09 4.563 1.064 1.48.847 2.814 2.253 3.825 4.056 1.01 1.803 1.641 3.894 1.821 6.04l1.047 13.756c.198 2.668 1.912 4.903 3.806 4.994l22.458 1.171c1.894.109 3.283-1.983 3.084-4.633l-1.046-13.756c-.126-2.866.541-5.535 1.858-7.446 1.317-1.929 3.193-2.956 5.249-2.902 2.057.072 4.113 1.226 5.773 3.245l7.612 10.006c1.479 1.947 3.662 2.055 4.87.252l14.215-21.4c.577-.865.848-2.073.757-3.353-.09-1.28-.559-2.524-1.28-3.462l-7.613-10.005c-1.172-1.569-2.02-3.534-2.453-5.625-.433-2.092-.415-4.237.018-6.148 0-.09 0-.198-.018-.288.397-1.966 1.227-3.624 2.399-4.778 1.155-1.154 2.598-1.749 4.113-1.695l9.921.523c1.912.108 3.283-1.983 3.085-4.633l-2.381-31.424c-.199-2.668-1.912-4.904-3.806-4.994h-.018zm-59.618 58.719c-7.883-.415-15.766-5.174-21.917-13.269-6.151-8.095-10.083-18.822-10.931-29.837-.83-11.016 1.497-21.418 6.476-28.918 4.978-7.5 12.212-11.484 20.077-11.07 7.865.415 15.765 5.175 21.917 13.27 6.151 8.094 10.083 18.821 10.931 29.837.83 11.015-1.497 21.418-6.476 28.918-4.979 7.499-12.194 11.484-20.077 11.087v-.018z" fill="url(#A)"/><path d="m369.004 174.384-12.221 1.01c-2.561-.292-5.1-1.931-7.077-4.58-1.977-2.65-3.257-6.13-3.549-9.7-.315-3.57.359-6.983 1.887-9.52l7.683-11.564c.719-1.077 1.056-2.582.943-4.176-.112-1.594-.696-3.143-1.595-4.311l-21.814-28.852c-1.864-2.336-4.538-2.47-6.065-.315l-7.684 11.564c-1.258 1.796-2.92 2.941-4.785 3.278-1.865.359-3.842-.112-5.684-1.325-1.842-1.055-3.504-2.807-4.762-5.052-1.259-2.245-2.045-4.85-2.27-7.522l-1.28-16.997c-.247-3.323-2.381-6.107-4.74-6.22l-28.06-1.459c-2.359-.135-12.783-.18-12.536 3.144l9.997 19.758c.158 3.57-.673 6.894-2.313 9.274-1.64 2.402-3.977 3.682-6.538 3.615-2.561-.09-5.122-1.527-7.189-4.042l-9.481-12.462c-1.842-2.425-4.56-2.56-6.065-.314l-17.793 26.54c-.719 1.078-1.056 2.582-.944 4.176.113 1.594.697 3.144 1.595 4.311l9.481 12.462c1.46 1.976 2.516 4.445 3.055 7.073.539 2.627-4.762 1.818-5.324 4.221 0 0-.921 11.855-2.831 11.81l-12.244-.629c-2.381-.134-4.088 2.47-3.841 5.771l2.965 39.136c.09 1.617.652 3.188 1.55 4.378.899 1.19 2.045 1.909 3.213 1.954 0 0 22.488 21.914 20.96 24.451 0 0-8.739 14.146-8.626 15.74.112 1.594 23.476 33.029 23.476 33.029 1.865 2.335 13.749-11.249 13.749-11.249 1.258-1.796 2.921-2.942 4.785-3.278 1.865-.36 3.842.112 5.684 1.324 1.842 1.056 3.505 2.807 4.763 5.052 1.258 2.246 2.044 4.85 2.269 7.522l1.303 17.132c.247 3.323-1.191 6.107 1.191 6.242l30.957-6.309c2.359.134 4.089-2.47 3.842-5.771l-.719-9.363c-.157-3.57.674-6.893 2.314-9.273 1.64-2.403 3.977-3.682 6.538-3.615 2.561.09 5.122 1.527 7.189 4.042l9.48 12.461c1.842 2.425 4.561 2.56 6.066.315l17.703-26.652c.719-1.078 1.056-2.583.943-4.177-.112-1.594-.696-3.143-1.595-4.311l-9.48-12.461c-1.46-1.954-2.516-4.401-3.056-7.006-.539-2.604-.516-5.276.023-7.656 0-.113 0-.247-.023-.36.495-2.447 1.528-4.513 2.988-5.95 1.438-1.437 6.313-6.017 8.2-5.972l8.897-.674c2.381.135 4.089-2.47 3.841-5.77l-2.583-35.611c-.247-3.323-2.382-6.108-4.74-6.22l-.023-.067zm-74.249 74.792c-9.817-.517-19.635-6.444-27.296-16.526-7.683-10.059-12.558-23.441-13.614-37.16-1.033-13.719-9.086-36.001-2.885-45.342 6.2-9.34 26.16-4.976 35.955-4.459 9.795.516 13.591 9.363 21.275 19.422 7.683 10.059 18.601 20.522 19.635 34.263 1.033 13.719-11.054 19.827-17.254 29.167-6.201 9.341-6.021 21.151-15.838 20.657l.022-.022z" fill="#757575"/><path d="m304.752 185.398 7.077-12.23c-2.561-.292-5.1-1.931-7.077-4.581-1.977-2.649-3.257-6.13-3.549-9.7-.315-3.57.359-6.983 1.887-9.52l7.683-11.563c.719-1.078 1.056-2.582.944-4.177-.113-1.594-.697-3.143-1.595-4.311 0 0-48.01 3.817-49.245 1.572-1.258-2.245-34.732 8.6-34.732 8.6 1.46 1.976 2.516 4.445 3.055 7.073.539 2.627-4.762 1.818-5.324 4.221 0 0-.921 11.855-2.831 11.81l-12.244-.629c-2.381-.134-4.088 2.47-3.841 5.771l2.965 39.136c.09 1.617.652 3.188 1.55 4.378.899 1.19 2.045 1.909 3.213 1.954 0 0 22.488 21.914 20.96 24.451l-7.683 11.564c-.719 1.078 74.128 7.484 74.667 5.081 9.185 15.153 16.095-33.889 18.004-33.844l8.897-.673c2.381.134 4.088-2.47 3.841-5.771l-2.583-33.972c-.248-3.323-7.796 1.466-10.155 1.354l-13.884 4.006zm-9.974 58.138c-9.818-.516-19.635-6.444-27.296-16.525-7.683-10.059-12.559-23.442-13.614-37.161-1.034-13.719 1.864-26.674 8.065-36.015 6.2-9.34 15.209-14.302 25.004-13.786 9.795.516 10.132 18.479 17.815 28.538 7.684 10.059 22.062 11.406 23.095 25.148 1.033 13.719-11.053 19.826-17.254 29.167-6.2 9.34-6.02 21.151-15.838 20.657l.023-.023z" fill="url(#B)"/><path d="M263.932 78.015h-29.407l26.644 1.46 34.822.628-32.059-2.088z" fill="url(#C)"/><path d="m295.407 100.266 34.395.494s2.066.022 3.324 1.728c.989 1.325 13.457 17.514 21.972 29.01 1.595 2.156 1.572 4.401 1.572 4.401l-42.415.741-18.848-36.374z" fill="url(#D)"/><path d="m202.399 95.505 28.643-2.066-.269 1.212s1.595 12.125.719 13.495c-.876 1.37-3.999 5.568-3.999 5.568l-5.392 1.684s-8.132-2.2-8.2-2.38c-.067-.179-11.502-17.513-11.502-17.513z" fill="url(#E)"/><path d="m173.98 166.929 18.017-1.347-.966 1.459-2.696 1.078s-6.155.427-6.268.427c-.112 0-5.459-.135-5.459-.135l-2.628-1.459v-.023z" fill="#BABABA"/><path d="m217.496 293.228 28.554-2.155-2.472-10.463s-1.393-2.493-3.707-3.615c-2.313-1.123-5.301-2.515-6.604-2.56-1.303-.045-4.202.921-4.404 1.055-.202.135-5.661 5.906-6.043 6.557-.382.651-2.876 3.862-2.965 4.603-.09.741-2.382 6.578-2.382 6.578h.023z" fill="#868686"/><path d="m333.935 175.394 35.586-.988s1.28.247 2.449 1.661c.539.629 1.842 1.639 1.999 5.412.135 3.008 1.618 25.641 2.382 36.194.179 2.358-1.73 4.356-4.112 4.334l-33.788 4.558 1.64-.921 1.213-2.672-.067-4.109-7.324-43.469h.022z" fill="url(#F)"/><path d="m278.962 315.593 34.35-7.185c2.269.045 4.088-1.886 3.909-4.132l-1.393-18.367-11.547-7.544-13.749-1.729-10.514 2.582-3.213 10.306 2.157 26.069z" fill="gray"/><path d="m310.077 298.235 35.203.899a2.89 2.89 0 0 0 2.494-1.303l17.793-27.236s1.146-2.088.809-4.782c-.135-1.168-34.687-.023-34.687-.023l-21.657 32.468.045-.023z" fill="url(#G)"/><path d="m334.205 175.416-12.244-.629c-2.561-.292-5.1-1.931-7.077-4.58-1.977-2.65-3.257-6.13-3.549-9.7-.315-3.57.359-6.983 1.887-9.52l7.683-11.564c.719-1.077 1.056-2.582.944-4.176-.113-1.594-.697-3.143-1.595-4.311l-21.815-28.852c-1.864-2.335-4.538-2.47-6.065-.315l-7.684 11.564c-1.258 1.796-2.92 2.941-4.785 3.278-1.864.359-3.841-.112-5.684-1.325-1.842-1.055-3.504-2.806-4.762-5.052-1.258-2.245-2.045-4.85-2.269-7.522l-1.281-16.997c-.247-3.323-2.381-6.107-4.74-6.22l-26.644-1.481c-2.359-.135-4.089 2.47-3.842 5.77l-.135 17.132c.157 3.57-.674 6.893-2.314 9.273-1.64 2.403-3.976 3.683-6.537 3.615-2.561-.09-5.122-1.527-7.189-4.041l-9.481-12.462c-1.842-2.425-4.56-2.56-6.066-.314l-17.792 26.54c-.719 1.077-1.056 2.582-.944 4.176.112 1.594.696 3.143 1.595 4.311l9.481 12.461c1.46 1.976 2.516 4.446 3.055 7.073.539 2.627.517 5.322-.045 7.702v.247c-.472 2.447-1.528 4.513-2.965 5.95-1.438 1.437-3.236 2.178-5.123 2.11l-12.243-.628c-2.382-.135-4.089 2.47-3.842 5.77l2.965 39.136c.09 1.617.652 3.189 1.551 4.379.898 1.19 2.044 1.908 3.212 1.953l12.244.629c2.561.292 5.1 1.931 7.077 4.58 1.977 2.65 3.257 6.13 3.549 9.7.315 3.57-.359 6.983-1.887 9.52l-7.683 11.564c-.719 1.077-1.056 2.582-.944 4.176.113 1.594.697 3.143 1.595 4.311l21.904 28.718c1.865 2.335 4.538 2.47 6.066.314l7.683-11.563c1.258-1.797 2.921-2.942 4.786-3.279 1.864-.359 3.841.113 5.683 1.325 1.843 1.056 3.505 2.807 4.763 5.052 1.258 2.246 2.044 4.85 2.269 7.522l1.303 17.132c.247 3.323 2.382 6.107 4.74 6.219l27.97 1.46c2.359.135 4.089-2.47 3.842-5.771l-1.303-17.131c-.157-3.57.674-6.894 2.314-9.274 1.64-2.402 3.976-3.682 6.537-3.615 2.561.09 5.122 1.527 7.189 4.042l9.481 12.462c1.842 2.425 4.56 2.559 6.066.314l17.702-26.652c.719-1.078 1.056-2.582.944-4.176-.112-1.595-.696-3.144-1.595-4.311l-9.481-12.462c-1.46-1.953-2.516-4.401-3.055-7.005-.539-2.605-.517-5.277.023-7.657 0-.112 0-.247-.023-.359.494-2.448 1.528-4.513 2.988-5.95 1.438-1.437 3.235-2.178 5.122-2.111l12.356.651c2.382.135 4.089-2.47 3.842-5.77l-2.965-39.136c-.248-3.323-2.382-6.108-4.741-6.22h-.022zm-74.249 73.13c-9.818-.516-19.635-6.444-27.296-16.525-7.661-10.082-12.558-23.441-13.614-37.16-1.034-13.719 1.864-26.675 8.065-36.015 6.2-9.341 15.209-14.303 25.004-13.787 9.795.517 19.635 6.444 27.296 16.526 7.661 10.081 12.558 23.441 13.614 37.16 1.034 13.719-1.864 26.675-8.065 36.015-6.2 9.341-15.187 14.303-25.004 13.809v-.023z" fill="url(#H)"/><defs><linearGradient id="q" x1="105.096" y1="105.176" x2="403.911" y2="675.259" gradientUnits="userSpaceOnUse"><stop offset=".01" stop-color="#DBF75E"/><stop offset=".43" stop-color="#90F6C0"/><stop offset=".9" stop-color="#7DF6EB"/></linearGradient><linearGradient id="H" x1="152.682" y1="409.185" x2="314.64" y2="196.426" gradientUnits="userSpaceOnUse"><stop stop-color="#979797"/><stop offset="1" stop-color="#CBCBCB"/></linearGradient><linearGradient id="G" x1="341.491" y1="264.715" x2="339.889" y2="301.568" gradientUnits="userSpaceOnUse"><stop stop-color="#757575"/><stop offset="1" stop-color="#BABABA"/></linearGradient><linearGradient id="F" x1="354.31" y1="157.358" x2="360.719" y2="237.475" gradientUnits="userSpaceOnUse"><stop stop-color="#757575"/><stop offset=".536" stop-color="#ADADAD"/><stop offset="1" stop-color="#757575"/></linearGradient><linearGradient id="d" x1="233.352" y1="556.588" x2="39.495" y2="395.34" gradientUnits="userSpaceOnUse"><stop offset=".19" stop-color="#3D065F"/><stop offset=".93" stop-color="#3D065F"/></linearGradient><linearGradient id="e" x1="184.677" y1="422.611" x2="234.997" y2="509.823" gradientUnits="userSpaceOnUse"><stop offset=".06" stop-color="#200041"/><stop offset=".26" stop-color="#210143"/><stop offset=".36" stop-color="#25084A"/><stop offset=".43" stop-color="#2C1357"/><stop offset=".47" stop-color="#311B61"/><stop offset=".48" stop-color="#351F65"/><stop offset=".5" stop-color="#422C72"/><stop offset=".51" stop-color="#574188"/><stop offset=".52" stop-color="#755FA6"/><stop offset=".53" stop-color="#8770B8"/><stop offset=".54" stop-color="#7D66AE"/><stop offset=".56" stop-color="#5C458C"/><stop offset=".59" stop-color="#442E74"/><stop offset=".61" stop-color="#351F66"/><stop offset=".63" stop-color="#311B61"/><stop offset=".67" stop-color="#2A1054"/><stop offset=".75" stop-color="#220446"/><stop offset=".81" stop-color="#200041"/><stop offset="1" stop-color="#200041"/></linearGradient><linearGradient id="E" x1="217.077" y1="93.439" x2="217.077" y2="115.398" gradientUnits="userSpaceOnUse"><stop stop-color="#BABABA"/><stop offset="1" stop-color="#757575"/></linearGradient><linearGradient id="D" x1="326.039" y1="100.266" x2="330.275" y2="137.33" gradientUnits="userSpaceOnUse"><stop stop-color="#BABABA"/><stop offset="1" stop-color="#757575"/></linearGradient><linearGradient id="h" x1="257.374" y1="515.054" x2="18.78" y2="440.318" gradientUnits="userSpaceOnUse"><stop offset=".19" stop-color="#3D065F"/><stop offset=".93" stop-color="#3D065F"/></linearGradient><linearGradient id="i" x1="142.292" y1="480.428" x2="157.168" y2="480.428" gradientUnits="userSpaceOnUse"><stop offset=".19" stop-color="#3D065F"/><stop offset=".93" stop-color="#3D065F"/></linearGradient><linearGradient id="j" x1="231.253" y1="456.998" x2="176.676" y2="558.827" gradientUnits="userSpaceOnUse"><stop stop-color="#fff" stop-opacity="0"/><stop offset=".5" stop-color="#20112D"/><stop offset="1" stop-color="#EEEAF1" stop-opacity="0"/></linearGradient><linearGradient id="k" x1="124.136" y1="30.25" x2="323.512" y2="375.763" gradientUnits="userSpaceOnUse"><stop offset=".06" stop-color="#200041"/><stop offset=".26" stop-color="#210143"/><stop offset=".36" stop-color="#25084A"/><stop offset=".43" stop-color="#2C1357"/><stop offset=".47" stop-color="#311B61"/><stop offset=".48" stop-color="#351F65"/><stop offset=".5" stop-color="#422C72"/><stop offset=".51" stop-color="#574188"/><stop offset=".52" stop-color="#755FA6"/><stop offset=".53" stop-color="#8770B8"/><stop offset=".54" stop-color="#7D66AE"/><stop offset=".56" stop-color="#5C458C"/><stop offset=".59" stop-color="#442E74"/><stop offset=".61" stop-color="#351F66"/><stop offset=".63" stop-color="#311B61"/><stop offset=".67" stop-color="#2A1054"/><stop offset=".75" stop-color="#220446"/><stop offset=".81" stop-color="#200041"/><stop offset="1" stop-color="#200041"/></linearGradient><linearGradient id="C" x1="275.796" y1="82.851" x2="270.188" y2="69.232" gradientUnits="userSpaceOnUse"><stop stop-color="#757575"/><stop offset="1" stop-color="#BABABA"/></linearGradient><linearGradient id="B" x1="256.568" y1="71.633" x2="268.167" y2="257.204" gradientUnits="userSpaceOnUse"><stop stop-color="#585858"/><stop offset="1" stop-color="#757575"/></linearGradient><linearGradient id="n" x1="381.625" y1="388.419" x2="-425.015" y2="135.765" gradientUnits="userSpaceOnUse"><stop offset=".19" stop-color="#3D065F"/><stop offset=".93" stop-color="#3D065F"/></linearGradient><linearGradient id="o" x1="353.401" y1="604.624" x2="49.428" y2="-38.025" gradientUnits="userSpaceOnUse"><stop stop-color="#311B61"/><stop offset=".2" stop-color="#290E52"/><stop offset=".49" stop-color="#200041"/><stop offset="1" stop-color="#0F001F"/></linearGradient><linearGradient id="p" x1="43.769" y1="338.015" x2="395.421" y2="338.015" gradientUnits="userSpaceOnUse"><stop stop-color="#311B61"/><stop offset=".2" stop-color="#290E52"/><stop offset=".49" stop-color="#200041"/><stop offset="1" stop-color="#0F001F"/></linearGradient><linearGradient id="a" x1="119.158" y1="540.713" x2="220.608" y2="535.615" gradientUnits="userSpaceOnUse"><stop offset=".06" stop-color="#200041"/><stop offset=".26" stop-color="#210143"/><stop offset=".36" stop-color="#25084A"/><stop offset=".43" stop-color="#2C1357"/><stop offset=".47" stop-color="#311B61"/><stop offset=".48" stop-color="#351F65"/><stop offset=".5" stop-color="#422C72"/><stop offset=".51" stop-color="#574188"/><stop offset=".52" stop-color="#755FA6"/><stop offset=".53" stop-color="#8770B8"/><stop offset=".54" stop-color="#7D66AE"/><stop offset=".56" stop-color="#5C458C"/><stop offset=".59" stop-color="#442E74"/><stop offset=".61" stop-color="#351F66"/><stop offset=".63" stop-color="#311B61"/><stop offset=".67" stop-color="#2A1054"/><stop offset=".75" stop-color="#220446"/><stop offset=".81" stop-color="#200041"/><stop offset="1" stop-color="#200041"/></linearGradient><linearGradient id="r" x1="221.382" y1="115.028" x2="218.832" y2="279.719" gradientUnits="userSpaceOnUse"><stop stop-color="#D8D8D8"/><stop offset=".464" stop-color="#fff"/><stop offset="1" stop-color="#DDD" stop-opacity=".865"/></linearGradient><linearGradient id="t" x1="184" y1="422" x2="184" y2="183" gradientUnits="userSpaceOnUse"><stop stop-color="#FFE818"/><stop offset="1" stop-color="#CABC40"/></linearGradient><linearGradient id="u" x1="176.417" y1="-5.118" x2="185.73" y2="143.884" gradientUnits="userSpaceOnUse"><stop stop-color="#525252"/><stop offset="1" stop-color="#757575"/></linearGradient><linearGradient id="v" x1="191.856" y1="3.887" x2="187.353" y2="-7.049" gradientUnits="userSpaceOnUse"><stop stop-color="#757575"/><stop offset="1" stop-color="#BABABA"/></linearGradient><linearGradient id="w" x1="232.197" y1="17.871" x2="235.599" y2="47.631" gradientUnits="userSpaceOnUse"><stop stop-color="#BABABA"/><stop offset="1" stop-color="#757575"/></linearGradient><linearGradient id="x" x1="144.708" y1="12.39" x2="144.708" y2="30.022" gradientUnits="userSpaceOnUse"><stop stop-color="#BABABA"/><stop offset="1" stop-color="#757575"/></linearGradient><linearGradient id="y" x1="254.898" y1="63.713" x2="260.044" y2="128.042" gradientUnits="userSpaceOnUse"><stop stop-color="#757575"/><stop offset=".365" stop-color="#BABABA"/><stop offset=".63" stop-color="#BABABA"/><stop offset="1" stop-color="#757575"/></linearGradient><linearGradient id="z" x1="244.605" y1="149.913" x2="243.319" y2="179.504" gradientUnits="userSpaceOnUse"><stop stop-color="#757575"/><stop offset="1" stop-color="#BABABA"/></linearGradient><linearGradient id="A" x1="241.466" y1="-12.535" x2="131.31" y2="167.133" gradientUnits="userSpaceOnUse"><stop stop-color="#FAFAFA"/><stop offset="1" stop-color="#A5A5A5"/></linearGradient><radialGradient id="m" cx="0" cy="0" r="1" gradientUnits="userSpaceOnUse" gradientTransform="matrix(186.18 0 0 186.077 393.837 197.984)"><stop stop-color="#AF8AFC"/><stop offset="1" stop-color="#10054D"/></radialGradient><radialGradient id="l" cx="0" cy="0" r="1" gradientUnits="userSpaceOnUse" gradientTransform="matrix(318.507 0 0 318.331 493.075 229.961)"><stop stop-color="#711F56"/><stop offset=".16" stop-color="#6B1D51"/><stop offset=".36" stop-color="#5C1946"/><stop offset=".58" stop-color="#421232"/><stop offset=".82" stop-color="#1F0818"/><stop offset="1"/></radialGradient><radialGradient id="g" cx="0" cy="0" r="1" gradientUnits="userSpaceOnUse" gradientTransform="matrix(39.4961 0 0 39.4743 269.95 467.326)"><stop stop-color="#AF8AFC"/><stop offset="1" stop-color="#10054D"/></radialGradient><radialGradient id="f" cx="0" cy="0" r="1" gradientUnits="userSpaceOnUse" gradientTransform="matrix(68.2385 0 0 68.2008 302.52 473.646)"><stop stop-color="#711F56"/><stop offset=".16" stop-color="#6B1D51"/><stop offset=".36" stop-color="#5C1946"/><stop offset=".58" stop-color="#421232"/><stop offset=".82" stop-color="#1F0818"/><stop offset="1"/></radialGradient><radialGradient id="c" cx="0" cy="0" r="1" gradientUnits="userSpaceOnUse" gradientTransform="matrix(21.9745 33.97468 -33.9824 21.9795 205.143 588.862)"><stop stop-color="#AF8AFC"/><stop offset="1" stop-color="#10054D"/></radialGradient><radialGradient id="b" cx="0" cy="0" r="1" gradientUnits="userSpaceOnUse" gradientTransform="rotate(57.106 -450.556 516.29) scale(63.9793 63.9938)"><stop stop-color="#711F56"/><stop offset=".16" stop-color="#6B1D51"/><stop offset=".36" stop-color="#5C1946"/><stop offset=".58" stop-color="#421232"/><stop offset=".82" stop-color="#1F0818"/><stop offset="1"/></radialGradient><filter id="s" x="115.975" y="124.276" width="216.644" height="352.723" filterUnits="userSpaceOnUse" color-interpolation-filters="sRGB"><feFlood flood-opacity="0" result="BackgroundImageFix"/><feColorMatrix in="SourceAlpha" values="0 0 0 0 0 0 0 0 0 0 0 0 0 0 0 0 0 0 127 0" result="hardAlpha"/><feOffset dx="15" dy="4"/><feGaussianBlur stdDeviation="16.5"/><feComposite in2="hardAlpha" operator="out"/><feColorMatrix values="0 0 0 0 0 0 0 0 0 0 0 0 0 0 0 0 0 0 0.29 0"/><feBlend in2="BackgroundImageFix" result="effect1_dropShadow_53_10643"/><feBlend in="SourceGraphic" in2="effect1_dropShadow_53_10643" result="shape"/></filter></defs></svg>