<svg width="514" height="590" fill="none" xmlns="http://www.w3.org/2000/svg"><path opacity=".05" d="M480.877 505.949c-81.512-32.656-70.874 43.215-222.33-151.879C116.71 353.302 1.369 392.126.927 474.166c-.444 82.039 193.322 113.31 335.159 114.079 141.837.769 226.303-49.641 144.791-82.296z" fill="#666"/><path d="m329.774 480.752-48.877-25.012c-5.511-2.814-14.846-1.956-20.854 1.911l-87.861-22.468c-3.056 1.971-5.451-1.204-5.571 1.023 0 .075-.632 1.55-.181 5.944a3.646 3.646 0 0 0 1.355 2.484c8.884 7.013 60.05 38.225 62.504 39.474l46.994 30.565c5.511 2.814 14.847 1.956 20.855-1.911l26.019-16.81c4.608-2.935 6.038-5.448 8.116-9.813.708-1.489 1.039-4.048.693-5.673-.497-2.303-.678 1.565-3.192.286z" fill="url(#a)"/><path style="mix-blend-mode:color-dodge" d="m277.163 514.237-97.392-63.945c-2.605-1.339 96.699 61.251 96.699 61.251 5.511 2.814 14.847 1.956 20.855-1.912 0 0 19.063-11.061 24.212-13.77l-23.519 16.449c-6.008 3.883-15.344 4.741-20.855 1.912v.015z" fill="url(#b)"/><path style="mix-blend-mode:screen" opacity=".6" d="m329.187 476.749-48.877-25.012c-5.511-2.814-82.651-39.309-88.658-35.426l-20.268 13.093c-6.008 3.882-6.399 9.315-.888 12.129l106.185 69.137c5.511 2.814 14.847 1.956 20.855-1.911l21.893-13.996c4.804-2.348 11.549-11.016 9.743-17.999l.015-.015z" fill="url(#c)"/><path d="m294.599 460.029-14.349-9.255c-4.457-2.288-41.137-33.108-62.489-43.282-5.707-2.724-10.691-.436-26.094 8.804l-20.268 13.093c-6.008 3.883-6.399 9.315-.888 12.13l106.11 68.173c5.511 2.814 14.847 1.956 20.854-1.911l23.4-15.125c-5.767-6.185-20.764-29.813-26.276-32.642v.015z" fill="url(#d)"/><path d="m324.353 487.434-46.738-26.968c-5.27-3.04-9.547-11.212-9.547-18.225l-65.455-60.498c0-3.567-3.915-3.853-2.138-5.147.06-.045 3.78-2.573 9.456-1.911 4.924.572 61.601 27.435 64.1 28.864l50.322 22.469c5.27 3.04 9.547 11.212 9.547 18.225l.331 31.814c0 3.732-.572 9.962-4.743 14.266-1.13 1.159-3.448.061-3.584.106 1.235-.768 2.123-1.52 2.093-1.611-.166-.346-1.837-.331-3.644-1.369v-.015z" fill="url(#e)"/><path style="mix-blend-mode:color-dodge" d="m323.917 426.168-102.406-47.706c-2.485-1.429 99.831 48.564 99.831 48.564 5.27 3.04 9.546 11.212 9.546 18.225 0 0 2.59 38.842 2.59 35.11v-35.968c0-7.028-4.276-15.185-9.546-18.225h-.015z" fill="url(#f)"/><path style="mix-blend-mode:screen" opacity=".6" d="m322.305 486.727-48.334-24.605c-5.27-3.04-76.583-47.225-76.583-54.253v-23.702c0-7.028 4.277-10.249 9.547-7.209l113.774 50.716c5.27 3.04 9.547 11.212 9.547 18.225v29.858c0 3.822-1.702 8.999-3.373 11.557-.256.452-.271.467-.603.933a8.392 8.392 0 0 1-1.189-.451c-.648-.301-1.461-.316-2.786-1.084v.015z" fill="url(#g)"/><path d="m307.278 491.468-34.135-28.895c-4.262-2.453-50.157-26.863-69.957-39.068-5.301-3.265-5.783 2.92-5.783 1.566v-40.904c0-7.028 4.277-10.249 9.547-7.209l112.946 51.168c5.27 3.039 9.547 11.211 9.547 18.224v24.862c0 3.536.346 9.541-3.644 16.102-.994 1.626-2.093 3.492-5.225 5.539-.181.12-13.085-1.295-13.281-1.4l-.015.015z" fill="url(#h)"/><path d="M189.443 422.891s10.934-5.317 10.934-20.235c0-14.919 5.2 4.211 5.2 4.211l-2.57 24.67-13.564-8.646z" fill="url(#i)"/><path style="mix-blend-mode:multiply" d="M328.863 470.783v-24.944c0-7.051-4.267-15.235-9.526-18.285l-112.701-51.336c-5.259-3.05-9.526.181-9.526 7.232v18.964c-1.022 7.505-4.778 12.065-7.528 14.45l-18.42 11.959c-5.995 3.895-6.386 9.346-.887 12.17l105.881 68.398c5.499 2.824 14.814 1.963 20.809-1.917l23.349-15.175c2.885-1.963 3.966-3.775 4.928-5.345 3.981-6.598 3.636-12.623 3.636-16.156l-.015-.015z" fill="url(#j)"/><path d="m409.325 498.856-117.272-67.703c-13.224-7.635-23.953-28.125-23.953-45.767L103.906 18.006c0-8.975-9.806-9.683-5.342-12.9.17-.124 9.483-6.45 23.723-4.788 12.361 1.447 154.557 68.858 160.807 72.46l126.262 56.389c13.224 7.635 23.953 28.125 23.953 45.766v305.82c0 9.375-3.032 16.056-7.851 19.104-.292.185-12.7 6.081-13.008 6.188-4.279 1.432 2.694-3.848-3.094-7.189h-.031z" fill="url(#k)"/><path style="mix-blend-mode:color-dodge" d="M408.248 129.537 151.32 9.77c-6.25-3.602 250.447 121.922 250.447 121.922 13.223 7.635 23.953 28.125 23.953 45.767 0 0 6.481 313.024 6.481 303.664V175.288c0-17.642-10.73-38.131-23.953-45.767v.016z" fill="url(#l)"/><path style="mix-blend-mode:screen" opacity=".6" d="m400.228 503.029-117.273-67.704C269.732 427.69 90.837 316.806 90.837 299.164V24.133c0-17.642 10.729-25.739 23.953-18.104l285.438 127.31c13.223 7.635 23.953 28.125 23.953 45.767v305.819c0 17.642-10.73 25.739-23.953 18.104z" fill="url(#m)"/><path d="m398.134 504.152-117.272-67.703c-10.699-6.173-125.832-67.442-175.509-98.06-13.285-8.19-14.516-35.853-14.516-39.225V24.133c0-17.642 10.729-25.739 23.953-18.104l283.344 128.449c13.224 7.635 23.953 28.125 23.953 45.767v305.819c0 17.642-10.729 25.739-23.953 18.104v-.016z" fill="url(#n)"/><path d="M94.1 301.242V25.826c0-15.456 9.406-22.568 20.998-15.872l282.728 128.079c11.592 6.697 20.998 24.662 20.998 40.117v306.205c0 15.456-9.406 22.568-20.998 15.871L115.098 341.359c-11.592-6.697-20.998-24.661-20.998-40.117z" fill="url(#o)"/><path d="M96.748 303.752V29.937c0-14.178 6.573-19.397 16.287-13.793l283.544 126.539c9.698 5.604 17.58 20.644 17.58 33.575v304.619c0 12.946-7.866 18.888-17.58 13.285L114.328 337.326c-9.698-5.603-17.58-20.643-17.58-33.574z" fill="url(#p)"/><path d="M116.16 19.084c-9.144-5.28-16.564-1.047-16.564 9.436v277.325c0 10.499 7.42 23.292 16.564 28.572l279.111 156.296c9.144 5.281 16.564 1.047 16.564-9.436V173.148c0-10.499-7.42-23.291-16.564-28.571L116.16 19.084z" fill="url(#q)"/><path opacity=".5" d="m105.107 53.704 300.201 135.037M105.107 69.13l300.201 135.037M105.107 85.647l300.201 135.037" stroke="#fff" stroke-miterlimit="10" stroke-linecap="round"/><path opacity=".41" d="M105.107 104.135v199.416a18.11 18.11 0 0 0 9.375 15.871l138.824 76.601V169.345l-148.199-65.21zM255.723 268.76v128.664l90.81 50.462V309.093l-90.81-40.333zM349.073 310.663v137.792l49.969 28.587c2.787 1.601 6.266-.415 6.266-3.633V335.755l-56.235-25.077v-.015zM255.723 252.104v14.516l149.585 65.687V317.96l-149.585-65.856zM255.723 235.771v14.532l149.585 65.687v-14.348l-149.585-65.871zM255.723 219.453v14.532l149.585 65.686v-14.347l-149.585-65.871zM255.723 203.12v14.532l149.585 65.686v-14.347L255.723 203.12zM255.723 186.802v14.532l149.585 65.687v-14.348l-149.585-65.871zM255.723 170.484v14.517l149.585 65.702V236.34l-149.585-65.856z" fill="#fff"/><path d="M105.107 30.967v7.928l301.309 135.838v-7.174c0-4.464-2.617-8.528-6.697-10.36L111.28 26.979c-2.894-1.308-6.173.817-6.173 3.988z" fill="url(#r)"/><path d="M111.911 38.033a2.432 2.432 0 1 0 0-4.865 2.432 2.432 0 0 0 0 4.865z" fill="#FF6E60"/><path d="M118.484 40.773a2.432 2.432 0 1 0 .001-4.865 2.432 2.432 0 0 0-.001 4.865z" fill="#FFC145"/><path d="M124.842 43.206a2.432 2.432 0 1 0 0-4.865 2.432 2.432 0 0 0 0 4.865z" fill="#00C646"/><g filter="url(#s)"><path d="M353.321 323.192c25.402-4.381 40.882-37.647 34.576-74.302-6.306-36.655-32.01-62.818-57.412-58.437s-40.882 37.647-34.576 74.302c6.306 36.655 32.01 62.818 57.412 58.437z" fill="#F8F8F8"/></g><path d="M350.354 318.181c23.207-4.002 37.35-34.39 31.59-67.872-5.76-33.483-29.243-57.381-52.45-53.378-23.206 4.002-37.35 34.39-31.59 67.872 5.761 33.482 29.243 57.381 52.45 53.378z" fill="url(#t)"/><path d="m316.267 265.848 15.334 16.155 26.306-38.656" stroke="#fff" stroke-width="12" stroke-miterlimit="10" stroke-linecap="round" stroke-linejoin="round"/><g filter="url(#u)"><path d="M140.639 208.956c27.359-4.719 44.032-40.548 37.24-80.027-6.792-39.478-34.476-67.657-61.835-62.939-27.358 4.719-44.031 40.548-37.24 80.027 6.792 39.479 34.477 67.657 61.835 62.939z" fill="#EFEFEF"/></g><path d="M137.331 203.56c24.994-4.311 40.227-37.039 34.023-73.101-6.203-36.062-31.495-61.801-56.49-57.49-24.994 4.31-40.227 37.039-34.023 73.101 6.204 36.062 31.495 61.801 56.49 57.49z" fill="url(#v)"/><path d="m100.618 147.194 16.515 17.4 28.333-41.634" stroke="#fff" stroke-width="12" stroke-miterlimit="10" stroke-linecap="round" stroke-linejoin="round"/><g filter="url(#w)"><path d="M243.424 361.582c44.388-7.655 71.438-65.786 60.419-129.838-11.019-64.052-55.935-109.77-100.323-102.114-44.388 7.655-71.439 65.786-60.419 129.837 11.019 64.052 55.935 109.771 100.323 102.115z" fill="#fff"/></g><path d="M240.178 355.845c41.693-7.19 67.103-61.784 56.754-121.938-10.349-60.154-52.537-103.089-94.229-95.898-41.693 7.191-67.103 61.785-56.754 121.938 10.348 60.154 52.536 103.089 94.229 95.898z" fill="url(#x)"/><path d="m178.938 261.824 27.549 29.023 47.261-69.447" stroke="#fff" stroke-width="15" stroke-miterlimit="10" stroke-linecap="round" stroke-linejoin="round"/><g filter="url(#y)"><path d="m272.725 340.047 5.629 11.926 3.388-1.584-5.829-12.297 7.622-1.361-17.286-14.721v22.911l6.451-4.874h.025z" fill="#fff"/></g><path d="m277.476 354.252-5.673-11.732-7.859 5.816V317.4l24.201 20.056-9.498 1.654 5.829 11.983-7 3.184v-.025zm-4.97-14.565 5.881 12.083 3.539-1.604-6.089-12.46 7.962-1.379-18.059-14.916v23.214l6.74-4.938h.026z" fill="#666"/><defs><linearGradient id="i" x1="189.443" y1="414.259" x2="205.577" y2="414.259" gradientUnits="userSpaceOnUse"><stop offset=".19" stop-color="#3D065F"/><stop offset=".93" stop-color="#3D065F"/></linearGradient><linearGradient id="x" x1="224.125" y1="74.333" x2="90.597" y2="305.93" gradientUnits="userSpaceOnUse"><stop stop-color="#FFF800"/><stop offset="1" stop-color="#30F9FC"/></linearGradient><linearGradient id="v" x1="127.707" y1="34.795" x2="47.658" y2="173.636" gradientUnits="userSpaceOnUse"><stop stop-color="#FFF800"/><stop offset="1" stop-color="#30F9FC"/></linearGradient><linearGradient id="t" x1="341.419" y1="161.488" x2="267.095" y2="290.398" gradientUnits="userSpaceOnUse"><stop stop-color="#FFF800"/><stop offset="1" stop-color="#30F9FC"/></linearGradient><linearGradient id="a" x1="164.271" y1="479.005" x2="273.237" y2="473.522" gradientUnits="userSpaceOnUse"><stop offset=".06" stop-color="#200041"/><stop offset=".26" stop-color="#210143"/><stop offset=".36" stop-color="#25084A"/><stop offset=".43" stop-color="#2C1357"/><stop offset=".47" stop-color="#311B61"/><stop offset=".48" stop-color="#351F65"/><stop offset=".5" stop-color="#422C72"/><stop offset=".51" stop-color="#574188"/><stop offset=".52" stop-color="#755FA6"/><stop offset=".53" stop-color="#8770B8"/><stop offset=".54" stop-color="#7D66AE"/><stop offset=".56" stop-color="#5C458C"/><stop offset=".59" stop-color="#442E74"/><stop offset=".61" stop-color="#351F66"/><stop offset=".63" stop-color="#311B61"/><stop offset=".67" stop-color="#2A1054"/><stop offset=".75" stop-color="#220446"/><stop offset=".81" stop-color="#200041"/><stop offset="1" stop-color="#200041"/></linearGradient><linearGradient id="r" x1="255.761" y1="26.587" x2="255.761" y2="174.733" gradientUnits="userSpaceOnUse"><stop stop-color="#D8D8D8"/><stop offset=".464" stop-color="#fff"/><stop offset="1" stop-color="#DDD" stop-opacity=".865"/></linearGradient><linearGradient id="q" x1="320.743" y1="-110.526" x2="-50.567" y2="311.945" gradientUnits="userSpaceOnUse"><stop stop-color="#FFF800"/><stop offset="1" stop-color="#30F9FC"/></linearGradient><linearGradient id="d" x1="286.91" y1="496.054" x2="78.737" y2="322.887" gradientUnits="userSpaceOnUse"><stop offset=".19" stop-color="#3D065F"/><stop offset=".93" stop-color="#3D065F"/></linearGradient><linearGradient id="e" x1="234.806" y1="352.261" x2="288.849" y2="445.908" gradientUnits="userSpaceOnUse"><stop offset=".06" stop-color="#200041"/><stop offset=".26" stop-color="#210143"/><stop offset=".36" stop-color="#25084A"/><stop offset=".43" stop-color="#2C1357"/><stop offset=".47" stop-color="#311B61"/><stop offset=".48" stop-color="#351F65"/><stop offset=".5" stop-color="#422C72"/><stop offset=".51" stop-color="#574188"/><stop offset=".52" stop-color="#755FA6"/><stop offset=".53" stop-color="#8770B8"/><stop offset=".54" stop-color="#7D66AE"/><stop offset=".56" stop-color="#5C458C"/><stop offset=".59" stop-color="#442E74"/><stop offset=".61" stop-color="#351F66"/><stop offset=".63" stop-color="#311B61"/><stop offset=".67" stop-color="#2A1054"/><stop offset=".75" stop-color="#220446"/><stop offset=".81" stop-color="#200041"/><stop offset="1" stop-color="#200041"/></linearGradient><linearGradient id="p" x1="96.748" y1="255.091" x2="414.159" y2="255.091" gradientUnits="userSpaceOnUse"><stop stop-color="#311B61"/><stop offset=".2" stop-color="#290E52"/><stop offset=".49" stop-color="#200041"/><stop offset="1" stop-color="#0F001F"/></linearGradient><linearGradient id="o" x1="388.143" y1="517.929" x2="88.035" y2="-116.201" gradientUnits="userSpaceOnUse"><stop stop-color="#311B61"/><stop offset=".2" stop-color="#290E52"/><stop offset=".49" stop-color="#200041"/><stop offset="1" stop-color="#0F001F"/></linearGradient><linearGradient id="h" x1="312.879" y1="451.542" x2="56.641" y2="371.28" gradientUnits="userSpaceOnUse"><stop offset=".19" stop-color="#3D065F"/><stop offset=".93" stop-color="#3D065F"/></linearGradient><linearGradient id="n" x1="407.74" y1="302.443" x2="-349.743" y2="65.312" gradientUnits="userSpaceOnUse"><stop offset=".19" stop-color="#3D065F"/><stop offset=".93" stop-color="#3D065F"/></linearGradient><linearGradient id="j" x1="284.329" y1="388.463" x2="225.343" y2="497.931" gradientUnits="userSpaceOnUse"><stop stop-color="#fff" stop-opacity="0"/><stop offset=".5" stop-color="#20112D"/><stop offset="1" stop-color="#EEEAF1" stop-opacity="0"/></linearGradient><linearGradient id="k" x1="161.449" y1="-47.62" x2="357.724" y2="292.329" gradientUnits="userSpaceOnUse"><stop offset=".06" stop-color="#200041"/><stop offset=".26" stop-color="#210143"/><stop offset=".36" stop-color="#25084A"/><stop offset=".43" stop-color="#2C1357"/><stop offset=".47" stop-color="#311B61"/><stop offset=".48" stop-color="#351F65"/><stop offset=".5" stop-color="#422C72"/><stop offset=".51" stop-color="#574188"/><stop offset=".52" stop-color="#755FA6"/><stop offset=".53" stop-color="#8770B8"/><stop offset=".54" stop-color="#7D66AE"/><stop offset=".56" stop-color="#5C458C"/><stop offset=".59" stop-color="#442E74"/><stop offset=".61" stop-color="#351F66"/><stop offset=".63" stop-color="#311B61"/><stop offset=".67" stop-color="#2A1054"/><stop offset=".75" stop-color="#220446"/><stop offset=".81" stop-color="#200041"/><stop offset="1" stop-color="#200041"/></linearGradient><radialGradient id="l" cx="0" cy="0" r="1" gradientUnits="userSpaceOnUse" gradientTransform="translate(502.183 141.852) scale(322.738)"><stop stop-color="#711F56"/><stop offset=".16" stop-color="#6B1D51"/><stop offset=".36" stop-color="#5C1946"/><stop offset=".58" stop-color="#421232"/><stop offset=".82" stop-color="#1F0818"/><stop offset="1"/></radialGradient><radialGradient id="m" cx="0" cy="0" r="1" gradientUnits="userSpaceOnUse" gradientTransform="translate(414.436 112.495) scale(189.409)"><stop stop-color="#AF8AFC"/><stop offset="1" stop-color="#10054D"/></radialGradient><radialGradient id="g" cx="0" cy="0" r="1" gradientUnits="userSpaceOnUse" gradientTransform="matrix(42.4169 0 0 42.3938 326.386 400.269)"><stop stop-color="#AF8AFC"/><stop offset="1" stop-color="#10054D"/></radialGradient><radialGradient id="f" cx="0" cy="0" r="1" gradientUnits="userSpaceOnUse" gradientTransform="matrix(73.2848 0 0 73.2449 361.364 407.056)"><stop stop-color="#711F56"/><stop offset=".16" stop-color="#6B1D51"/><stop offset=".36" stop-color="#5C1946"/><stop offset=".58" stop-color="#421232"/><stop offset=".82" stop-color="#1F0818"/><stop offset="1"/></radialGradient><radialGradient id="c" cx="0" cy="0" r="1" gradientUnits="userSpaceOnUse" gradientTransform="matrix(23.59957 36.48748 -36.49563 23.60484 256.636 530.72)"><stop stop-color="#AF8AFC"/><stop offset="1" stop-color="#10054D"/></radialGradient><radialGradient id="b" cx="0" cy="0" r="1" gradientUnits="userSpaceOnUse" gradientTransform="rotate(57.106 -372.265 536.985) scale(68.711 68.7264)"><stop stop-color="#711F56"/><stop offset=".16" stop-color="#6B1D51"/><stop offset=".36" stop-color="#5C1946"/><stop offset=".58" stop-color="#421232"/><stop offset=".82" stop-color="#1F0818"/><stop offset="1"/></radialGradient><filter id="u" x="77.289" y="42.475" width="175.106" height="207.997" filterUnits="userSpaceOnUse" color-interpolation-filters="sRGB"><feFlood flood-opacity="0" result="BackgroundImageFix"/><feColorMatrix in="SourceAlpha" values="0 0 0 0 0 0 0 0 0 0 0 0 0 0 0 0 0 0 127 0" result="hardAlpha"/><feOffset dx="41" dy="9"/><feGaussianBlur stdDeviation="16"/><feComposite in2="hardAlpha" operator="out"/><feColorMatrix values="0 0 0 0 0.2375 0 0 0 0 0.2375 0 0 0 0 0.2375 0 0 0 0.15 0"/><feBlend in2="BackgroundImageFix" result="effect1_dropShadow_44_8686"/><feBlend in="SourceGraphic" in2="effect1_dropShadow_44_8686" result="shape"/></filter><filter id="y" x="263.249" y="315.01" width="39.286" height="51.963" filterUnits="userSpaceOnUse" color-interpolation-filters="sRGB"><feFlood flood-opacity="0" result="BackgroundImageFix"/><feColorMatrix in="SourceAlpha" values="0 0 0 0 0 0 0 0 0 0 0 0 0 0 0 0 0 0 127 0" result="hardAlpha"/><feOffset dx="8" dy="4"/><feGaussianBlur stdDeviation="5.5"/><feComposite in2="hardAlpha" operator="out"/><feColorMatrix values="0 0 0 0 0 0 0 0 0 0 0 0 0 0 0 0 0 0 0.25 0"/><feBlend in2="BackgroundImageFix" result="effect1_dropShadow_44_8686"/><feBlend in="SourceGraphic" in2="effect1_dropShadow_44_8686" result="shape"/></filter><filter id="w" x="140.642" y="105.792" width="238.66" height="297.626" filterUnits="userSpaceOnUse" color-interpolation-filters="sRGB"><feFlood flood-opacity="0" result="BackgroundImageFix"/><feColorMatrix in="SourceAlpha" values="0 0 0 0 0 0 0 0 0 0 0 0 0 0 0 0 0 0 127 0" result="hardAlpha"/><feOffset dx="41" dy="9"/><feGaussianBlur stdDeviation="16"/><feComposite in2="hardAlpha" operator="out"/><feColorMatrix values="0 0 0 0 0.2375 0 0 0 0 0.2375 0 0 0 0 0.2375 0 0 0 0.15 0"/><feBlend in2="BackgroundImageFix" result="effect1_dropShadow_44_8686"/><feBlend in="SourceGraphic" in2="effect1_dropShadow_44_8686" result="shape"/></filter><filter id="s" x="294.502" y="166.974" width="167.802" height="197.697" filterUnits="userSpaceOnUse" color-interpolation-filters="sRGB"><feFlood flood-opacity="0" result="BackgroundImageFix"/><feColorMatrix in="SourceAlpha" values="0 0 0 0 0 0 0 0 0 0 0 0 0 0 0 0 0 0 127 0" result="hardAlpha"/><feOffset dx="41" dy="9"/><feGaussianBlur stdDeviation="16"/><feComposite in2="hardAlpha" operator="out"/><feColorMatrix values="0 0 0 0 0.2375 0 0 0 0 0.2375 0 0 0 0 0.2375 0 0 0 0.15 0"/><feBlend in2="BackgroundImageFix" result="effect1_dropShadow_44_8686"/><feBlend in="SourceGraphic" in2="effect1_dropShadow_44_8686" result="shape"/></filter></defs></svg>