<svg width="228" height="31" viewBox="0 0 228 31" fill="none" xmlns="http://www.w3.org/2000/svg">
<g clip-path="url(#clip0_29_96)">
<path d="M57.4298 15.12C57.4298 19.53 54.1298 23.13 49.7398 23.49H49.0598C44.4398 23.49 40.6898 19.73 40.6898 15.12V0H34.0098V15.14C34.0798 19.14 35.6798 22.89 38.5098 25.69C41.3398 28.49 45.0898 30.04 49.0698 30.04C53.0498 30.04 56.8398 28.5 59.6798 25.69C62.5198 22.89 64.1198 19.14 64.1898 15.12V0H57.4398V15.12H57.4298Z" fill="white"/>
<path d="M68.1398 15.12C68.1398 23.42 74.8898 30.18 83.1998 30.18H84.3798V23.5H83.1998C78.5798 23.5 74.8298 19.74 74.8298 15.13V6.81001H84.3898V0.0700073H68.1498V15.13L68.1398 15.12Z" fill="white"/>
<path d="M133.56 0C125.26 0 118.5 6.78 118.5 15.12V30.18H125.18V15.12C125.18 10.5 128.94 6.75 133.55 6.75H134.73V0H133.55H133.56Z" fill="white"/>
<path d="M100.78 0C92.4398 0 85.6598 6.78 85.6598 15.12C85.6598 23.46 92.4398 30.18 100.78 30.18C109.12 30.18 115.84 23.43 115.84 15.12C115.84 6.81 109.08 0 100.78 0ZM100.78 23.5C96.1298 23.5 92.3398 19.74 92.3398 15.13C92.3398 10.52 96.1298 6.76 100.78 6.76C105.43 6.76 109.15 10.52 109.15 15.13C109.15 19.74 105.39 23.5 100.78 23.5Z" fill="white"/>
<path d="M150.42 0C142.08 0 135.3 6.78 135.3 15.12C135.3 23.46 142.08 30.18 150.42 30.18C158.76 30.18 165.48 23.43 165.48 15.12C165.48 6.81 158.73 0 150.42 0ZM150.42 23.5C145.77 23.5 141.98 19.74 141.98 15.13C141.98 10.52 145.77 6.76 150.42 6.76C155.07 6.76 158.79 10.52 158.79 15.13C158.79 19.74 155.03 23.5 150.42 23.5Z" fill="white"/>
<path d="M183.25 0C174.91 0 168.13 6.78 168.13 15.12C168.13 23.46 174.91 30.18 183.25 30.18C191.59 30.18 198.31 23.43 198.31 15.12C198.31 6.81 191.56 0 183.25 0ZM183.25 23.5C178.6 23.5 174.81 19.74 174.81 15.13C174.81 10.52 178.6 6.76 183.25 6.76C187.9 6.76 191.62 10.52 191.62 15.13C191.62 19.74 187.86 23.5 183.25 23.5Z" fill="white"/>
<path d="M217.95 6.81001V0.0700073H201.71V15.13C201.71 23.43 208.46 30.19 216.77 30.19H217.95V23.51H216.77C212.15 23.51 208.4 19.75 208.4 15.14V6.81001H217.96H217.95Z" fill="white"/>
<path d="M220.88 27.24C220.88 25.21 222.37 23.8 224.2 23.8C226.03 23.8 227.5 25.21 227.5 27.24C227.5 29.27 226.01 30.68 224.2 30.68C222.39 30.68 220.88 29.27 220.88 27.24ZM226.74 27.24C226.74 25.62 225.65 24.48 224.19 24.48C222.73 24.48 221.63 25.61 221.63 27.24C221.63 28.87 222.73 29.98 224.19 29.98C225.65 29.98 226.74 28.88 226.74 27.24V27.24ZM222.89 25.46H224.27C225.02 25.46 225.65 25.77 225.65 26.59C225.65 27 225.41 27.39 225 27.54L225.78 28.95H224.92L224.34 27.78H223.68V28.95H222.89V25.46V25.46ZM224.1 27.19C224.54 27.19 224.79 26.98 224.79 26.63C224.79 26.32 224.6 26.09 224.13 26.09H223.68V27.19H224.1V27.19Z" fill="white"/>
<path d="M57.4298 15.12C57.4298 19.53 54.1298 23.13 49.7398 23.49H49.0598C44.4398 23.49 40.6898 19.73 40.6898 15.12V0H34.0098V15.14C34.0798 19.14 35.6798 22.89 38.5098 25.69C41.3398 28.49 45.0898 30.04 49.0698 30.04C53.0498 30.04 56.8398 28.5 59.6798 25.69C62.5198 22.89 64.1198 19.14 64.1898 15.12V0H57.4398V15.12H57.4298Z" fill="white"/>
<path d="M68.1398 15.12C68.1398 23.42 74.8898 30.18 83.1998 30.18H84.3798V23.5H83.1998C78.5798 23.5 74.8298 19.74 74.8298 15.13V6.81001H84.3898V0.0700073H68.1498V15.13L68.1398 15.12Z" fill="white"/>
<path d="M133.56 0C125.26 0 118.5 6.78 118.5 15.12V30.18H125.18V15.12C125.18 10.5 128.94 6.75 133.55 6.75H134.73V0H133.55H133.56Z" fill="white"/>
<path d="M100.78 0C92.4398 0 85.6598 6.78 85.6598 15.12C85.6598 23.46 92.4398 30.18 100.78 30.18C109.12 30.18 115.84 23.43 115.84 15.12C115.84 6.81 109.08 0 100.78 0ZM100.78 23.5C96.1298 23.5 92.3398 19.74 92.3398 15.13C92.3398 10.52 96.1298 6.76 100.78 6.76C105.43 6.76 109.15 10.52 109.15 15.13C109.15 19.74 105.39 23.5 100.78 23.5Z" fill="white"/>
<path d="M150.42 0C142.08 0 135.3 6.78 135.3 15.12C135.3 23.46 142.08 30.18 150.42 30.18C158.76 30.18 165.48 23.43 165.48 15.12C165.48 6.81 158.73 0 150.42 0ZM150.42 23.5C145.77 23.5 141.98 19.74 141.98 15.13C141.98 10.52 145.77 6.76 150.42 6.76C155.07 6.76 158.79 10.52 158.79 15.13C158.79 19.74 155.03 23.5 150.42 23.5Z" fill="white"/>
<path d="M183.25 0C174.91 0 168.13 6.78 168.13 15.12C168.13 23.46 174.91 30.18 183.25 30.18C191.59 30.18 198.31 23.43 198.31 15.12C198.31 6.81 191.56 0 183.25 0ZM183.25 23.5C178.6 23.5 174.81 19.74 174.81 15.13C174.81 10.52 178.6 6.76 183.25 6.76C187.9 6.76 191.62 10.52 191.62 15.13C191.62 19.74 187.86 23.5 183.25 23.5Z" fill="white"/>
<path d="M217.95 6.81001V0.0700073H201.71V15.13C201.71 23.43 208.46 30.19 216.77 30.19H217.95V23.51H216.77C212.15 23.51 208.4 19.75 208.4 15.14V6.81001H217.96H217.95Z" fill="white"/>
<path d="M220.88 27.24C220.88 25.21 222.37 23.8 224.2 23.8C226.03 23.8 227.5 25.21 227.5 27.24C227.5 29.27 226.01 30.68 224.2 30.68C222.39 30.68 220.88 29.27 220.88 27.24ZM226.74 27.24C226.74 25.62 225.65 24.48 224.19 24.48C222.73 24.48 221.63 25.61 221.63 27.24C221.63 28.87 222.73 29.98 224.19 29.98C225.65 29.98 226.74 28.88 226.74 27.24V27.24ZM222.89 25.46H224.27C225.02 25.46 225.65 25.77 225.65 26.59C225.65 27 225.41 27.39 225 27.54L225.78 28.95H224.92L224.34 27.78H223.68V28.95H222.89V25.46V25.46ZM224.1 27.19C224.54 27.19 224.79 26.98 224.79 26.63C224.79 26.32 224.6 26.09 224.13 26.09H223.68V27.19H224.1V27.19Z" fill="white"/>
<path opacity="0.5" d="M23.4998 15.12V27.62C22.9398 28 22.3498 28.34 21.7398 28.64L23.2298 17.24C23.2698 17.1 23.2998 16.95 23.3398 16.8C23.4098 16.43 23.4698 16.07 23.4898 15.69C23.4998 15.5 23.5098 15.3 23.5098 15.11L23.4998 15.12Z" fill="white"/>
<path d="M30.1798 15.12V30.18H23.4998V15.12C23.4998 10.51 19.7398 6.75 15.1198 6.75C10.4998 6.75 6.67976 10.51 6.67976 15.12C6.67976 19.73 10.4698 23.5 15.1198 23.5C18.9998 23.5 22.2698 20.84 23.2198 17.25L21.7298 28.65C19.7298 29.63 17.4898 30.18 15.1198 30.18C6.78976 30.18 -0.000244141 23.43 -0.000244141 15.12C-0.000244141 6.81 6.78976 0 15.1198 0C23.4498 0 30.1798 6.78 30.1798 15.12Z" fill="white"/>
</g>
<defs>
<clipPath id="clip0_29_96">
<rect width="227.5" height="30.68" fill="white" transform="translate(-0.000244141)"/>
</clipPath>
</defs>
</svg>
