<svg width="8" height="8" viewBox="0 0 8 8" fill="none" xmlns="http://www.w3.org/2000/svg">
<path d="M0.879761 4.23999C0.879761 2.20999 2.36975 0.799988 4.19975 0.799988C6.02975 0.799988 7.49976 2.20999 7.49976 4.23999C7.49976 6.26999 6.00975 7.67999 4.19975 7.67999C2.38975 7.67999 0.879761 6.26999 0.879761 4.23999ZM6.73976 4.23999C6.73976 2.61999 5.64976 1.47999 4.18976 1.47999C2.72976 1.47999 1.62976 2.60999 1.62976 4.23999C1.62976 5.86999 2.72976 6.97999 4.18976 6.97999C5.64976 6.97999 6.73976 5.87999 6.73976 4.23999ZM2.88976 2.45999H4.26976C5.01976 2.45999 5.64975 2.76999 5.64975 3.58999C5.64975 3.99999 5.40976 4.38999 4.99976 4.53999L5.77975 5.94999H4.91975L4.33975 4.77999H3.67975V5.94999H2.88976V2.45999ZM4.09976 4.18999C4.53976 4.18999 4.78975 3.97999 4.78975 3.62999C4.78975 3.31999 4.59976 3.08999 4.12976 3.08999H3.67975V4.18999H4.09976Z" fill="white"/>
</svg>
