<svg width="8" height="8" viewBox="0 0 8 8" fill="none" xmlns="http://www.w3.org/2000/svg">
<path d="M0.879883 4.23999C0.879883 2.20999 2.36987 0.799988 4.19987 0.799988C6.02987 0.799988 7.49988 2.20999 7.49988 4.23999C7.49988 6.26999 6.00987 7.67999 4.19987 7.67999C2.38987 7.67999 0.879883 6.26999 0.879883 4.23999ZM6.73988 4.23999C6.73988 2.61999 5.64988 1.47999 4.18988 1.47999C2.72988 1.47999 1.62988 2.60999 1.62988 4.23999C1.62988 5.86999 2.72988 6.97999 4.18988 6.97999C5.64988 6.97999 6.73988 5.87999 6.73988 4.23999ZM2.88988 2.45999H4.26988C5.01988 2.45999 5.64987 2.76999 5.64987 3.58999C5.64987 3.99999 5.40988 4.38999 4.99988 4.53999L5.77988 5.94999H4.91988L4.33987 4.77999H3.67987V5.94999H2.88988V2.45999ZM4.09988 4.18999C4.53988 4.18999 4.78987 3.97999 4.78987 3.62999C4.78987 3.31999 4.59988 3.08999 4.12988 3.08999H3.67987V4.18999H4.09988Z" fill="#3F3F3F"/>
</svg>
